<?xml version="1.0" encoding="utf-8" standalone="no"?>
<!DOCTYPE svg PUBLIC "-//W3C//DTD SVG 1.1//EN"
  "http://www.w3.org/Graphics/SVG/1.1/DTD/svg11.dtd">
<svg xmlns:xlink="http://www.w3.org/1999/xlink" width="237.6pt" height="432pt" viewBox="0 0 237.6 432" xmlns="http://www.w3.org/2000/svg" version="1.1">
 <metadata>
  <rdf:RDF xmlns:dc="http://purl.org/dc/elements/1.1/" xmlns:cc="http://creativecommons.org/ns#" xmlns:rdf="http://www.w3.org/1999/02/22-rdf-syntax-ns#">
   <cc:Work>
    <dc:type rdf:resource="http://purl.org/dc/dcmitype/StillImage"/>
    <dc:date>2024-09-24T16:41:06.529638</dc:date>
    <dc:format>image/svg+xml</dc:format>
    <dc:creator>
     <cc:Agent>
      <dc:title>Matplotlib v3.9.2, https://matplotlib.org/</dc:title>
     </cc:Agent>
    </dc:creator>
   </cc:Work>
  </rdf:RDF>
 </metadata>
 <defs>
  <style type="text/css">*{stroke-linejoin: round; stroke-linecap: butt}</style>
 </defs>
 <g id="figure_1">
  <g id="patch_1">
   <path d="M 0 432 
L 237.6 432 
L 237.6 0 
L 0 0 
z
" style="fill: #ffffff"/>
  </g>
  <g id="axes_1">
   <g id="PatchCollection_1">
    <path d="M 18.249943 428.99976 
L 10.726131 428.868908 
L 5.435468 428.331104 
L 4.407532 425.571231 
L 3.809859 422.064493 
L 3.565634 414.27828 
L 3.506659 362.092038 
L 3.423762 223.029761 
L 3.363916 103.176807 
L 3.411123 86.647844 
L 3.608096 79.679265 
L 4.257614 69.281451 
L 5.923213 67.386311 
L 6.432324 66.807204 
L 9.471969 63.290848 
L 18.194591 53.198965 
L 25.414552 43.315121 
L 28.900194 36.668982 
L 29.718489 34.664288 
L 33.593152 27.194409 
L 36.658121 10.682352 
L 37.247683 7.178206 
L 38.059379 5.012068 
L 45.50785 3.65723 
L 68.029227 3.159621 
L 173.506986 3.049685 
L 231.808243 3.00024 
L 232.71936 6.069594 
L 233.424167 15.790752 
L 233.652449 66.541738 
L 234.236084 397.933348 
L 234.176173 422.490789 
L 232.668163 425.916166 
L 230.564206 427.372187 
L 226.642179 428.082 
L 223.552449 428.624551 
L 162.702847 428.823042 
L 109.612814 428.942426 
L 69.250119 428.988341 
L 18.249943 428.99976 
" clip-path="url(#p6a58cbbc05)" style="fill: #eee8aa; fill-opacity: 0.211765"/>
    <path d="M 7.157367 40.959797 
L 8.952921 25.22356 
L 12.541161 16.305858 
L 19.018485 8.475509 
L 24.145981 7.542844 
L 23.424931 9.567475 
L 20.885281 16.952882 
L 18.485405 22.112609 
L 10.26127 36.44125 
L 9.756381 37.183288 
L 8.988001 38.259386 
L 7.683335 40.311577 
L 7.157367 40.959797 
" clip-path="url(#p6a58cbbc05)" style="fill: #eee8aa; fill-opacity: 0.211765"/>
   </g>
   <g id="text_1">
    <g id="patch_2">
     <path d="M 13.161618 35.865976 
L 60.901618 35.865976 
Q 65.101618 35.865976 65.101618 31.665976 
L 65.101618 18.116601 
Q 65.101618 13.916601 60.901618 13.916601 
L 13.161618 13.916601 
Q 8.961618 13.916601 8.961618 18.116601 
L 8.961618 31.665976 
Q 8.961618 35.865976 13.161618 35.865976 
z
" style="fill: #ffffff; stroke: #2d2d2d; stroke-linejoin: miter"/>
    </g>
    <!-- $\gamma = 2.5$ -->
    <g transform="translate(13.161618 28.725976) scale(0.14 -0.14)">
     <defs>
      <path id="DejaVuSans-Oblique-3b3" d="M 1491 2950 
L 1838 788 
L 3456 3500 
L 4066 3500 
L 1972 0 
L 1713 -1331 
L 1138 -1331 
L 1397 0 
L 988 2613 
Q 925 3006 628 3006 
L 475 3006 
L 569 3500 
L 788 3500 
Q 1403 3500 1491 2950 
z
" transform="scale(0.015625)"/>
      <path id="DejaVuSans-3d" d="M 678 2906 
L 4684 2906 
L 4684 2381 
L 678 2381 
L 678 2906 
z
M 678 1631 
L 4684 1631 
L 4684 1100 
L 678 1100 
L 678 1631 
z
" transform="scale(0.015625)"/>
      <path id="DejaVuSans-32" d="M 1228 531 
L 3431 531 
L 3431 0 
L 469 0 
L 469 531 
Q 828 903 1448 1529 
Q 2069 2156 2228 2338 
Q 2531 2678 2651 2914 
Q 2772 3150 2772 3378 
Q 2772 3750 2511 3984 
Q 2250 4219 1831 4219 
Q 1534 4219 1204 4116 
Q 875 4013 500 3803 
L 500 4441 
Q 881 4594 1212 4672 
Q 1544 4750 1819 4750 
Q 2544 4750 2975 4387 
Q 3406 4025 3406 3419 
Q 3406 3131 3298 2873 
Q 3191 2616 2906 2266 
Q 2828 2175 2409 1742 
Q 1991 1309 1228 531 
z
" transform="scale(0.015625)"/>
      <path id="DejaVuSans-2e" d="M 684 794 
L 1344 794 
L 1344 0 
L 684 0 
L 684 794 
z
" transform="scale(0.015625)"/>
      <path id="DejaVuSans-35" d="M 691 4666 
L 3169 4666 
L 3169 4134 
L 1269 4134 
L 1269 2991 
Q 1406 3038 1543 3061 
Q 1681 3084 1819 3084 
Q 2600 3084 3056 2656 
Q 3513 2228 3513 1497 
Q 3513 744 3044 326 
Q 2575 -91 1722 -91 
Q 1428 -91 1123 -41 
Q 819 9 494 109 
L 494 744 
Q 775 591 1075 516 
Q 1375 441 1709 441 
Q 2250 441 2565 725 
Q 2881 1009 2881 1497 
Q 2881 1984 2565 2268 
Q 2250 2553 1709 2553 
Q 1456 2553 1204 2497 
Q 953 2441 691 2322 
L 691 4666 
z
" transform="scale(0.015625)"/>
     </defs>
     <use xlink:href="#DejaVuSans-Oblique-3b3" transform="translate(0 0.78125)"/>
     <use xlink:href="#DejaVuSans-3d" transform="translate(78.662109 0.78125)"/>
     <use xlink:href="#DejaVuSans-32" transform="translate(181.933594 0.78125)"/>
     <use xlink:href="#DejaVuSans-2e" transform="translate(245.556641 0.78125)"/>
     <use xlink:href="#DejaVuSans-35" transform="translate(277.34375 0.78125)"/>
    </g>
   </g>
   <g id="PatchCollection_2">
    <path d="M 127.585807 345.681004 
L 124.950207 344.493028 
L 118.800662 341.767652 
L 103.724131 334.882916 
L 95.153191 330.617843 
L 91.85331 329.149814 
L 85.206284 326.248661 
L 84.9214 326.108805 
L 81.574641 325.061072 
L 63.512257 319.367224 
L 61.256742 317.792604 
L 56.294174 313.662657 
L 45.610028 304.84239 
L 38.13121 297.981125 
L 26.119572 288.10964 
L 27.351314 285.410998 
L 28.392594 281.801541 
L 28.818464 280.189576 
L 30.190695 275.038279 
L 34.212254 259.864676 
L 44.452416 221.211804 
L 45.468979 217.21685 
L 45.799947 215.92024 
L 46.083594 214.763813 
L 44.447145 214.554897 
L 51.117989 194.543701 
L 51.543897 193.457218 
L 51.662047 192.966609 
L 51.756456 192.440984 
L 51.99287 191.599912 
L 52.465895 190.163023 
L 52.584129 189.777523 
L 52.938738 188.515914 
L 53.458256 185.992852 
L 53.670708 184.871506 
L 54.261603 182.663709 
L 54.923524 180.350741 
L 55.396171 178.528441 
L 56.673092 174.568225 
L 56.791367 174.252795 
L 57.335196 172.535538 
L 58.658903 167.944609 
L 60.1239 162.337484 
L 64.045571 146.987986 
L 65.69905 140.469685 
L 66.761671 135.984031 
L 67.848715 132.339226 
L 68.320239 129.570897 
L 69.430691 125.680802 
L 70.090881 121.931265 
L 70.962592 116.289546 
L 70.854126 101.679338 
L 71.276683 97.369423 
L 72.126786 94.110206 
L 73.332335 90.850648 
L 73.781471 89.658971 
L 74.06525 89.028039 
L 74.349059 88.432143 
L 75.129283 86.539411 
L 76.481311 87.834472 
L 84.542696 91.855743 
L 85.823733 93.150807 
L 91.154618 91.883991 
L 93.761418 91.846213 
L 104.422816 89.206861 
L 109.82291 86.502922 
L 115.192773 98.549344 
L 109.863464 101.218319 
L 147.169658 138.485908 
L 143.192644 142.520434 
L 137.039348 150.271577 
L 127.097972 162.511919 
L 141.816043 177.208458 
L 156.528442 169.200161 
L 178.779094 192.81739 
L 195.99915 210.974392 
L 192.563387 212.696675 
L 181.046643 218.110249 
L 179.69576 218.672891 
L 168.912884 223.699189 
L 164.57872 227.699627 
L 189.82477 250.540287 
L 211.27107 267.182523 
L 203.170629 274.553661 
L 196.513418 279.925054 
L 181.849546 293.261865 
L 166.617492 308.910707 
L 161.761337 314.348285 
L 144.014583 333.011903 
L 127.585807 345.681004 
" clip-path="url(#p6a58cbbc05)" style="fill: none; stroke: #d55e00; stroke-width: 2"/>
   </g>
   <g id="PatchCollection_3">
    <defs>
     <path id="mcbbcc45763" d="M 25.564693 -59.55823 
L 25.500412 -59.501428 
L 21.919681 -56.542314 
L 18.83345 -53.988608 
L 15.296392 -51.068893 
L 11.90394 -48.265304 
L 12.204161 -47.943509 
L 12.250475 -47.895188 
L 14.464396 -45.519735 
L 17.618254 -42.174069 
L 18.720435 -40.94818 
L 18.997407 -40.640395 
L 20.30817 -39.182714 
L 20.113881 -39.004254 
L 19.407253 -38.606482 
L 19.251392 -38.465536 
L 18.89438 -38.110739 
L 18.42525 -38.604439 
L 17.674884 -39.394011 
L 17.53949 -39.538621 
L 12.004892 -45.448481 
L 11.657166 -45.819647 
L 11.055061 -46.462537 
L 10.70045 -46.841059 
L 4.825987 -53.05399 
L 3.52415 -54.430785 
L 3.506659 -69.907962 
L 3.470785 -130.088586 
L 3.710897 -130.686836 
L 4.728125 -133.348414 
L 5.731127 -135.947626 
L 6.741935 -138.536337 
L 8.763383 -143.853222 
L 7.121356 -144.44751 
L 8.76165 -148.725351 
L 10.391565 -148.098836 
L 11.515955 -150.940957 
L 11.567417 -151.354066 
L 11.471829 -151.715931 
L 10.594184 -152.733195 
L 10.313944 -153.250509 
L 10.484934 -153.330846 
L 10.947151 -153.936553 
L 11.031771 -154.049772 
L 11.126341 -154.183668 
L 11.255519 -154.361381 
L 11.348669 -154.48967 
L 13.37766 -157.490724 
L 13.540724 -157.340521 
L 15.109271 -155.755769 
L 15.833244 -155.052703 
L 17.889927 -152.907708 
L 18.043943 -152.819516 
L 18.284001 -152.840344 
L 18.41751 -152.915408 
L 19.212483 -155.760516 
L 20.38348 -159.950566 
L 22.022739 -165.817772 
L 19.202095 -166.903076 
L 16.375078 -167.991222 
L 16.24743 -168.040541 
L 17.15871 -170.346511 
L 18.386452 -173.653676 
L 19.510951 -176.62934 
L 21.18687 -181.047822 
L 21.284657 -181.305404 
L 23.423738 -187.07942 
L 23.803632 -188.227818 
L 23.81403 -188.284233 
L 23.861882 -188.718365 
L 23.86462 -188.877782 
L 24.182914 -188.876598 
L 25.659403 -188.459979 
L 26.237108 -188.210219 
L 26.80306 -187.809798 
L 28.337944 -187.34489 
L 30.305512 -186.797619 
L 32.891568 -186.057419 
L 35.610016 -185.28512 
L 37.564336 -184.750529 
L 37.728974 -184.708259 
L 37.900966 -184.663893 
L 38.01982 -184.631049 
L 38.154332 -184.592962 
L 38.252785 -184.565007 
L 40.190104 -183.951249 
L 40.236943 -184.112452 
L 42.580675 -192.167713 
L 43.008159 -192.046121 
L 46.259618 -191.120587 
L 43.957206 -183.18829 
L 43.872051 -182.894619 
L 47.522742 -181.824723 
L 49.829852 -189.935402 
L 49.8748 -190.076285 
L 49.920457 -190.221022 
L 51.910968 -197.202252 
L 51.944547 -197.321053 
L 51.759036 -197.375906 
L 51.622154 -197.419237 
L 51.576606 -197.433564 
L 48.360037 -198.428406 
L 45.070516 -199.348267 
L 44.699036 -199.448176 
L 45.400516 -201.898124 
L 47.640251 -209.843014 
L 48.624583 -213.443099 
L 48.881418 -213.437002 
L 49.13186 -213.419688 
L 52.941906 -214.226925 
L 52.917078 -214.141065 
L 52.892959 -214.057659 
L 52.861037 -213.946566 
L 52.665489 -213.262142 
L 51.390946 -208.820922 
L 54.526415 -207.903845 
L 54.678472 -207.855974 
L 54.756041 -207.832565 
L 54.958623 -207.771073 
L 56.789971 -214.078832 
L 56.63902 -214.225504 
L 56.573044 -214.283959 
L 56.013658 -214.789756 
L 55.821698 -214.917474 
L 55.421278 -215.056228 
L 55.246278 -215.040663 
L 55.028123 -215.018755 
L 54.225446 -214.947652 
L 53.148648 -214.852148 
L 52.000195 -214.800385 
L 49.677907 -214.703517 
L 48.854119 -214.68073 
L 48.996453 -215.448184 
L 49.279303 -216.976351 
L 49.478634 -217.395199 
L 48.97668 -217.301942 
L 47.745889 -217.034665 
L 47.699436 -217.295298 
L 49.297222 -223.19007 
L 49.615751 -224.567612 
L 49.772507 -225.132178 
L 49.849045 -225.199861 
L 50.12732 -225.343739 
L 50.435726 -225.469073 
L 53.534387 -222.863192 
L 53.75839 -222.688198 
L 53.861601 -222.621015 
L 55.002967 -223.980342 
L 55.100962 -224.190644 
L 55.775952 -225.73212 
L 56.235251 -226.869794 
L 56.789711 -228.193945 
L 57.112473 -228.985695 
L 57.333278 -229.491111 
L 57.220588 -229.553729 
L 53.959125 -231.547325 
L 55.454837 -235.247389 
L 56.994907 -239.133548 
L 58.492353 -237.963222 
L 59.747732 -237.050916 
L 60.071851 -237.073973 
L 60.133022 -237.079633 
L 60.482292 -236.814713 
L 60.506903 -236.870093 
L 60.573629 -237.030618 
L 61.277717 -238.275383 
L 56.127579 -241.309619 
L 55.994729 -241.387988 
L 55.657387 -241.586707 
L 57.078673 -244.021557 
L 62.675327 -240.616006 
L 64.089672 -243.027779 
L 65.490759 -245.378238 
L 59.809124 -248.728974 
L 61.327853 -251.044819 
L 66.945145 -247.742421 
L 67.583425 -248.779734 
L 67.832249 -249.183583 
L 68.765196 -250.7765 
L 69.114559 -251.421144 
L 64.336626 -255.282712 
L 64.250705 -255.385993 
L 64.13654 -255.523233 
L 64.346202 -255.707013 
L 65.175621 -256.15798 
L 65.754481 -256.291643 
L 66.622089 -256.457454 
L 66.914678 -256.698422 
L 68.240723 -255.422206 
L 68.379215 -255.647619 
L 74.829505 -266.142206 
L 72.698061 -267.496796 
L 72.630928 -267.539477 
L 68.84549 -260.876898 
L 67.794252 -259.063841 
L 67.40269 -258.426168 
L 67.277457 -258.22179 
L 66.58014 -257.219109 
L 66.497267 -257.10026 
L 66.073687 -257.50805 
L 65.434765 -257.989573 
L 63.770326 -259.384278 
L 61.669518 -261.220423 
L 61.772719 -261.410763 
L 62.478315 -262.711594 
L 62.759877 -263.083232 
L 64.045456 -265.337581 
L 64.997015 -267.006528 
L 67.189571 -270.839066 
L 69.812533 -275.458952 
L 69.976304 -275.760069 
L 72.4061 -274.408882 
L 69.554297 -269.39949 
L 71.937782 -267.968021 
L 78.450514 -279.419304 
L 78.367254 -279.471077 
L 76.83704 -280.423637 
L 76.544603 -280.813312 
L 76.289391 -281.198118 
L 74.182428 -282.905183 
L 72.02917 -284.726799 
L 71.672372 -285.009559 
L 69.39852 -286.813224 
L 67.338591 -279.750753 
L 66.522131 -276.907139 
L 66.508661 -276.860178 
L 65.128272 -272.084843 
L 62.569634 -272.789236 
L 62.457234 -272.820319 
L 61.889072 -270.837446 
L 60.907211 -267.494092 
L 60.379329 -265.77018 
L 60.041036 -264.664831 
L 59.814035 -263.98107 
L 59.798486 -263.056092 
L 59.7646 -262.764909 
L 58.917481 -263.328959 
L 58.793404 -263.42415 
L 58.491166 -263.64707 
L 57.252836 -264.524716 
L 57.016549 -264.702848 
L 56.895548 -264.807153 
L 56.617231 -265.063732 
L 56.530028 -265.289993 
L 56.489934 -265.59793 
L 56.531451 -265.842521 
L 56.783696 -266.680811 
L 57.00797 -267.787107 
L 57.337158 -269.569349 
L 57.594467 -270.847704 
L 57.702762 -272.001201 
L 57.785181 -272.644894 
L 57.938954 -273.566839 
L 58.133882 -274.598133 
L 58.338174 -275.762575 
L 58.514392 -276.766526 
L 58.802804 -278.787335 
L 58.878336 -279.436629 
L 59.161734 -281.761553 
L 59.211356 -282.76119 
L 59.246342 -283.417806 
L 59.208909 -285.024551 
L 59.166443 -285.606122 
L 59.076491 -286.274892 
L 58.64914 -288.663316 
L 58.565356 -289.33034 
L 58.571598 -289.512186 
L 58.739739 -290.24775 
L 59.526411 -293.068533 
L 59.889614 -294.366607 
L 61.118096 -299.066099 
L 61.934206 -302.019709 
L 62.798258 -305.406419 
L 62.981277 -306.167929 
L 63.590026 -308.484046 
L 65.335006 -314.512276 
L 65.61981 -315.658584 
L 66.579986 -319.534165 
L 66.823871 -320.572875 
L 66.916178 -320.970977 
L 67.101925 -321.82394 
L 67.238674 -322.347864 
L 67.262764 -322.440383 
L 67.71051 -324.205943 
L 67.885319 -324.83256 
L 68.300265 -326.430266 
L 69.100191 -329.714647 
L 69.425495 -331.095045 
L 69.667801 -332.269351 
L 69.668509 -332.272505 
L 70.132026 -334.61234 
L 70.430987 -336.269857 
L 70.683215 -337.463094 
L 70.844321 -338.019628 
L 70.978736 -338.480487 
L 71.542056 -340.246518 
L 71.793614 -340.879518 
L 72.114696 -341.667447 
L 72.380576 -342.940934 
L 72.453945 -343.292772 
L 72.875602 -343.221345 
L 73.047441 -343.192427 
L 73.304724 -343.275358 
L 73.761516 -343.639123 
L 74.627727 -344.087018 
L 74.900405 -344.176973 
L 75.496002 -343.862212 
L 75.609459 -343.673823 
L 75.536353 -343.301663 
L 75.19899 -342.456602 
L 75.155133 -342.224967 
L 75.117943 -341.960754 
L 76.223039 -343.882182 
L 76.318611 -344.056057 
L 76.409254 -344.267224 
L 76.504288 -344.176062 
L 84.544343 -340.156171 
L 85.826805 -338.857605 
L 90.208038 -339.900173 
L 90.438343 -339.95498 
L 91.169535 -340.128988 
L 91.305206 -340.131534 
L 93.779403 -340.177981 
L 104.436292 -342.821533 
L 109.842091 -345.509012 
L 114.162283 -335.793126 
L 113.212048 -335.426166 
L 111.41639 -334.581451 
L 105.644383 -332.360221 
L 105.462626 -332.29028 
L 105.232518 -332.201716 
L 105.425703 -332.027478 
L 106.121764 -331.399686 
L 107.945587 -329.403251 
L 109.264225 -327.765734 
L 110.239675 -326.361527 
L 112.508167 -322.566163 
L 120.371265 -306.494657 
L 123.886634 -299.313247 
L 124.961117 -297.195195 
L 125.907824 -294.912671 
L 127.057032 -292.215218 
L 127.480492 -291.374864 
L 128.411307 -289.52889 
L 130.495332 -285.852652 
L 131.811713 -283.777691 
L 133.551374 -281.253058 
L 134.525851 -280.017509 
L 135.092789 -279.334317 
L 131.87528 -275.373764 
L 131.783643 -275.411618 
L 131.358117 -275.402322 
L 131.037555 -275.249859 
L 130.769111 -274.938397 
L 130.670164 -274.632403 
L 130.66449 -274.431986 
L 130.745722 -274.120614 
L 130.535591 -273.724757 
L 130.535591 -273.724757 
L 127.107434 -269.505261 
L 127.276038 -269.336987 
L 141.825492 -254.817832 
L 151.124585 -259.882352 
L 151.266262 -259.959519 
L 151.45503 -260.062334 
L 151.487322 -260.024278 
L 155.432061 -255.374069 
L 154.661898 -256.116474 
L 154.501217 -256.238179 
L 154.350743 -256.351489 
L 154.154984 -256.465787 
L 153.949775 -256.555197 
L 153.726583 -256.618304 
L 153.493712 -256.652318 
L 153.284818 -256.663242 
L 153.080698 -256.651398 
L 152.847677 -256.621647 
L 152.615645 -256.562466 
L 152.393623 -256.46546 
L 152.201482 -256.362188 
L 152.028573 -256.239323 
L 151.885804 -256.095127 
L 151.787562 -255.984627 
L 151.696698 -255.853116 
L 151.592389 -255.671133 
L 151.530707 -255.525647 
L 151.46978 -255.348629 
L 151.433472 -255.198973 
L 151.407874 -255.019551 
L 151.388435 -254.844693 
L 151.393194 -254.658655 
L 151.408422 -254.446355 
L 151.439513 -254.250193 
L 151.489777 -254.077532 
L 151.555897 -253.926264 
L 151.645017 -253.773627 
L 151.731725 -253.651118 
L 151.835974 -253.531787 
L 151.936887 -253.424713 
L 152.069093 -253.320486 
L 152.184906 -253.240411 
L 152.310694 -253.148088 
L 152.456602 -253.080318 
L 152.616031 -253.007661 
L 152.791569 -252.945187 
L 152.984854 -252.908315 
L 153.217227 -252.895321 
L 153.47423 -252.903033 
L 153.658882 -252.936573 
L 153.859159 -252.986952 
L 154.107266 -253.083996 
L 154.314339 -253.191845 
L 154.640756 -253.410224 
L 155.510176 -254.101301 
L 153.777767 -252.521555 
L 152.163256 -251.049549 
L 151.673546 -250.603212 
L 147.727626 -246.81075 
L 146.806729 -245.738795 
L 145.499832 -244.295641 
L 152.017171 -250.209173 
L 152.515643 -250.66323 
L 155.304745 -253.153978 
L 156.454166 -254.208626 
L 156.791816 -253.823629 
L 157.11029 -253.460499 
L 156.228895 -252.682973 
L 153.197849 -249.92595 
L 152.723987 -249.506611 
L 151.505101 -248.428616 
L 149.114416 -246.314408 
L 150.747856 -247.51523 
L 151.227872 -247.776558 
L 151.702541 -247.958346 
L 152.190101 -248.076388 
L 152.64429 -248.149888 
L 153.007969 -248.177367 
L 153.377105 -248.201701 
L 153.792009 -248.220843 
L 154.304861 -248.222954 
L 156.429323 -248.210142 
L 156.453271 -248.210175 
L 159.317467 -248.218051 
L 159.754741 -248.178727 
L 160.255111 -248.120574 
L 160.715966 -248.005958 
L 161.13418 -247.864654 
L 161.516627 -247.698775 
L 161.861899 -247.498858 
L 162.100647 -247.343286 
L 162.328757 -247.166677 
L 163.739616 -245.950478 
L 165.810763 -243.802924 
L 166.750644 -242.835877 
L 167.596553 -241.927911 
L 168.517278 -240.939824 
L 167.641321 -241.959509 
L 157.97176 -253.217267 
L 157.482925 -253.789224 
L 157.836455 -254.101097 
L 158.280918 -254.49319 
L 157.949111 -254.871997 
L 159.308467 -256.103356 
L 161.233948 -257.847737 
L 161.348826 -257.725653 
L 161.555207 -257.50633 
L 162.41528 -256.592325 
L 163.49011 -255.450115 
L 178.793785 -239.189289 
L 196.027322 -221.055434 
L 192.554328 -219.333091 
L 187.356459 -216.910881 
L 186.995526 -216.742694 
L 168.924472 -208.323252 
L 164.586285 -204.317201 
L 189.827809 -181.488097 
L 211.098882 -164.96877 
L 211.273416 -164.833247 
L 203.176783 -157.454758 
L 225.812278 -140.430096 
L 234.059647 -134.2487 
L 234.111657 -104.717117 
L 233.384058 -105.185022 
L 232.6517 -105.629707 
L 232.39221 -105.442146 
L 232.362348 -105.422122 
L 228.179511 -102.600872 
L 227.63106 -102.242877 
L 227.577019 -102.208446 
L 227.308254 -102.026831 
L 227.148985 -101.920039 
L 223.571032 -99.536869 
L 222.974004 -99.129052 
L 220.273105 -97.364823 
L 220.119277 -97.262951 
L 216.573119 -94.915009 
L 216.50079 -95.025598 
L 216.468908 -95.074244 
L 215.77876 -96.090506 
L 213.638585 -99.284239 
L 211.354588 -97.766103 
L 209.372789 -96.437698 
L 209.190986 -96.315817 
L 209.066545 -96.232222 
L 211.835185 -92.119454 
L 211.998615 -91.881486 
L 211.789785 -91.74344 
L 209.73445 -90.361653 
L 209.655242 -90.471883 
L 209.631215 -90.506879 
L 206.75875 -94.709899 
L 203.667114 -99.225476 
L 201.416004 -97.716276 
L 199.118381 -96.186356 
L 196.157469 -100.552667 
L 193.222142 -105.032934 
L 191.681412 -104.003227 
L 190.883106 -103.446992 
L 190.267046 -103.032944 
L 189.914342 -102.790288 
L 188.684839 -101.951343 
L 191.664308 -97.429032 
L 188.372426 -95.226732 
L 185.409896 -99.71899 
L 186.944973 -100.767555 
L 183.892113 -105.29018 
L 185.107863 -106.123117 
L 187.209515 -107.631887 
L 186.286286 -108.978286 
L 185.765413 -109.76789 
L 180.001319 -105.765963 
L 181.5053 -103.552577 
L 184.513614 -99.121639 
L 184.320918 -98.976642 
L 182.198359 -97.559668 
L 178.85999 -95.269525 
L 176.633546 -93.762066 
L 175.964788 -93.316804 
L 174.497875 -92.305571 
L 174.339046 -92.196021 
L 173.04444 -91.316792 
L 172.065385 -90.63389 
L 175.035637 -86.253199 
L 178.008671 -81.851539 
L 177.185752 -81.317049 
L 176.090451 -80.582098 
L 175.697149 -80.310329 
L 172.867712 -84.716793 
L 169.7523 -89.066824 
L 167.666577 -87.622044 
L 167.49564 -87.50968 
L 167.290646 -87.808239 
L 165.86539 -89.928655 
L 164.428931 -92.106176 
L 158.770334 -88.305123 
L 160.25335 -86.070166 
L 161.833487 -83.651421 
L 160.429198 -82.719571 
L 161.957264 -80.557568 
L 163.47598 -78.321288 
L 159.092885 -75.305116 
L 162.007731 -70.956377 
L 161.350257 -70.504528 
L 160.047604 -69.626782 
L 158.865153 -68.829797 
L 158.50476 -68.579133 
L 158.223323 -68.381485 
L 158.434431 -68.12777 
L 159.864236 -66.037438 
L 161.24557 -64.007661 
L 161.374001 -63.818999 
L 164.085627 -59.834381 
L 164.22667 -59.627521 
L 163.987657 -59.467064 
L 160.465252 -57.101319 
L 159.143577 -59.040442 
L 157.433313 -61.549766 
L 156.098859 -63.508164 
L 152.17 -60.86908 
L 150.612259 -63.175818 
L 148.565127 -61.826957 
L 147.093035 -60.841863 
L 146.798045 -60.644214 
L 146.521077 -60.458853 
L 144.305837 -63.757682 
L 142.602971 -66.241927 
L 140.735723 -69.054961 
L 140.576856 -69.306311 
L 139.919261 -68.902538 
L 138.47663 -68.266158 
L 136.03281 -66.602647 
L 135.347631 -66.225482 
L 134.699413 -65.895315 
L 134.26586 -65.848163 
L 133.904029 -65.763966 
L 133.377496 -65.858244 
L 133.042021 -65.951714 
L 133.284024 -65.267769 
L 133.329906 -64.834083 
L 133.415459 -64.386642 
L 132.640503 -63.847297 
L 130.961375 -62.67848 
L 129.974298 -61.954276 
L 129.831032 -62.211434 
L 125.608406 -59.194509 
L 122.546076 -56.931654 
L 121.620683 -55.927106 
L 121.409656 -55.74992 
L 121.109262 -55.477679 
L 120.72986 -55.180468 
L 120.686705 -55.14433 
L 120.331992 -54.842244 
L 119.987569 -55.062908 
L 119.494214 -55.380093 
L 117.38151 -56.62731 
L 115.523154 -57.770793 
L 113.044459 -59.273393 
L 110.472476 -60.821465 
L 110.168768 -60.534523 
L 108.80831 -59.289895 
L 106.46665 -61.834707 
L 107.46621 -62.782155 
L 104.868973 -64.501603 
L 99.852129 -59.7021 
L 98.932148 -58.859187 
L 98.275353 -58.257259 
L 95.035187 -55.278533 
L 94.625447 -54.901812 
L 94.117603 -54.372231 
L 92.856458 -55.594003 
L 92.473061 -55.893508 
L 91.66246 -55.037432 
L 88.212716 -51.433917 
L 87.35583 -50.539273 
L 88.866543 -49.213313 
L 91.045206 -47.205212 
L 89.570267 -45.812055 
L 88.073489 -44.397866 
L 86.666584 -43.048597 
L 89.022398 -40.555407 
L 87.826481 -39.449496 
L 85.223876 -41.640793 
L 83.394054 -39.937961 
L 81.985942 -38.541078 
L 80.725645 -37.1913 
L 80.273916 -36.71752 
L 80.216057 -36.656851 
L 80.120022 -36.55305 
L 79.965169 -36.39804 
L 79.643477 -36.691675 
L 79.336513 -36.975164 
L 76.945928 -38.938351 
L 76.764904 -39.091633 
L 76.380275 -39.430059 
L 76.149048 -39.212964 
L 75.130932 -38.255859 
L 74.20219 -37.410258 
L 73.309251 -36.59728 
L 71.9768 -35.41076 
L 71.69029 -35.15543 
L 71.328378 -34.809988 
L 70.842665 -34.34636 
L 68.070303 -31.806497 
L 67.751933 -32.112068 
L 65.894723 -33.893699 
L 65.127092 -34.630509 
L 63.407976 -36.266541 
L 63.039735 -36.61552 
L 61.518321 -38.057297 
L 59.88076 -39.608648 
L 59.490914 -39.978286 
L 59.635825 -40.117155 
L 63.295537 -43.625724 
L 61.101505 -45.591043 
L 59.454317 -47.1035 
L 57.960848 -48.474559 
L 53.874886 -52.226221 
L 50.788029 -49.149949 
L 50.518612 -48.881702 
L 49.272177 -50.127256 
L 49.175969 -50.223526 
L 48.633885 -50.760535 
L 46.638014 -52.764026 
L 45.344345 -54.076488 
L 44.732911 -54.696488 
L 43.816348 -54.588904 
L 42.745773 -54.443716 
L 41.551781 -54.288628 
L 39.501761 -54.004309 
L 39.31807 -53.978943 
L 39.028521 -53.952796 
L 38.824243 -54.157951 
L 38.571035 -54.409316 
L 38.44935 -54.310072 
L 38.070298 -53.999717 
L 37.855561 -54.225887 
L 37.4154 -54.68978 
L 37.225606 -54.890043 
L 34.373527 -57.895051 
L 34.149299 -58.131378 
L 31.091862 -61.353159 
L 27.222913 -57.668843 
L 25.4473 -55.97783 
L 23.888928 -54.493693 
L 22.939097 -55.47931 
L 22.213251 -56.232794 
L 25.793267 -59.197868 
L 25.883397 -59.286922 
L 26.458325 -59.855953 
L 26.780892 -60.173252 
L 26.388117 -60.131637 
L 26.247158 -60.098606 
L 26.197565 -60.081754 
L 26.08155 -60.015806 
L 25.564693 -59.55823 
" style="stroke: #009e73"/>
    </defs>
    <g clip-path="url(#p6a58cbbc05)">
     <use xlink:href="#mcbbcc45763" x="0" y="432" style="fill: #009e73; fill-opacity: 0.498039; stroke: #009e73"/>
    </g>
   </g>
   <g id="LineCollection_1">
    <path d="M 233.735051 113.443639 
L 232.409905 114.033585 
L 230.199592 115.135968 
L 227.617611 116.504565 
L 224.889977 118.093764 
L 222.418262 119.672663 
L 219.835712 121.465446 
L 217.10914 123.476019 
L 210.941897 128.48909 
L 205.236379 133.401333 
L 198.14029 139.922438 
L 192.785818 144.803239 
L 186.358623 150.607722 
L 178.827828 157.427964 
L 173.653154 162.098062 
L 171.204974 164.253288 
L 162.847563 171.924777 
L 155.304745 178.846022 
L 152.515643 181.33677 
L 152.017171 181.790827 
L 145.499832 187.704359 
L 134.664859 197.656976 
L 130.841155 201.134639 
L 121.770652 209.383944 
L 115.718634 214.965455 
L 112.80377 217.705904 
L 108.656392 221.732147 
L 106.700251 223.733889 
L 106.200668 224.244932 
L 103.470561 227.038629 
L 100.460641 230.377407 
L 96.124934 235.123568 
L 93.141722 238.623363 
L 91.673675 240.262853 
L 90.103965 242.009298 
L 86.138263 246.583507 
L 82.436103 250.901603 
L 81.291304 252.211696 
L 80.112371 253.560705 
L 78.347968 255.579471 
L 74.922589 259.498781 
L 72.733225 262.001398 
L 72.057214 262.776687 
L 71.846093 263.018635 
L 69.287494 265.972474 
L 63.487097 272.662314 
L 60.314768 276.143869 
L 57.349265 279.171472 
L 56.431361 280.185857 
L 55.271163 281.391041 
L 53.608969 283.156167 
L 51.392736 285.410144 
L 46.056425 291.051459 
L 45.521892 291.60756 
L 42.887601 294.374344 
L 40.636796 296.749792 
L 39.338231 298.158891 
L 38.258038 299.413306 
L 37.745331 300.032082 
L 36.893696 301.111135 
L 36.098284 302.195047 
L 35.297339 303.188918 
L 34.267888 304.479358 
L 32.098781 307.286285 
L 31.104161 308.573529 
L 29.848572 310.244949 
L 29.178253 311.183342 
L 28.74709 311.781713 
L 28.342491 312.371306 
L 27.685517 313.415143 
L 26.964091 314.591458 
L 25.96764 316.42769 
L 25.525947 317.273066 
L 25.297064 317.743057 
L 24.878924 318.689669 
L 24.072681 320.457439 
L 23.371604 321.974277 
L 22.712708 323.426616 
L 21.885785 325.202799 
L 19.332915 330.729326 
L 16.951011 335.928818 
L 15.860968 338.323527 
L 14.782063 340.737842 
L 13.961844 342.475093 
L 13.130208 344.194478 
L 12.247316 345.944373 
L 11.463823 347.277274 
L 10.837241 348.316825 
L 9.210588 350.901013 
L 8.558355 351.945826 
L 7.535593 353.280254 
L 6.311895 354.768953 
L 4.34625 356.989271 
L 3.504179 357.931458 
" clip-path="url(#p6a58cbbc05)" style="fill: none; stroke: #000000; stroke-width: 1.5"/>
    <path d="M 3.504626 358.681198 
L 4.410251 357.680844 
L 6.572675 355.110751 
L 8.653074 352.390727 
L 9.670314 350.97326 
L 10.302441 350.051081 
L 12.090948 347.130088 
L 14.393007 342.818175 
L 14.827195 341.936045 
L 16.229734 338.695724 
L 19.944088 330.595787 
L 22.465376 325.062967 
L 23.224316 323.469015 
L 23.87893 322.006866 
L 25.314439 318.85509 
L 25.916928 317.549931 
L 26.379934 316.645679 
L 27.689682 314.278429 
L 28.399034 313.149067 
L 29.073377 312.180544 
L 30.387013 310.367191 
L 30.948755 309.564812 
L 31.748728 308.469007 
L 32.445617 307.557913 
L 34.6339 304.697363 
L 35.665006 303.400613 
L 36.59537 302.245478 
L 37.245467 301.326343 
L 38.159239 300.21781 
L 38.70371 299.565375 
L 39.655908 298.468367 
L 41.05 296.951631 
L 43.180135 294.691893 
L 45.105874 292.631998 
L 45.827184 291.858876 
L 46.132041 291.564679 
L 48.23529 289.361661 
L 49.758977 287.802009 
L 51.831803 285.634011 
L 53.754131 283.6928 
L 55.53366 281.814405 
L 56.633666 280.681796 
L 57.505123 279.723508 
L 59.255218 277.910269 
L 60.183328 276.9337 
L 60.96708 276.091442 
L 61.543199 275.451873 
L 65.131353 271.468203 
L 68.766152 267.302231 
L 71.227603 264.434329 
L 72.225198 263.326247 
L 72.411442 263.115154 
L 74.400859 260.858335 
L 82.849894 251.272925 
L 86.438667 246.943725 
L 90.444366 242.286432 
L 90.768195 241.909805 
L 93.441524 238.861994 
L 94.789887 237.33088 
L 97.228114 234.563204 
L 103.572574 227.711214 
L 106.551593 224.608565 
L 107.039558 224.099987 
L 108.887646 222.175094 
L 113.123055 217.984072 
L 116.015371 215.227528 
L 121.816277 209.854778 
L 130.115022 202.414031 
L 134.926609 198.187794 
L 144.572517 189.317275 
L 152.378329 182.174682 
L 152.875147 181.72448 
L 157.368426 177.654002 
L 159.308467 175.896644 
L 163.022692 172.531709 
L 169.037757 167.109151 
L 174.151718 162.411947 
L 179.17816 157.858383 
L 186.637726 151.116719 
L 193.099697 145.261719 
L 198.444505 140.411757 
L 205.583531 133.905985 
L 211.366607 128.87798 
L 217.446468 123.911294 
L 220.119737 121.914473 
L 222.732622 120.117779 
L 225.161209 118.542455 
L 227.833218 116.992593 
L 230.400685 115.589332 
L 232.774697 114.441454 
L 233.736067 114.020926 
" clip-path="url(#p6a58cbbc05)" style="fill: none; stroke: #000000; stroke-width: 1.5"/>
   </g>
   <g id="legend_1">
    <g id="patch_3">
     <path d="M 40.447344 423.49976 
L 197.152656 423.49976 
Q 199.352656 423.49976 199.352656 421.29976 
L 199.352656 373.081948 
Q 199.352656 370.881948 197.152656 370.881948 
L 40.447344 370.881948 
Q 38.247344 370.881948 38.247344 373.081948 
L 38.247344 421.29976 
Q 38.247344 423.49976 40.447344 423.49976 
z
" style="fill: #ffffff; stroke: #cccccc; stroke-linejoin: miter"/>
    </g>
    <g id="patch_4">
     <path d="M 42.647344 384.080229 
L 64.647344 384.080229 
L 64.647344 376.380229 
L 42.647344 376.380229 
z
" style="fill: #009e73"/>
    </g>
    <g id="text_2">
     <!-- Legnagyobb közösség -->
     <g transform="translate(73.447344 384.080229) scale(0.11 -0.11)">
      <defs>
       <path id="DejaVuSans-4c" d="M 628 4666 
L 1259 4666 
L 1259 531 
L 3531 531 
L 3531 0 
L 628 0 
L 628 4666 
z
" transform="scale(0.015625)"/>
       <path id="DejaVuSans-65" d="M 3597 1894 
L 3597 1613 
L 953 1613 
Q 991 1019 1311 708 
Q 1631 397 2203 397 
Q 2534 397 2845 478 
Q 3156 559 3463 722 
L 3463 178 
Q 3153 47 2828 -22 
Q 2503 -91 2169 -91 
Q 1331 -91 842 396 
Q 353 884 353 1716 
Q 353 2575 817 3079 
Q 1281 3584 2069 3584 
Q 2775 3584 3186 3129 
Q 3597 2675 3597 1894 
z
M 3022 2063 
Q 3016 2534 2758 2815 
Q 2500 3097 2075 3097 
Q 1594 3097 1305 2825 
Q 1016 2553 972 2059 
L 3022 2063 
z
" transform="scale(0.015625)"/>
       <path id="DejaVuSans-67" d="M 2906 1791 
Q 2906 2416 2648 2759 
Q 2391 3103 1925 3103 
Q 1463 3103 1205 2759 
Q 947 2416 947 1791 
Q 947 1169 1205 825 
Q 1463 481 1925 481 
Q 2391 481 2648 825 
Q 2906 1169 2906 1791 
z
M 3481 434 
Q 3481 -459 3084 -895 
Q 2688 -1331 1869 -1331 
Q 1566 -1331 1297 -1286 
Q 1028 -1241 775 -1147 
L 775 -588 
Q 1028 -725 1275 -790 
Q 1522 -856 1778 -856 
Q 2344 -856 2625 -561 
Q 2906 -266 2906 331 
L 2906 616 
Q 2728 306 2450 153 
Q 2172 0 1784 0 
Q 1141 0 747 490 
Q 353 981 353 1791 
Q 353 2603 747 3093 
Q 1141 3584 1784 3584 
Q 2172 3584 2450 3431 
Q 2728 3278 2906 2969 
L 2906 3500 
L 3481 3500 
L 3481 434 
z
" transform="scale(0.015625)"/>
       <path id="DejaVuSans-6e" d="M 3513 2113 
L 3513 0 
L 2938 0 
L 2938 2094 
Q 2938 2591 2744 2837 
Q 2550 3084 2163 3084 
Q 1697 3084 1428 2787 
Q 1159 2491 1159 1978 
L 1159 0 
L 581 0 
L 581 3500 
L 1159 3500 
L 1159 2956 
Q 1366 3272 1645 3428 
Q 1925 3584 2291 3584 
Q 2894 3584 3203 3211 
Q 3513 2838 3513 2113 
z
" transform="scale(0.015625)"/>
       <path id="DejaVuSans-61" d="M 2194 1759 
Q 1497 1759 1228 1600 
Q 959 1441 959 1056 
Q 959 750 1161 570 
Q 1363 391 1709 391 
Q 2188 391 2477 730 
Q 2766 1069 2766 1631 
L 2766 1759 
L 2194 1759 
z
M 3341 1997 
L 3341 0 
L 2766 0 
L 2766 531 
Q 2569 213 2275 61 
Q 1981 -91 1556 -91 
Q 1019 -91 701 211 
Q 384 513 384 1019 
Q 384 1609 779 1909 
Q 1175 2209 1959 2209 
L 2766 2209 
L 2766 2266 
Q 2766 2663 2505 2880 
Q 2244 3097 1772 3097 
Q 1472 3097 1187 3025 
Q 903 2953 641 2809 
L 641 3341 
Q 956 3463 1253 3523 
Q 1550 3584 1831 3584 
Q 2591 3584 2966 3190 
Q 3341 2797 3341 1997 
z
" transform="scale(0.015625)"/>
       <path id="DejaVuSans-79" d="M 2059 -325 
Q 1816 -950 1584 -1140 
Q 1353 -1331 966 -1331 
L 506 -1331 
L 506 -850 
L 844 -850 
Q 1081 -850 1212 -737 
Q 1344 -625 1503 -206 
L 1606 56 
L 191 3500 
L 800 3500 
L 1894 763 
L 2988 3500 
L 3597 3500 
L 2059 -325 
z
" transform="scale(0.015625)"/>
       <path id="DejaVuSans-6f" d="M 1959 3097 
Q 1497 3097 1228 2736 
Q 959 2375 959 1747 
Q 959 1119 1226 758 
Q 1494 397 1959 397 
Q 2419 397 2687 759 
Q 2956 1122 2956 1747 
Q 2956 2369 2687 2733 
Q 2419 3097 1959 3097 
z
M 1959 3584 
Q 2709 3584 3137 3096 
Q 3566 2609 3566 1747 
Q 3566 888 3137 398 
Q 2709 -91 1959 -91 
Q 1206 -91 779 398 
Q 353 888 353 1747 
Q 353 2609 779 3096 
Q 1206 3584 1959 3584 
z
" transform="scale(0.015625)"/>
       <path id="DejaVuSans-62" d="M 3116 1747 
Q 3116 2381 2855 2742 
Q 2594 3103 2138 3103 
Q 1681 3103 1420 2742 
Q 1159 2381 1159 1747 
Q 1159 1113 1420 752 
Q 1681 391 2138 391 
Q 2594 391 2855 752 
Q 3116 1113 3116 1747 
z
M 1159 2969 
Q 1341 3281 1617 3432 
Q 1894 3584 2278 3584 
Q 2916 3584 3314 3078 
Q 3713 2572 3713 1747 
Q 3713 922 3314 415 
Q 2916 -91 2278 -91 
Q 1894 -91 1617 61 
Q 1341 213 1159 525 
L 1159 0 
L 581 0 
L 581 4863 
L 1159 4863 
L 1159 2969 
z
" transform="scale(0.015625)"/>
       <path id="DejaVuSans-20" transform="scale(0.015625)"/>
       <path id="DejaVuSans-6b" d="M 581 4863 
L 1159 4863 
L 1159 1991 
L 2875 3500 
L 3609 3500 
L 1753 1863 
L 3688 0 
L 2938 0 
L 1159 1709 
L 1159 0 
L 581 0 
L 581 4863 
z
" transform="scale(0.015625)"/>
       <path id="DejaVuSans-f6" d="M 1959 3097 
Q 1497 3097 1228 2736 
Q 959 2375 959 1747 
Q 959 1119 1226 758 
Q 1494 397 1959 397 
Q 2419 397 2687 759 
Q 2956 1122 2956 1747 
Q 2956 2369 2687 2733 
Q 2419 3097 1959 3097 
z
M 1959 3584 
Q 2709 3584 3137 3096 
Q 3566 2609 3566 1747 
Q 3566 888 3137 398 
Q 2709 -91 1959 -91 
Q 1206 -91 779 398 
Q 353 888 353 1747 
Q 353 2609 779 3096 
Q 1206 3584 1959 3584 
z
M 2254 4850 
L 2888 4850 
L 2888 4219 
L 2254 4219 
L 2254 4850 
z
M 1032 4850 
L 1666 4850 
L 1666 4219 
L 1032 4219 
L 1032 4850 
z
" transform="scale(0.015625)"/>
       <path id="DejaVuSans-7a" d="M 353 3500 
L 3084 3500 
L 3084 2975 
L 922 459 
L 3084 459 
L 3084 0 
L 275 0 
L 275 525 
L 2438 3041 
L 353 3041 
L 353 3500 
z
" transform="scale(0.015625)"/>
       <path id="DejaVuSans-73" d="M 2834 3397 
L 2834 2853 
Q 2591 2978 2328 3040 
Q 2066 3103 1784 3103 
Q 1356 3103 1142 2972 
Q 928 2841 928 2578 
Q 928 2378 1081 2264 
Q 1234 2150 1697 2047 
L 1894 2003 
Q 2506 1872 2764 1633 
Q 3022 1394 3022 966 
Q 3022 478 2636 193 
Q 2250 -91 1575 -91 
Q 1294 -91 989 -36 
Q 684 19 347 128 
L 347 722 
Q 666 556 975 473 
Q 1284 391 1588 391 
Q 1994 391 2212 530 
Q 2431 669 2431 922 
Q 2431 1156 2273 1281 
Q 2116 1406 1581 1522 
L 1381 1569 
Q 847 1681 609 1914 
Q 372 2147 372 2553 
Q 372 3047 722 3315 
Q 1072 3584 1716 3584 
Q 2034 3584 2315 3537 
Q 2597 3491 2834 3397 
z
" transform="scale(0.015625)"/>
       <path id="DejaVuSans-e9" d="M 3597 1894 
L 3597 1613 
L 953 1613 
Q 991 1019 1311 708 
Q 1631 397 2203 397 
Q 2534 397 2845 478 
Q 3156 559 3463 722 
L 3463 178 
Q 3153 47 2828 -22 
Q 2503 -91 2169 -91 
Q 1331 -91 842 396 
Q 353 884 353 1716 
Q 353 2575 817 3079 
Q 1281 3584 2069 3584 
Q 2775 3584 3186 3129 
Q 3597 2675 3597 1894 
z
M 3022 2063 
Q 3016 2534 2758 2815 
Q 2500 3097 2075 3097 
Q 1594 3097 1305 2825 
Q 1016 2553 972 2059 
L 3022 2063 
z
M 2466 5119 
L 3088 5119 
L 2070 3944 
L 1591 3944 
L 2466 5119 
z
" transform="scale(0.015625)"/>
      </defs>
      <use xlink:href="#DejaVuSans-4c"/>
      <use xlink:href="#DejaVuSans-65" x="53.962891"/>
      <use xlink:href="#DejaVuSans-67" x="115.486328"/>
      <use xlink:href="#DejaVuSans-6e" x="178.962891"/>
      <use xlink:href="#DejaVuSans-61" x="242.341797"/>
      <use xlink:href="#DejaVuSans-67" x="303.621094"/>
      <use xlink:href="#DejaVuSans-79" x="367.097656"/>
      <use xlink:href="#DejaVuSans-6f" x="426.277344"/>
      <use xlink:href="#DejaVuSans-62" x="487.458984"/>
      <use xlink:href="#DejaVuSans-62" x="550.935547"/>
      <use xlink:href="#DejaVuSans-20" x="614.412109"/>
      <use xlink:href="#DejaVuSans-6b" x="646.199219"/>
      <use xlink:href="#DejaVuSans-f6" x="700.484375"/>
      <use xlink:href="#DejaVuSans-7a" x="761.666016"/>
      <use xlink:href="#DejaVuSans-f6" x="814.15625"/>
      <use xlink:href="#DejaVuSans-73" x="875.337891"/>
      <use xlink:href="#DejaVuSans-73" x="927.4375"/>
      <use xlink:href="#DejaVuSans-e9" x="979.537109"/>
      <use xlink:href="#DejaVuSans-67" x="1041.060547"/>
     </g>
    </g>
    <g id="line2d_1">
     <path d="M 42.647344 396.376166 
L 53.647344 396.376166 
L 64.647344 396.376166 
" style="fill: none; stroke: #d55e00; stroke-width: 2; stroke-linecap: square"/>
    </g>
    <g id="text_3">
     <!-- 15. kerület határa -->
     <g transform="translate(73.447344 400.226166) scale(0.11 -0.11)">
      <defs>
       <path id="DejaVuSans-31" d="M 794 531 
L 1825 531 
L 1825 4091 
L 703 3866 
L 703 4441 
L 1819 4666 
L 2450 4666 
L 2450 531 
L 3481 531 
L 3481 0 
L 794 0 
L 794 531 
z
" transform="scale(0.015625)"/>
       <path id="DejaVuSans-72" d="M 2631 2963 
Q 2534 3019 2420 3045 
Q 2306 3072 2169 3072 
Q 1681 3072 1420 2755 
Q 1159 2438 1159 1844 
L 1159 0 
L 581 0 
L 581 3500 
L 1159 3500 
L 1159 2956 
Q 1341 3275 1631 3429 
Q 1922 3584 2338 3584 
Q 2397 3584 2469 3576 
Q 2541 3569 2628 3553 
L 2631 2963 
z
" transform="scale(0.015625)"/>
       <path id="DejaVuSans-fc" d="M 544 1381 
L 544 3500 
L 1119 3500 
L 1119 1403 
Q 1119 906 1312 657 
Q 1506 409 1894 409 
Q 2359 409 2629 706 
Q 2900 1003 2900 1516 
L 2900 3500 
L 3475 3500 
L 3475 0 
L 2900 0 
L 2900 538 
Q 2691 219 2414 64 
Q 2138 -91 1772 -91 
Q 1169 -91 856 284 
Q 544 659 544 1381 
z
M 1991 3584 
L 1991 3584 
z
M 2278 4850 
L 2912 4850 
L 2912 4219 
L 2278 4219 
L 2278 4850 
z
M 1056 4850 
L 1690 4850 
L 1690 4219 
L 1056 4219 
L 1056 4850 
z
" transform="scale(0.015625)"/>
       <path id="DejaVuSans-6c" d="M 603 4863 
L 1178 4863 
L 1178 0 
L 603 0 
L 603 4863 
z
" transform="scale(0.015625)"/>
       <path id="DejaVuSans-74" d="M 1172 4494 
L 1172 3500 
L 2356 3500 
L 2356 3053 
L 1172 3053 
L 1172 1153 
Q 1172 725 1289 603 
Q 1406 481 1766 481 
L 2356 481 
L 2356 0 
L 1766 0 
Q 1100 0 847 248 
Q 594 497 594 1153 
L 594 3053 
L 172 3053 
L 172 3500 
L 594 3500 
L 594 4494 
L 1172 4494 
z
" transform="scale(0.015625)"/>
       <path id="DejaVuSans-68" d="M 3513 2113 
L 3513 0 
L 2938 0 
L 2938 2094 
Q 2938 2591 2744 2837 
Q 2550 3084 2163 3084 
Q 1697 3084 1428 2787 
Q 1159 2491 1159 1978 
L 1159 0 
L 581 0 
L 581 4863 
L 1159 4863 
L 1159 2956 
Q 1366 3272 1645 3428 
Q 1925 3584 2291 3584 
Q 2894 3584 3203 3211 
Q 3513 2838 3513 2113 
z
" transform="scale(0.015625)"/>
       <path id="DejaVuSans-e1" d="M 2194 1759 
Q 1497 1759 1228 1600 
Q 959 1441 959 1056 
Q 959 750 1161 570 
Q 1363 391 1709 391 
Q 2188 391 2477 730 
Q 2766 1069 2766 1631 
L 2766 1759 
L 2194 1759 
z
M 3341 1997 
L 3341 0 
L 2766 0 
L 2766 531 
Q 2569 213 2275 61 
Q 1981 -91 1556 -91 
Q 1019 -91 701 211 
Q 384 513 384 1019 
Q 384 1609 779 1909 
Q 1175 2209 1959 2209 
L 2766 2209 
L 2766 2266 
Q 2766 2663 2505 2880 
Q 2244 3097 1772 3097 
Q 1472 3097 1187 3025 
Q 903 2953 641 2809 
L 641 3341 
Q 956 3463 1253 3523 
Q 1550 3584 1831 3584 
Q 2591 3584 2966 3190 
Q 3341 2797 3341 1997 
z
M 2290 5119 
L 2912 5119 
L 1894 3944 
L 1415 3944 
L 2290 5119 
z
" transform="scale(0.015625)"/>
      </defs>
      <use xlink:href="#DejaVuSans-31"/>
      <use xlink:href="#DejaVuSans-35" x="63.623047"/>
      <use xlink:href="#DejaVuSans-2e" x="127.246094"/>
      <use xlink:href="#DejaVuSans-20" x="159.033203"/>
      <use xlink:href="#DejaVuSans-6b" x="190.820312"/>
      <use xlink:href="#DejaVuSans-65" x="245.105469"/>
      <use xlink:href="#DejaVuSans-72" x="306.628906"/>
      <use xlink:href="#DejaVuSans-fc" x="347.742188"/>
      <use xlink:href="#DejaVuSans-6c" x="411.121094"/>
      <use xlink:href="#DejaVuSans-65" x="438.904297"/>
      <use xlink:href="#DejaVuSans-74" x="500.427734"/>
      <use xlink:href="#DejaVuSans-20" x="539.636719"/>
      <use xlink:href="#DejaVuSans-68" x="571.423828"/>
      <use xlink:href="#DejaVuSans-61" x="634.802734"/>
      <use xlink:href="#DejaVuSans-74" x="696.082031"/>
      <use xlink:href="#DejaVuSans-e1" x="735.291016"/>
      <use xlink:href="#DejaVuSans-72" x="796.570312"/>
      <use xlink:href="#DejaVuSans-61" x="837.683594"/>
     </g>
    </g>
    <g id="line2d_2">
     <path d="M 42.647344 412.962104 
L 53.647344 412.962104 
L 64.647344 412.962104 
" style="fill: none; stroke: #2d2d2d; stroke-width: 2; stroke-linecap: square"/>
    </g>
    <g id="text_4">
     <!-- M3-as autópálya -->
     <g transform="translate(73.447344 416.812104) scale(0.11 -0.11)">
      <defs>
       <path id="DejaVuSans-4d" d="M 628 4666 
L 1569 4666 
L 2759 1491 
L 3956 4666 
L 4897 4666 
L 4897 0 
L 4281 0 
L 4281 4097 
L 3078 897 
L 2444 897 
L 1241 4097 
L 1241 0 
L 628 0 
L 628 4666 
z
" transform="scale(0.015625)"/>
       <path id="DejaVuSans-33" d="M 2597 2516 
Q 3050 2419 3304 2112 
Q 3559 1806 3559 1356 
Q 3559 666 3084 287 
Q 2609 -91 1734 -91 
Q 1441 -91 1130 -33 
Q 819 25 488 141 
L 488 750 
Q 750 597 1062 519 
Q 1375 441 1716 441 
Q 2309 441 2620 675 
Q 2931 909 2931 1356 
Q 2931 1769 2642 2001 
Q 2353 2234 1838 2234 
L 1294 2234 
L 1294 2753 
L 1863 2753 
Q 2328 2753 2575 2939 
Q 2822 3125 2822 3475 
Q 2822 3834 2567 4026 
Q 2313 4219 1838 4219 
Q 1578 4219 1281 4162 
Q 984 4106 628 3988 
L 628 4550 
Q 988 4650 1302 4700 
Q 1616 4750 1894 4750 
Q 2613 4750 3031 4423 
Q 3450 4097 3450 3541 
Q 3450 3153 3228 2886 
Q 3006 2619 2597 2516 
z
" transform="scale(0.015625)"/>
       <path id="DejaVuSans-2d" d="M 313 2009 
L 1997 2009 
L 1997 1497 
L 313 1497 
L 313 2009 
z
" transform="scale(0.015625)"/>
       <path id="DejaVuSans-75" d="M 544 1381 
L 544 3500 
L 1119 3500 
L 1119 1403 
Q 1119 906 1312 657 
Q 1506 409 1894 409 
Q 2359 409 2629 706 
Q 2900 1003 2900 1516 
L 2900 3500 
L 3475 3500 
L 3475 0 
L 2900 0 
L 2900 538 
Q 2691 219 2414 64 
Q 2138 -91 1772 -91 
Q 1169 -91 856 284 
Q 544 659 544 1381 
z
M 1991 3584 
L 1991 3584 
z
" transform="scale(0.015625)"/>
       <path id="DejaVuSans-f3" d="M 1959 3097 
Q 1497 3097 1228 2736 
Q 959 2375 959 1747 
Q 959 1119 1226 758 
Q 1494 397 1959 397 
Q 2419 397 2687 759 
Q 2956 1122 2956 1747 
Q 2956 2369 2687 2733 
Q 2419 3097 1959 3097 
z
M 1959 3584 
Q 2709 3584 3137 3096 
Q 3566 2609 3566 1747 
Q 3566 888 3137 398 
Q 2709 -91 1959 -91 
Q 1206 -91 779 398 
Q 353 888 353 1747 
Q 353 2609 779 3096 
Q 1206 3584 1959 3584 
z
M 2394 5119 
L 3016 5119 
L 1998 3944 
L 1519 3944 
L 2394 5119 
z
" transform="scale(0.015625)"/>
       <path id="DejaVuSans-70" d="M 1159 525 
L 1159 -1331 
L 581 -1331 
L 581 3500 
L 1159 3500 
L 1159 2969 
Q 1341 3281 1617 3432 
Q 1894 3584 2278 3584 
Q 2916 3584 3314 3078 
Q 3713 2572 3713 1747 
Q 3713 922 3314 415 
Q 2916 -91 2278 -91 
Q 1894 -91 1617 61 
Q 1341 213 1159 525 
z
M 3116 1747 
Q 3116 2381 2855 2742 
Q 2594 3103 2138 3103 
Q 1681 3103 1420 2742 
Q 1159 2381 1159 1747 
Q 1159 1113 1420 752 
Q 1681 391 2138 391 
Q 2594 391 2855 752 
Q 3116 1113 3116 1747 
z
" transform="scale(0.015625)"/>
      </defs>
      <use xlink:href="#DejaVuSans-4d"/>
      <use xlink:href="#DejaVuSans-33" x="86.279297"/>
      <use xlink:href="#DejaVuSans-2d" x="149.902344"/>
      <use xlink:href="#DejaVuSans-61" x="185.986328"/>
      <use xlink:href="#DejaVuSans-73" x="247.265625"/>
      <use xlink:href="#DejaVuSans-20" x="299.365234"/>
      <use xlink:href="#DejaVuSans-61" x="331.152344"/>
      <use xlink:href="#DejaVuSans-75" x="392.431641"/>
      <use xlink:href="#DejaVuSans-74" x="455.810547"/>
      <use xlink:href="#DejaVuSans-f3" x="495.019531"/>
      <use xlink:href="#DejaVuSans-70" x="556.201172"/>
      <use xlink:href="#DejaVuSans-e1" x="619.677734"/>
      <use xlink:href="#DejaVuSans-6c" x="680.957031"/>
      <use xlink:href="#DejaVuSans-79" x="708.740234"/>
      <use xlink:href="#DejaVuSans-61" x="767.919922"/>
     </g>
    </g>
   </g>
  </g>
  <g id="axes_2">
   <g id="patch_5">
    <path d="M 132.036084 94.40024 
L 229.236084 94.40024 
L 229.236084 8.00024 
L 132.036084 8.00024 
z
" style="fill: #ffffff"/>
   </g>
   <g id="PolyCollection_1"/>
   <g id="PolyCollection_2"/>
   <g id="PolyCollection_3"/>
   <g id="PolyCollection_4"/>
   <g id="PolyCollection_5"/>
   <g id="PolyCollection_6"/>
   <g id="PolyCollection_7"/>
   <g id="PolyCollection_8"/>
   <g id="PolyCollection_9"/>
   <g id="PolyCollection_10"/>
   <g id="matplotlib.axis_1">
    <g id="text_5">
     <!-- felbontás -->
     <g transform="translate(152.727646 107.518365) scale(0.12 -0.12)">
      <defs>
       <path id="DejaVuSans-66" d="M 2375 4863 
L 2375 4384 
L 1825 4384 
Q 1516 4384 1395 4259 
Q 1275 4134 1275 3809 
L 1275 3500 
L 2222 3500 
L 2222 3053 
L 1275 3053 
L 1275 0 
L 697 0 
L 697 3053 
L 147 3053 
L 147 3500 
L 697 3500 
L 697 3744 
Q 697 4328 969 4595 
Q 1241 4863 1831 4863 
L 2375 4863 
z
" transform="scale(0.015625)"/>
      </defs>
      <use xlink:href="#DejaVuSans-66"/>
      <use xlink:href="#DejaVuSans-65" x="35.205078"/>
      <use xlink:href="#DejaVuSans-6c" x="96.728516"/>
      <use xlink:href="#DejaVuSans-62" x="124.511719"/>
      <use xlink:href="#DejaVuSans-6f" x="187.988281"/>
      <use xlink:href="#DejaVuSans-6e" x="249.169922"/>
      <use xlink:href="#DejaVuSans-74" x="312.548828"/>
      <use xlink:href="#DejaVuSans-e1" x="351.757812"/>
      <use xlink:href="#DejaVuSans-73" x="413.037109"/>
     </g>
    </g>
   </g>
   <g id="matplotlib.axis_2">
    <g id="text_6">
     <!-- SAD ($km^2$) -->
     <g transform="translate(125.540459 82.76024) rotate(-90) scale(0.12 -0.12)">
      <defs>
       <path id="DejaVuSans-53" d="M 3425 4513 
L 3425 3897 
Q 3066 4069 2747 4153 
Q 2428 4238 2131 4238 
Q 1616 4238 1336 4038 
Q 1056 3838 1056 3469 
Q 1056 3159 1242 3001 
Q 1428 2844 1947 2747 
L 2328 2669 
Q 3034 2534 3370 2195 
Q 3706 1856 3706 1288 
Q 3706 609 3251 259 
Q 2797 -91 1919 -91 
Q 1588 -91 1214 -16 
Q 841 59 441 206 
L 441 856 
Q 825 641 1194 531 
Q 1563 422 1919 422 
Q 2459 422 2753 634 
Q 3047 847 3047 1241 
Q 3047 1584 2836 1778 
Q 2625 1972 2144 2069 
L 1759 2144 
Q 1053 2284 737 2584 
Q 422 2884 422 3419 
Q 422 4038 858 4394 
Q 1294 4750 2059 4750 
Q 2388 4750 2728 4690 
Q 3069 4631 3425 4513 
z
" transform="scale(0.015625)"/>
       <path id="DejaVuSans-41" d="M 2188 4044 
L 1331 1722 
L 3047 1722 
L 2188 4044 
z
M 1831 4666 
L 2547 4666 
L 4325 0 
L 3669 0 
L 3244 1197 
L 1141 1197 
L 716 0 
L 50 0 
L 1831 4666 
z
" transform="scale(0.015625)"/>
       <path id="DejaVuSans-44" d="M 1259 4147 
L 1259 519 
L 2022 519 
Q 2988 519 3436 956 
Q 3884 1394 3884 2338 
Q 3884 3275 3436 3711 
Q 2988 4147 2022 4147 
L 1259 4147 
z
M 628 4666 
L 1925 4666 
Q 3281 4666 3915 4102 
Q 4550 3538 4550 2338 
Q 4550 1131 3912 565 
Q 3275 0 1925 0 
L 628 0 
L 628 4666 
z
" transform="scale(0.015625)"/>
       <path id="DejaVuSans-28" d="M 1984 4856 
Q 1566 4138 1362 3434 
Q 1159 2731 1159 2009 
Q 1159 1288 1364 580 
Q 1569 -128 1984 -844 
L 1484 -844 
Q 1016 -109 783 600 
Q 550 1309 550 2009 
Q 550 2706 781 3412 
Q 1013 4119 1484 4856 
L 1984 4856 
z
" transform="scale(0.015625)"/>
       <path id="DejaVuSans-Oblique-6b" d="M 1172 4863 
L 1747 4863 
L 1197 2028 
L 3169 3500 
L 3916 3500 
L 1716 1825 
L 3322 0 
L 2625 0 
L 1131 1709 
L 800 0 
L 225 0 
L 1172 4863 
z
" transform="scale(0.015625)"/>
       <path id="DejaVuSans-Oblique-6d" d="M 5747 2113 
L 5338 0 
L 4763 0 
L 5166 2094 
Q 5191 2228 5203 2325 
Q 5216 2422 5216 2491 
Q 5216 2772 5059 2928 
Q 4903 3084 4622 3084 
Q 4203 3084 3875 2770 
Q 3547 2456 3450 1953 
L 3066 0 
L 2491 0 
L 2900 2094 
Q 2925 2209 2937 2307 
Q 2950 2406 2950 2484 
Q 2950 2769 2794 2926 
Q 2638 3084 2363 3084 
Q 1938 3084 1609 2770 
Q 1281 2456 1184 1953 
L 800 0 
L 225 0 
L 909 3500 
L 1484 3500 
L 1375 2956 
Q 1609 3263 1923 3423 
Q 2238 3584 2597 3584 
Q 2978 3584 3223 3384 
Q 3469 3184 3519 2828 
Q 3781 3197 4126 3390 
Q 4472 3584 4856 3584 
Q 5306 3584 5551 3325 
Q 5797 3066 5797 2591 
Q 5797 2488 5784 2364 
Q 5772 2241 5747 2113 
z
" transform="scale(0.015625)"/>
       <path id="DejaVuSans-29" d="M 513 4856 
L 1013 4856 
Q 1481 4119 1714 3412 
Q 1947 2706 1947 2009 
Q 1947 1309 1714 600 
Q 1481 -109 1013 -844 
L 513 -844 
Q 928 -128 1133 580 
Q 1338 1288 1338 2009 
Q 1338 2731 1133 3434 
Q 928 4138 513 4856 
z
" transform="scale(0.015625)"/>
      </defs>
      <use xlink:href="#DejaVuSans-53" transform="translate(0 0.765625)"/>
      <use xlink:href="#DejaVuSans-41" transform="translate(63.476562 0.765625)"/>
      <use xlink:href="#DejaVuSans-44" transform="translate(131.884766 0.765625)"/>
      <use xlink:href="#DejaVuSans-20" transform="translate(208.886719 0.765625)"/>
      <use xlink:href="#DejaVuSans-28" transform="translate(240.673828 0.765625)"/>
      <use xlink:href="#DejaVuSans-Oblique-6b" transform="translate(279.6875 0.765625)"/>
      <use xlink:href="#DejaVuSans-Oblique-6d" transform="translate(337.597656 0.765625)"/>
      <use xlink:href="#DejaVuSans-32" transform="translate(439.659661 39.046875) scale(0.7)"/>
      <use xlink:href="#DejaVuSans-29" transform="translate(486.930169 0.765625)"/>
     </g>
    </g>
   </g>
   <g id="line2d_3">
    <path d="M 134.663111 12.373899 
L 139.917165 21.118488 
L 145.171219 75.350707 
L 150.425273 90.980922 
L 155.679327 90.563777 
L 160.933381 80.877579 
L 166.187435 89.707811 
L 171.441489 88.791364 
L 176.695543 89.050261 
L 181.949597 88.348451 
L 187.203651 74.237512 
L 192.457705 72.789781 
L 197.71176 72.659423 
L 202.965814 72.599701 
L 208.219868 71.994598 
L 213.473922 71.178497 
L 218.727976 70.897924 
L 223.98203 70.271297 
L 229.236084 70.219912 
" clip-path="url(#p69fd778f0a)" style="fill: none; stroke: #a5cd90; stroke-width: 1.5; stroke-linecap: square"/>
   </g>
   <g id="line2d_4">
    <path d="M 134.663111 12.772552 
L 139.917165 20.344678 
L 145.171219 71.859086 
L 150.425273 90.049015 
L 155.679327 75.846371 
L 160.933381 90.042497 
L 166.187435 90.865571 
L 171.441489 89.156366 
L 176.695543 89.034952 
L 181.949597 88.339811 
L 187.203651 72.826615 
L 192.457705 79.589006 
L 197.71176 72.684737 
L 202.965814 72.554985 
L 208.219868 71.610042 
L 213.473922 70.98872 
L 218.727976 70.328139 
L 223.98203 70.226884 
L 229.236084 70.131996 
" clip-path="url(#p69fd778f0a)" style="fill: none; stroke: #86be91; stroke-width: 1.5; stroke-linecap: square"/>
   </g>
   <g id="line2d_5">
    <path d="M 134.663111 12.847128 
L 139.917165 22.185907 
L 145.171219 71.224728 
L 150.425273 74.617217 
L 155.679327 91.405343 
L 160.933381 90.556804 
L 166.187435 90.363693 
L 171.441489 88.822286 
L 176.695543 88.861848 
L 181.949597 89.103465 
L 187.203651 85.214859 
L 192.457705 74.232055 
L 197.71176 72.31352 
L 202.965814 72.286842 
L 208.219868 71.044198 
L 213.473922 71.308855 
L 218.727976 70.319347 
L 223.98203 70.641756 
L 229.236084 70.180501 
" clip-path="url(#p69fd778f0a)" style="fill: none; stroke: #68af90; stroke-width: 1.5; stroke-linecap: square"/>
   </g>
   <g id="line2d_6">
    <path d="M 134.663111 9.488291 
L 139.917165 53.536678 
L 145.171219 71.753587 
L 150.425273 87.414724 
L 155.679327 78.847634 
L 160.933381 90.967432 
L 166.187435 90.561503 
L 171.441489 89.973074 
L 176.695543 88.686623 
L 181.949597 88.556568 
L 187.203651 86.441587 
L 192.457705 86.071886 
L 197.71176 79.161705 
L 202.965814 71.721301 
L 208.219868 71.443154 
L 213.473922 70.461983 
L 218.727976 70.922177 
L 223.98203 70.180501 
L 229.236084 69.761234 
" clip-path="url(#p69fd778f0a)" style="fill: none; stroke: #509e90; stroke-width: 1.5; stroke-linecap: square"/>
   </g>
   <g id="line2d_7">
    <path d="M 134.663111 13.723709 
L 139.917165 22.260181 
L 145.171219 76.933798 
L 150.425273 90.843137 
L 155.679327 80.954126 
L 160.933381 89.996114 
L 166.187435 90.083726 
L 171.441489 89.25944 
L 176.695543 89.757983 
L 181.949597 89.416779 
L 187.203651 72.805242 
L 192.457705 74.059406 
L 197.71176 72.762194 
L 202.965814 71.873941 
L 208.219868 71.416627 
L 213.473922 71.27672 
L 218.727976 70.217032 
L 223.98203 70.314042 
L 229.236084 70.546867 
" clip-path="url(#p69fd778f0a)" style="fill: none; stroke: #3d8e8e; stroke-width: 1.5; stroke-linecap: square"/>
   </g>
   <g id="line2d_8">
    <path d="M 134.663111 12.898968 
L 139.917165 20.760004 
L 145.171219 75.432863 
L 150.425273 91.070505 
L 155.679327 89.916838 
L 160.933381 91.699558 
L 166.187435 90.785385 
L 171.441489 88.835322 
L 176.695543 88.676164 
L 181.949597 88.324804 
L 187.203651 87.104291 
L 192.457705 86.547389 
L 197.71176 73.047011 
L 202.965814 72.262589 
L 208.219868 70.714362 
L 213.473922 70.9916 
L 218.727976 70.815768 
L 223.98203 70.328139 
L 229.236084 70.129116 
" clip-path="url(#p69fd778f0a)" style="fill: none; stroke: #2a7d8c; stroke-width: 1.5; stroke-linecap: square"/>
   </g>
   <g id="line2d_9">
    <path d="M 134.663111 27.273655 
L 139.917165 20.601907 
L 145.171219 73.956939 
L 150.425273 67.289587 
L 155.679327 90.487533 
L 160.933381 91.577082 
L 166.187435 90.014606 
L 171.441489 88.708299 
L 176.695543 88.778177 
L 181.949597 88.575516 
L 187.203651 85.683086 
L 192.457705 73.165394 
L 197.71176 72.817672 
L 202.965814 72.386884 
L 208.219868 71.565175 
L 213.473922 71.019339 
L 218.727976 70.219912 
L 223.98203 70.131996 
L 229.236084 69.693781 
" clip-path="url(#p69fd778f0a)" style="fill: none; stroke: #1d6c8a; stroke-width: 1.5; stroke-linecap: square"/>
   </g>
   <g id="line2d_10">
    <path d="M 134.663111 12.929133 
L 139.917165 21.958236 
L 145.171219 82.506598 
L 150.425273 70.661006 
L 155.679327 90.788265 
L 160.933381 90.060232 
L 166.187435 89.890918 
L 171.441489 88.839112 
L 176.695543 89.090429 
L 181.949597 88.630691 
L 187.203651 72.881335 
L 192.457705 74.046067 
L 197.71176 85.91288 
L 202.965814 72.084181 
L 208.219868 71.805579 
L 213.473922 71.044653 
L 218.727976 70.271297 
L 223.98203 70.307373 
L 229.236084 70.154581 
" clip-path="url(#p69fd778f0a)" style="fill: none; stroke: #1f5985; stroke-width: 1.5; stroke-linecap: square"/>
   </g>
   <g id="line2d_11">
    <path d="M 134.663111 14.444164 
L 139.917165 54.427507 
L 145.171219 76.184998 
L 150.425273 91.014724 
L 155.679327 78.490362 
L 160.933381 91.501141 
L 166.187435 90.992745 
L 171.441489 88.917023 
L 176.695543 88.655549 
L 181.949597 88.100467 
L 187.203651 85.529082 
L 192.457705 73.757461 
L 197.71176 72.956518 
L 202.965814 71.739339 
L 208.219868 71.408291 
L 213.473922 70.9916 
L 218.727976 71.189107 
L 223.98203 70.131996 
L 229.236084 69.692417 
" clip-path="url(#p69fd778f0a)" style="fill: none; stroke: #27457c; stroke-width: 1.5; stroke-linecap: square"/>
   </g>
   <g id="line2d_12">
    <path d="M 134.663111 9.478135 
L 139.917165 21.756787 
L 145.171219 76.332939 
L 150.425273 82.906008 
L 155.679327 90.554985 
L 160.933381 90.338682 
L 166.187435 90.415684 
L 171.441489 89.155002 
L 176.695543 88.786059 
L 181.949597 87.540232 
L 187.203651 74.09912 
L 192.457705 72.845411 
L 197.71176 72.715659 
L 202.965814 71.655971 
L 208.219868 71.083305 
L 213.473922 69.598589 
L 218.727976 70.358152 
L 223.98203 70.219912 
L 229.236084 70.546867 
" clip-path="url(#p69fd778f0a)" style="fill: none; stroke: #2c3172; stroke-width: 1.5; stroke-linecap: square"/>
   </g>
   <g id="line2d_13">
    <path d="M 132.036084 53.395103 
L 229.236084 53.395103 
" clip-path="url(#p69fd778f0a)" style="fill: none; stroke-dasharray: 1,1.65; stroke-dashoffset: 0; stroke: #2d2d2d"/>
   </g>
   <g id="line2d_14">
    <path d="M 150.425273 94.40024 
L 150.425273 8.00024 
" clip-path="url(#p69fd778f0a)" style="fill: none; stroke: #ff4500; stroke-width: 2; stroke-linecap: square"/>
   </g>
   <g id="patch_6">
    <path d="M 132.036084 94.40024 
L 132.036084 8.00024 
" style="fill: none; stroke: #000000; stroke-width: 0.8; stroke-linejoin: miter; stroke-linecap: square"/>
   </g>
   <g id="patch_7">
    <path d="M 229.236084 94.40024 
L 229.236084 8.00024 
" style="fill: none; stroke: #000000; stroke-width: 0.8; stroke-linejoin: miter; stroke-linecap: square"/>
   </g>
   <g id="patch_8">
    <path d="M 132.036084 94.40024 
L 229.236084 94.40024 
" style="fill: none; stroke: #000000; stroke-width: 0.8; stroke-linejoin: miter; stroke-linecap: square"/>
   </g>
   <g id="patch_9">
    <path d="M 132.036084 8.00024 
L 229.236084 8.00024 
" style="fill: none; stroke: #000000; stroke-width: 0.8; stroke-linejoin: miter; stroke-linecap: square"/>
   </g>
  </g>
 </g>
 <defs>
  <clipPath id="p6a58cbbc05">
   <rect x="3.363916" y="3.00024" width="230.872168" height="425.99952"/>
  </clipPath>
  <clipPath id="p69fd778f0a">
   <rect x="132.036084" y="8.00024" width="97.2" height="86.4"/>
  </clipPath>
 </defs>
</svg>
