<?xml version="1.0" encoding="utf-8" standalone="no"?>
<!DOCTYPE svg PUBLIC "-//W3C//DTD SVG 1.1//EN"
  "http://www.w3.org/Graphics/SVG/1.1/DTD/svg11.dtd">
<svg xmlns:xlink="http://www.w3.org/1999/xlink" width="237.6pt" height="432pt" viewBox="0 0 237.6 432" xmlns="http://www.w3.org/2000/svg" version="1.1">
 <metadata>
  <rdf:RDF xmlns:dc="http://purl.org/dc/elements/1.1/" xmlns:cc="http://creativecommons.org/ns#" xmlns:rdf="http://www.w3.org/1999/02/22-rdf-syntax-ns#">
   <cc:Work>
    <dc:type rdf:resource="http://purl.org/dc/dcmitype/StillImage"/>
    <dc:date>2024-09-24T16:41:29.591105</dc:date>
    <dc:format>image/svg+xml</dc:format>
    <dc:creator>
     <cc:Agent>
      <dc:title>Matplotlib v3.9.2, https://matplotlib.org/</dc:title>
     </cc:Agent>
    </dc:creator>
   </cc:Work>
  </rdf:RDF>
 </metadata>
 <defs>
  <style type="text/css">*{stroke-linejoin: round; stroke-linecap: butt}</style>
 </defs>
 <g id="figure_1">
  <g id="patch_1">
   <path d="M 0 432 
L 237.6 432 
L 237.6 0 
L 0 0 
z
" style="fill: #ffffff"/>
  </g>
  <g id="axes_1">
   <g id="PatchCollection_1">
    <path d="M 18.249943 428.99976 
L 10.726131 428.868908 
L 5.435468 428.331104 
L 4.407532 425.571231 
L 3.809859 422.064493 
L 3.565634 414.27828 
L 3.506659 362.092038 
L 3.423762 223.029761 
L 3.363916 103.176807 
L 3.411123 86.647844 
L 3.608096 79.679265 
L 4.257614 69.281451 
L 5.923213 67.386311 
L 6.432324 66.807204 
L 9.471969 63.290848 
L 18.194591 53.198965 
L 25.414552 43.315121 
L 28.900194 36.668982 
L 29.718489 34.664288 
L 33.593152 27.194409 
L 36.658121 10.682352 
L 37.247683 7.178206 
L 38.059379 5.012068 
L 45.50785 3.65723 
L 68.029227 3.159621 
L 173.506986 3.049685 
L 231.808243 3.00024 
L 232.71936 6.069594 
L 233.424167 15.790752 
L 233.652449 66.541738 
L 234.236084 397.933348 
L 234.176173 422.490789 
L 232.668163 425.916166 
L 230.564206 427.372187 
L 226.642179 428.082 
L 223.552449 428.624551 
L 162.702847 428.823042 
L 109.612814 428.942426 
L 69.250119 428.988341 
L 18.249943 428.99976 
" clip-path="url(#pb765ebf225)" style="fill: #eee8aa; fill-opacity: 0.211765"/>
    <path d="M 7.157367 40.959797 
L 8.952921 25.22356 
L 12.541161 16.305858 
L 19.018485 8.475509 
L 24.145981 7.542844 
L 23.424931 9.567475 
L 20.885281 16.952882 
L 18.485405 22.112609 
L 10.26127 36.44125 
L 9.756381 37.183288 
L 8.988001 38.259386 
L 7.683335 40.311577 
L 7.157367 40.959797 
" clip-path="url(#pb765ebf225)" style="fill: #eee8aa; fill-opacity: 0.211765"/>
   </g>
   <g id="text_1">
    <g id="patch_2">
     <path d="M 13.161618 35.865976 
L 60.901618 35.865976 
Q 65.101618 35.865976 65.101618 31.665976 
L 65.101618 18.116601 
Q 65.101618 13.916601 60.901618 13.916601 
L 13.161618 13.916601 
Q 8.961618 13.916601 8.961618 18.116601 
L 8.961618 31.665976 
Q 8.961618 35.865976 13.161618 35.865976 
z
" style="fill: #ffffff; stroke: #2d2d2d; stroke-linejoin: miter"/>
    </g>
    <!-- $\gamma = 6.0$ -->
    <g transform="translate(13.161618 28.725976) scale(0.14 -0.14)">
     <defs>
      <path id="DejaVuSans-Oblique-3b3" d="M 1491 2950 
L 1838 788 
L 3456 3500 
L 4066 3500 
L 1972 0 
L 1713 -1331 
L 1138 -1331 
L 1397 0 
L 988 2613 
Q 925 3006 628 3006 
L 475 3006 
L 569 3500 
L 788 3500 
Q 1403 3500 1491 2950 
z
" transform="scale(0.015625)"/>
      <path id="DejaVuSans-3d" d="M 678 2906 
L 4684 2906 
L 4684 2381 
L 678 2381 
L 678 2906 
z
M 678 1631 
L 4684 1631 
L 4684 1100 
L 678 1100 
L 678 1631 
z
" transform="scale(0.015625)"/>
      <path id="DejaVuSans-36" d="M 2113 2584 
Q 1688 2584 1439 2293 
Q 1191 2003 1191 1497 
Q 1191 994 1439 701 
Q 1688 409 2113 409 
Q 2538 409 2786 701 
Q 3034 994 3034 1497 
Q 3034 2003 2786 2293 
Q 2538 2584 2113 2584 
z
M 3366 4563 
L 3366 3988 
Q 3128 4100 2886 4159 
Q 2644 4219 2406 4219 
Q 1781 4219 1451 3797 
Q 1122 3375 1075 2522 
Q 1259 2794 1537 2939 
Q 1816 3084 2150 3084 
Q 2853 3084 3261 2657 
Q 3669 2231 3669 1497 
Q 3669 778 3244 343 
Q 2819 -91 2113 -91 
Q 1303 -91 875 529 
Q 447 1150 447 2328 
Q 447 3434 972 4092 
Q 1497 4750 2381 4750 
Q 2619 4750 2861 4703 
Q 3103 4656 3366 4563 
z
" transform="scale(0.015625)"/>
      <path id="DejaVuSans-2e" d="M 684 794 
L 1344 794 
L 1344 0 
L 684 0 
L 684 794 
z
" transform="scale(0.015625)"/>
      <path id="DejaVuSans-30" d="M 2034 4250 
Q 1547 4250 1301 3770 
Q 1056 3291 1056 2328 
Q 1056 1369 1301 889 
Q 1547 409 2034 409 
Q 2525 409 2770 889 
Q 3016 1369 3016 2328 
Q 3016 3291 2770 3770 
Q 2525 4250 2034 4250 
z
M 2034 4750 
Q 2819 4750 3233 4129 
Q 3647 3509 3647 2328 
Q 3647 1150 3233 529 
Q 2819 -91 2034 -91 
Q 1250 -91 836 529 
Q 422 1150 422 2328 
Q 422 3509 836 4129 
Q 1250 4750 2034 4750 
z
" transform="scale(0.015625)"/>
     </defs>
     <use xlink:href="#DejaVuSans-Oblique-3b3" transform="translate(0 0.78125)"/>
     <use xlink:href="#DejaVuSans-3d" transform="translate(78.662109 0.78125)"/>
     <use xlink:href="#DejaVuSans-36" transform="translate(181.933594 0.78125)"/>
     <use xlink:href="#DejaVuSans-2e" transform="translate(245.556641 0.78125)"/>
     <use xlink:href="#DejaVuSans-30" transform="translate(277.34375 0.78125)"/>
    </g>
   </g>
   <g id="PatchCollection_2">
    <path d="M 127.585807 345.681004 
L 124.950207 344.493028 
L 118.800662 341.767652 
L 103.724131 334.882916 
L 95.153191 330.617843 
L 91.85331 329.149814 
L 85.206284 326.248661 
L 84.9214 326.108805 
L 81.574641 325.061072 
L 63.512257 319.367224 
L 61.256742 317.792604 
L 56.294174 313.662657 
L 45.610028 304.84239 
L 38.13121 297.981125 
L 26.119572 288.10964 
L 27.351314 285.410998 
L 28.392594 281.801541 
L 28.818464 280.189576 
L 30.190695 275.038279 
L 34.212254 259.864676 
L 44.452416 221.211804 
L 45.468979 217.21685 
L 45.799947 215.92024 
L 46.083594 214.763813 
L 44.447145 214.554897 
L 51.117989 194.543701 
L 51.543897 193.457218 
L 51.662047 192.966609 
L 51.756456 192.440984 
L 51.99287 191.599912 
L 52.465895 190.163023 
L 52.584129 189.777523 
L 52.938738 188.515914 
L 53.458256 185.992852 
L 53.670708 184.871506 
L 54.261603 182.663709 
L 54.923524 180.350741 
L 55.396171 178.528441 
L 56.673092 174.568225 
L 56.791367 174.252795 
L 57.335196 172.535538 
L 58.658903 167.944609 
L 60.1239 162.337484 
L 64.045571 146.987986 
L 65.69905 140.469685 
L 66.761671 135.984031 
L 67.848715 132.339226 
L 68.320239 129.570897 
L 69.430691 125.680802 
L 70.090881 121.931265 
L 70.962592 116.289546 
L 70.854126 101.679338 
L 71.276683 97.369423 
L 72.126786 94.110206 
L 73.332335 90.850648 
L 73.781471 89.658971 
L 74.06525 89.028039 
L 74.349059 88.432143 
L 75.129283 86.539411 
L 76.481311 87.834472 
L 84.542696 91.855743 
L 85.823733 93.150807 
L 91.154618 91.883991 
L 93.761418 91.846213 
L 104.422816 89.206861 
L 109.82291 86.502922 
L 115.192773 98.549344 
L 109.863464 101.218319 
L 147.169658 138.485908 
L 143.192644 142.520434 
L 137.039348 150.271577 
L 127.097972 162.511919 
L 141.816043 177.208458 
L 156.528442 169.200161 
L 178.779094 192.81739 
L 195.99915 210.974392 
L 192.563387 212.696675 
L 181.046643 218.110249 
L 179.69576 218.672891 
L 168.912884 223.699189 
L 164.57872 227.699627 
L 189.82477 250.540287 
L 211.27107 267.182523 
L 203.170629 274.553661 
L 196.513418 279.925054 
L 181.849546 293.261865 
L 166.617492 308.910707 
L 161.761337 314.348285 
L 144.014583 333.011903 
L 127.585807 345.681004 
" clip-path="url(#pb765ebf225)" style="fill: none; stroke: #d55e00; stroke-width: 2"/>
   </g>
   <g id="PatchCollection_3">
    <defs>
     <path id="mefa3fcb760" d="M 51.376088 -119.734996 
L 51.225573 -119.84033 
L 50.371857 -120.163358 
L 50.291561 -120.284517 
L 50.316528 -120.507017 
L 50.574081 -120.938874 
L 50.796748 -121.37806 
L 50.796559 -121.607546 
L 50.687009 -121.814519 
L 49.084336 -122.915089 
L 48.910361 -122.990275 
L 48.696343 -122.998509 
L 48.588462 -123.199528 
L 47.436498 -124.145971 
L 46.31771 -125.158315 
L 43.727131 -127.180993 
L 43.232153 -127.558644 
L 42.175492 -128.364349 
L 41.870675 -128.596751 
L 41.778331 -128.662898 
L 40.813113 -129.356566 
L 40.048967 -129.905695 
L 38.846483 -130.634227 
L 38.591361 -130.731784 
L 38.387066 -130.757906 
L 38.156716 -130.728301 
L 37.944913 -130.643003 
L 37.232415 -130.047202 
L 36.93867 -129.76459 
L 36.850231 -129.688495 
L 36.783827 -130.02097 
L 37.245467 -130.673657 
L 38.159239 -131.78219 
L 38.70371 -132.434625 
L 39.332891 -133.15949 
L 39.655908 -133.531633 
L 41.05 -135.048369 
L 43.029544 -137.148351 
L 43.180135 -137.308107 
L 45.105874 -139.368002 
L 45.827184 -140.141124 
L 46.132041 -140.435321 
L 48.23529 -142.638339 
L 49.758977 -144.197991 
L 51.831803 -146.365989 
L 53.754131 -148.3072 
L 54.05508 -148.421672 
L 54.365816 -148.464678 
L 54.59521 -148.474332 
L 54.821322 -148.436685 
L 55.02446 -148.355923 
L 55.255922 -148.165523 
L 58.710093 -144.786098 
L 59.183804 -144.568586 
L 58.917801 -145.184991 
L 58.448179 -145.887058 
L 56.63914 -147.700022 
L 55.739988 -148.58672 
L 55.503932 -148.601584 
L 55.340997 -148.550993 
L 55.327807 -148.525291 
L 54.612263 -149.213002 
L 54.256204 -149.555214 
L 55.271163 -150.608959 
L 54.882027 -150.42574 
L 54.670967 -150.340073 
L 54.447775 -150.293636 
L 54.234033 -150.292405 
L 54.079339 -150.31715 
L 53.755835 -150.509927 
L 53.63262 -150.621238 
L 53.570046 -150.556368 
L 53.398839 -150.379244 
L 53.297538 -150.476607 
L 50.591468 -153.077895 
L 49.88687 -153.705865 
L 49.456516 -154.03275 
L 49.641682 -153.582336 
L 49.962893 -153.281639 
L 53.218542 -150.192748 
L 53.506551 -149.894131 
L 53.635979 -149.730271 
L 53.594415 -149.506354 
L 53.533809 -149.3574 
L 51.919219 -147.654342 
L 50.072996 -145.740191 
L 49.967339 -145.846264 
L 49.911314 -145.892465 
L 49.788332 -146.008685 
L 45.193224 -150.344903 
L 44.778696 -150.758001 
L 44.699161 -150.83747 
L 44.528935 -151.00726 
L 44.758386 -151.240083 
L 44.577251 -151.404609 
L 44.479678 -151.497378 
L 40.706668 -155.083536 
L 42.664379 -157.008895 
L 42.859467 -157.192637 
L 44.263694 -158.534578 
L 44.328869 -158.609607 
L 44.425341 -158.706033 
L 45.346222 -157.808786 
L 46.443491 -156.755774 
L 46.639488 -156.984367 
L 46.668166 -157.016273 
L 52.733956 -164.006067 
L 56.564269 -168.350299 
L 56.134842 -168.728323 
L 54.553134 -170.163114 
L 54.27547 -170.044106 
L 53.586218 -170.254443 
L 53.16528 -168.725458 
L 51.457157 -166.737829 
L 50.747804 -166.001832 
L 50.501555 -165.746565 
L 46.510421 -161.145514 
L 45.06498 -159.473483 
L 44.822519 -159.505874 
L 44.684361 -159.630143 
L 44.919029 -160.449475 
L 47.016961 -167.810513 
L 48.150871 -171.819926 
L 47.927375 -171.885613 
L 44.93724 -172.762273 
L 47.522742 -181.824723 
L 49.829852 -189.935402 
L 49.8748 -190.076285 
L 49.920457 -190.221022 
L 51.910968 -197.202252 
L 51.944547 -197.321053 
L 51.759036 -197.375906 
L 51.622154 -197.419237 
L 51.576606 -197.433564 
L 48.360037 -198.428406 
L 45.070516 -199.348267 
L 44.699036 -199.448176 
L 45.400516 -201.898124 
L 47.640251 -209.843014 
L 48.624583 -213.443099 
L 48.854119 -214.68073 
L 48.996453 -215.448184 
L 49.279303 -216.976351 
L 49.478634 -217.395199 
L 48.97668 -217.301942 
L 47.745889 -217.034665 
L 47.699436 -217.295298 
L 49.297222 -223.19007 
L 49.615751 -224.567612 
L 49.772507 -225.132178 
L 49.849045 -225.199861 
L 50.12732 -225.343739 
L 50.435726 -225.469073 
L 51.0161 -226.480002 
L 51.888158 -228.035992 
L 52.163672 -228.356104 
L 53.051991 -229.160582 
L 53.243091 -229.755311 
L 53.959125 -231.547325 
L 55.454837 -235.247389 
L 56.994907 -239.133548 
L 58.492353 -237.963222 
L 59.747732 -237.050916 
L 60.071851 -237.073973 
L 60.133022 -237.079633 
L 60.482292 -236.814713 
L 60.596176 -236.737383 
L 61.949234 -235.861965 
L 62.726707 -235.373197 
L 64.388451 -234.306774 
L 65.198197 -233.806132 
L 66.451115 -233.058891 
L 66.487815 -233.118837 
L 66.568794 -233.246793 
L 66.611646 -233.319708 
L 68.723475 -236.894662 
L 69.219044 -237.926593 
L 70.687731 -240.98559 
L 70.728907 -241.073219 
L 69.86856 -241.695016 
L 68.425707 -242.757738 
L 68.4437 -242.787536 
L 69.417481 -244.354566 
L 68.658877 -244.972609 
L 66.50485 -246.694428 
L 66.384313 -246.790669 
L 65.490759 -245.378238 
L 59.809124 -248.728974 
L 61.327853 -251.044819 
L 66.945145 -247.742421 
L 67.583425 -248.779734 
L 67.832249 -249.183583 
L 68.765196 -250.7765 
L 69.114559 -251.421144 
L 69.56191 -252.246317 
L 69.518477 -254.339007 
L 68.240723 -255.422206 
L 66.914678 -256.698422 
L 66.497267 -257.10026 
L 66.073687 -257.50805 
L 65.434765 -257.989573 
L 63.770326 -259.384278 
L 61.669518 -261.220423 
L 61.772719 -261.410763 
L 62.478315 -262.711594 
L 62.759877 -263.083232 
L 64.045456 -265.337581 
L 64.997015 -267.006528 
L 67.189571 -270.839066 
L 65.128272 -272.084843 
L 62.569634 -272.789236 
L 62.457234 -272.820319 
L 61.889072 -270.837446 
L 60.907211 -267.494092 
L 60.379329 -265.77018 
L 60.041036 -264.664831 
L 59.814035 -263.98107 
L 59.798486 -263.056092 
L 59.7646 -262.764909 
L 58.917481 -263.328959 
L 58.793404 -263.42415 
L 58.491166 -263.64707 
L 57.252836 -264.524716 
L 57.016549 -264.702848 
L 56.895548 -264.807153 
L 56.617231 -265.063732 
L 56.530028 -265.289993 
L 56.489934 -265.59793 
L 56.531451 -265.842521 
L 56.783696 -266.680811 
L 57.00797 -267.787107 
L 57.337158 -269.569349 
L 57.594467 -270.847704 
L 57.702762 -272.001201 
L 57.785181 -272.644894 
L 57.938954 -273.566839 
L 58.133882 -274.598133 
L 58.338174 -275.762575 
L 58.514392 -276.766526 
L 58.802804 -278.787335 
L 58.878336 -279.436629 
L 59.161734 -281.761553 
L 59.211356 -282.76119 
L 59.246342 -283.417806 
L 59.208909 -285.024551 
L 59.166443 -285.606122 
L 59.076491 -286.274892 
L 58.64914 -288.663316 
L 58.565356 -289.33034 
L 58.571598 -289.512186 
L 58.739739 -290.24775 
L 59.526411 -293.068533 
L 59.889614 -294.366607 
L 61.118096 -299.066099 
L 61.934206 -302.019709 
L 62.798258 -305.406419 
L 62.981277 -306.167929 
L 63.590026 -308.484046 
L 65.335006 -314.512276 
L 65.61981 -315.658584 
L 66.579986 -319.534165 
L 66.823871 -320.572875 
L 66.916178 -320.970977 
L 67.101925 -321.82394 
L 67.238674 -322.347864 
L 67.262764 -322.440383 
L 67.71051 -324.205943 
L 67.885319 -324.83256 
L 68.300265 -326.430266 
L 69.100191 -329.714647 
L 69.425495 -331.095045 
L 69.667801 -332.269351 
L 69.668509 -332.272505 
L 70.132026 -334.61234 
L 70.430987 -336.269857 
L 70.683215 -337.463094 
L 70.844321 -338.019628 
L 70.978736 -338.480487 
L 71.542056 -340.246518 
L 71.793614 -340.879518 
L 72.114696 -341.667447 
L 72.380576 -342.940934 
L 72.453945 -343.292772 
L 72.875602 -343.221345 
L 73.047441 -343.192427 
L 73.304724 -343.275358 
L 73.761516 -343.639123 
L 74.627727 -344.087018 
L 74.900405 -344.176973 
L 75.496002 -343.862212 
L 75.609459 -343.673823 
L 75.536353 -343.301663 
L 75.19899 -342.456602 
L 75.155133 -342.224967 
L 75.117943 -341.960754 
L 76.223039 -343.882182 
L 76.318611 -344.056057 
L 76.409254 -344.267224 
L 76.504288 -344.176062 
L 84.544343 -340.156171 
L 85.826805 -338.857605 
L 90.208038 -339.900173 
L 90.438343 -339.95498 
L 92.21609 -339.425845 
L 93.885315 -338.855105 
L 94.841225 -338.499796 
L 95.664383 -338.184292 
L 97.583456 -337.357384 
L 100.433586 -335.750192 
L 102.560906 -334.385048 
L 103.654611 -333.547832 
L 104.71804 -332.665741 
L 105.232518 -332.201716 
L 105.425703 -332.027478 
L 106.121764 -331.399686 
L 107.945587 -329.403251 
L 109.264225 -327.765734 
L 110.239675 -326.361527 
L 112.508167 -322.566163 
L 120.371265 -306.494657 
L 123.886634 -299.313247 
L 124.961117 -297.195195 
L 125.907824 -294.912671 
L 127.057032 -292.215218 
L 127.480492 -291.374864 
L 128.411307 -289.52889 
L 130.495332 -285.852652 
L 131.811713 -283.777691 
L 133.551374 -281.253058 
L 134.525851 -280.017509 
L 135.092789 -279.334317 
L 131.87528 -275.373764 
L 131.783643 -275.411618 
L 131.358117 -275.402322 
L 131.037555 -275.249859 
L 130.769111 -274.938397 
L 130.670164 -274.632403 
L 130.66449 -274.431986 
L 130.745722 -274.120614 
L 130.535591 -273.724757 
L 130.535591 -273.724757 
L 127.107434 -269.505261 
L 127.276038 -269.336987 
L 126.609907 -268.468964 
L 126.285633 -268.046023 
L 126.241607 -267.988859 
L 125.712099 -267.31025 
L 124.50043 -265.727563 
L 122.275867 -262.822076 
L 121.901629 -262.333213 
L 121.533271 -262.665264 
L 121.44087 -262.810204 
L 121.550051 -262.316671 
L 121.486457 -261.773528 
L 121.906613 -261.936606 
L 122.32779 -261.843218 
L 124.9501 -258.828018 
L 128.528966 -254.831972 
L 129.560926 -253.406924 
L 130.428273 -251.480654 
L 131.932792 -244.816155 
L 131.893218 -244.422996 
L 132.35663 -242.656342 
L 132.677257 -241.67853 
L 133.013368 -240.647833 
L 133.308865 -240.045231 
L 132.863129 -239.455351 
L 132.227525 -238.43989 
L 131.421792 -236.946669 
L 131.2525 -236.37466 
L 130.933236 -235.891105 
L 130.434361 -235.30607 
L 126.665978 -231.914402 
L 124.826701 -230.290301 
L 124.626577 -230.087896 
L 124.474021 -229.769578 
L 124.410212 -229.399516 
L 124.412032 -229.07508 
L 124.569573 -228.615245 
L 124.605393 -228.216574 
L 124.612408 -227.716262 
L 124.637091 -226.730367 
L 124.455329 -225.86019 
L 124.129969 -225.290451 
L 123.751658 -224.776355 
L 122.210194 -223.29209 
L 121.770652 -222.616056 
L 115.718634 -217.034545 
L 114.625763 -216.007053 
L 114.901486 -215.71086 
L 116.015371 -216.772472 
L 121.816277 -222.145222 
L 122.606286 -222.642645 
L 124.359352 -224.064807 
L 124.787704 -224.379608 
L 125.215639 -224.647811 
L 125.456889 -224.770735 
L 125.717831 -224.885625 
L 125.898427 -224.966781 
L 126.094209 -225.039548 
L 126.335515 -225.116925 
L 126.555036 -225.16835 
L 127.027529 -225.258627 
L 127.405473 -225.295533 
L 127.651356 -225.314057 
L 127.892265 -225.328721 
L 128.220928 -225.33018 
L 129.713997 -225.264073 
L 130.492333 -225.210743 
L 131.353198 -225.151914 
L 131.536715 -225.171065 
L 131.677528 -225.205578 
L 131.777766 -225.260011 
L 131.892451 -225.329528 
L 133.653308 -226.888781 
L 134.14241 -227.33682 
L 134.259179 -227.443479 
L 134.891811 -228.02309 
L 134.625387 -227.937961 
L 134.434059 -227.910388 
L 134.266897 -227.899313 
L 134.138128 -227.905455 
L 133.974231 -227.93713 
L 133.734679 -227.977817 
L 133.560267 -228.073945 
L 133.169108 -228.365301 
L 133.082835 -228.519002 
L 133.003645 -228.697587 
L 132.988527 -228.838414 
L 132.996007 -229.2967 
L 133.006792 -229.580509 
L 133.050374 -229.992943 
L 133.130427 -230.627905 
L 133.234579 -231.145526 
L 133.386786 -231.539879 
L 133.544486 -231.902707 
L 133.761372 -232.339538 
L 134.112987 -232.927897 
L 134.926609 -233.812206 
L 137.208091 -235.910169 
L 144.572517 -242.682725 
L 146.45774 -244.125947 
L 147.565702 -245.038737 
L 149.114416 -246.314408 
L 151.505101 -248.428616 
L 152.723987 -249.506611 
L 153.197849 -249.92595 
L 156.228895 -252.682973 
L 155.37825 -251.786605 
L 155.290719 -251.645987 
L 155.213684 -251.459836 
L 155.145626 -251.296822 
L 155.091796 -251.132075 
L 155.043697 -250.937906 
L 155.016701 -250.743416 
L 154.999186 -250.551041 
L 155.007055 -250.34749 
L 155.028407 -250.167783 
L 155.072775 -249.975143 
L 155.1387 -249.796899 
L 155.215972 -249.642846 
L 155.309827 -249.498626 
L 155.42955 -249.338325 
L 155.554936 -249.197303 
L 155.671749 -249.082896 
L 155.802065 -248.977267 
L 155.929015 -248.905619 
L 156.080639 -248.822444 
L 156.241475 -248.764858 
L 156.429571 -248.711865 
L 156.689504 -248.662826 
L 156.881101 -248.650131 
L 157.069119 -248.653547 
L 157.222974 -248.67093 
L 157.368511 -248.701966 
L 157.519015 -248.742119 
L 157.664749 -248.801886 
L 157.799101 -248.862687 
L 157.931774 -248.937151 
L 158.064667 -249.023878 
L 158.202023 -249.139691 
L 158.303844 -249.234083 
L 158.410857 -249.345649 
L 158.483983 -249.443854 
L 158.594218 -249.625148 
L 158.665651 -249.746826 
L 158.741531 -249.909852 
L 158.799639 -250.065146 
L 158.824857 -250.172743 
L 158.847399 -250.328688 
L 158.850049 -250.467086 
L 158.851039 -250.605832 
L 158.837268 -250.787652 
L 158.801464 -250.957528 
L 158.754991 -251.126689 
L 158.714291 -251.236997 
L 158.579456 -251.521303 
L 157.584049 -252.920314 
L 163.739616 -245.950478 
L 165.810763 -243.802924 
L 166.750644 -242.835877 
L 167.596553 -241.927911 
L 168.517278 -240.939824 
L 171.740209 -237.186199 
L 174.290688 -234.138312 
L 176.415312 -231.446491 
L 178.539543 -228.742081 
L 181.407032 -224.937286 
L 183.879402 -221.392247 
L 186.139796 -218.041365 
L 186.995526 -216.742694 
L 168.924472 -208.323252 
L 164.586285 -204.317201 
L 189.827809 -181.488097 
L 211.098882 -164.96877 
L 209.911935 -163.925612 
L 209.189361 -163.377831 
L 207.762357 -162.347475 
L 206.391366 -161.288844 
L 201.536789 -157.078927 
L 199.776801 -155.509931 
L 195.357768 -151.706258 
L 195.044778 -151.465407 
L 194.674889 -151.201342 
L 194.340029 -150.987785 
L 193.971243 -150.774526 
L 193.504216 -150.578979 
L 192.934232 -150.382568 
L 192.368659 -150.246078 
L 190.995741 -149.993392 
L 190.250267 -149.906726 
L 189.671353 -149.803858 
L 189.069047 -149.640342 
L 188.513132 -149.393165 
L 188.095282 -149.146906 
L 187.761817 -148.943875 
L 187.195838 -148.453885 
L 185.752259 -147.098187 
L 185.343282 -146.937437 
L 185.177672 -146.951195 
L 185.01831 -146.913809 
L 184.877761 -146.829505 
L 184.770248 -146.706011 
L 184.705953 -146.555956 
L 184.691507 -146.386709 
L 184.594242 -146.079641 
L 183.067092 -144.586844 
L 182.426984 -143.689284 
L 182.030943 -142.82153 
L 182.564555 -143.552504 
L 183.285191 -144.381518 
L 184.711111 -145.829664 
L 184.846685 -145.909406 
L 185.009126 -145.95135 
L 185.089363 -145.91749 
L 185.163637 -145.904641 
L 185.239319 -145.902306 
L 185.309291 -145.909772 
L 185.377351 -145.926695 
L 185.797162 -145.834151 
L 186.02416 -145.70452 
L 186.520379 -145.296069 
L 186.95993 -144.717256 
L 187.482722 -144.006487 
L 187.329023 -143.83527 
L 181.178479 -138.210514 
L 178.969342 -135.968689 
L 178.573986 -135.566575 
L 177.713415 -134.673252 
L 172.52222 -129.363463 
L 172.763843 -129.138189 
L 172.826123 -129.057698 
L 174.324546 -126.888037 
L 172.940432 -125.893403 
L 171.150912 -124.678855 
L 169.703383 -123.706576 
L 168.239014 -122.720619 
L 167.110824 -121.904386 
L 166.338633 -121.339535 
L 165.907956 -121.039002 
L 165.422976 -120.715969 
L 165.026884 -120.452276 
L 164.309602 -119.974752 
L 164.114755 -119.844838 
L 163.955438 -119.756669 
L 163.667496 -119.686183 
L 163.39103 -119.720122 
L 162.870418 -119.089077 
L 161.923033 -118.070627 
L 160.989802 -117.102303 
L 159.90301 -115.99187 
L 157.27484 -113.211561 
L 154.378276 -110.223855 
L 153.123921 -108.914226 
L 152.974645 -108.760562 
L 150.856562 -106.579466 
L 149.820104 -105.532227 
L 149.698083 -105.398924 
L 148.572874 -104.170435 
L 147.295297 -102.776027 
L 146.710761 -102.137935 
L 145.301296 -100.687657 
L 143.916217 -99.262298 
L 143.441801 -98.774318 
L 143.359303 -98.713946 
L 141.828097 -97.59042 
L 141.499206 -97.408851 
L 141.204814 -97.338743 
L 140.91652 -97.322598 
L 140.909805 -97.014973 
L 140.786776 -96.736275 
L 138.635294 -95.023358 
L 137.653886 -94.242183 
L 137.041094 -93.754741 
L 135.227305 -92.349566 
L 133.038782 -90.573252 
L 132.364825 -90.01953 
L 132.22375 -89.923352 
L 131.676133 -89.479805 
L 131.096504 -89.015899 
L 130.063836 -88.184949 
L 129.61459 -87.823165 
L 127.686239 -86.278829 
L 127.54363 -86.267441 
L 127.373677 -86.298763 
L 124.974814 -87.373515 
L 124.760167 -87.471003 
L 123.377794 -88.09611 
L 123.277401 -88.106148 
L 123.161379 -88.088489 
L 122.952928 -87.970865 
L 122.800089 -87.786039 
L 122.444779 -87.247105 
L 121.55177 -86.079676 
L 121.174446 -85.686117 
L 120.923393 -85.470694 
L 120.816504 -85.355647 
L 120.728317 -85.278462 
L 120.632094 -85.174289 
L 120.108167 -84.730805 
L 119.790879 -85.128434 
L 119.543074 -85.567839 
L 116.911633 -88.692725 
L 115.530537 -89.878118 
L 112.354493 -91.675616 
L 108.972199 -93.349958 
L 108.647368 -93.527921 
L 105.837436 -94.841751 
L 100.029087 -97.42869 
L 96.516265 -99.098912 
L 92.883139 -100.826184 
L 91.580615 -101.536049 
L 90.739469 -101.944042 
L 89.114981 -102.863806 
L 89.023745 -102.747042 
L 87.846681 -101.234026 
L 85.781194 -98.530991 
L 83.46357 -95.656751 
L 83.231727 -95.658621 
L 82.918154 -95.523769 
L 80.909038 -92.791066 
L 80.496772 -93.105282 
L 77.828027 -95.35829 
L 76.884496 -96.128869 
L 76.694042 -96.275136 
L 77.435182 -96.946793 
L 77.836766 -97.355002 
L 81.606465 -101.647464 
L 84.937276 -105.443801 
L 85.251598 -105.811394 
L 85.006317 -105.922112 
L 84.778914 -106.005269 
L 84.007956 -106.260606 
L 82.181453 -106.861751 
L 82.046389 -106.911718 
L 82.211601 -107.087062 
L 83.56019 -108.638405 
L 85.737941 -111.231168 
L 78.598188 -114.687381 
L 78.130572 -114.878923 
L 76.7469 -111.818582 
L 75.395698 -108.997929 
L 74.750813 -109.19842 
L 68.382271 -111.178292 
L 65.17313 -112.175997 
L 64.941957 -112.247962 
L 64.808095 -112.290586 
L 63.657686 -112.65673 
L 63.466597 -112.747653 
L 62.488877 -113.441197 
L 61.895523 -113.895789 
L 60.79964 -114.87408 
L 57.393627 -117.84673 
L 57.068324 -118.130243 
L 56.405182 -118.654164 
L 53.330398 -121.220405 
L 53.043818 -121.460512 
L 52.814467 -121.643208 
L 52.765085 -121.680656 
L 52.491151 -121.267701 
L 52.244942 -120.896814 
L 51.576191 -119.916999 
L 51.42927 -119.694398 
L 51.376088 -119.734996 
" style="stroke: #009e73"/>
    </defs>
    <g clip-path="url(#pb765ebf225)">
     <use xlink:href="#mefa3fcb760" x="0" y="432" style="fill: #009e73; fill-opacity: 0.498039; stroke: #009e73"/>
    </g>
   </g>
   <g id="LineCollection_1">
    <path d="M 233.735051 113.443639 
L 232.409905 114.033585 
L 230.199592 115.135968 
L 227.617611 116.504565 
L 224.889977 118.093764 
L 222.418262 119.672663 
L 219.835712 121.465446 
L 217.10914 123.476019 
L 210.941897 128.48909 
L 205.236379 133.401333 
L 198.14029 139.922438 
L 192.785818 144.803239 
L 186.358623 150.607722 
L 178.827828 157.427964 
L 173.653154 162.098062 
L 171.204974 164.253288 
L 162.847563 171.924777 
L 155.304745 178.846022 
L 152.515643 181.33677 
L 152.017171 181.790827 
L 145.499832 187.704359 
L 134.664859 197.656976 
L 130.841155 201.134639 
L 121.770652 209.383944 
L 115.718634 214.965455 
L 112.80377 217.705904 
L 108.656392 221.732147 
L 106.700251 223.733889 
L 106.200668 224.244932 
L 103.470561 227.038629 
L 100.460641 230.377407 
L 96.124934 235.123568 
L 93.141722 238.623363 
L 91.673675 240.262853 
L 90.103965 242.009298 
L 86.138263 246.583507 
L 82.436103 250.901603 
L 81.291304 252.211696 
L 80.112371 253.560705 
L 78.347968 255.579471 
L 74.922589 259.498781 
L 72.733225 262.001398 
L 72.057214 262.776687 
L 71.846093 263.018635 
L 69.287494 265.972474 
L 63.487097 272.662314 
L 60.314768 276.143869 
L 57.349265 279.171472 
L 56.431361 280.185857 
L 55.271163 281.391041 
L 53.608969 283.156167 
L 51.392736 285.410144 
L 46.056425 291.051459 
L 45.521892 291.60756 
L 42.887601 294.374344 
L 40.636796 296.749792 
L 39.338231 298.158891 
L 38.258038 299.413306 
L 37.745331 300.032082 
L 36.893696 301.111135 
L 36.098284 302.195047 
L 35.297339 303.188918 
L 34.267888 304.479358 
L 32.098781 307.286285 
L 31.104161 308.573529 
L 29.848572 310.244949 
L 29.178253 311.183342 
L 28.74709 311.781713 
L 28.342491 312.371306 
L 27.685517 313.415143 
L 26.964091 314.591458 
L 25.96764 316.42769 
L 25.525947 317.273066 
L 25.297064 317.743057 
L 24.878924 318.689669 
L 24.072681 320.457439 
L 23.371604 321.974277 
L 22.712708 323.426616 
L 21.885785 325.202799 
L 19.332915 330.729326 
L 16.951011 335.928818 
L 15.860968 338.323527 
L 14.782063 340.737842 
L 13.961844 342.475093 
L 13.130208 344.194478 
L 12.247316 345.944373 
L 11.463823 347.277274 
L 10.837241 348.316825 
L 9.210588 350.901013 
L 8.558355 351.945826 
L 7.535593 353.280254 
L 6.311895 354.768953 
L 4.34625 356.989271 
L 3.504179 357.931458 
" clip-path="url(#pb765ebf225)" style="fill: none; stroke: #000000; stroke-width: 1.5"/>
    <path d="M 3.504626 358.681198 
L 4.410251 357.680844 
L 6.572675 355.110751 
L 8.653074 352.390727 
L 9.670314 350.97326 
L 10.302441 350.051081 
L 12.090948 347.130088 
L 14.393007 342.818175 
L 14.827195 341.936045 
L 16.229734 338.695724 
L 19.944088 330.595787 
L 22.465376 325.062967 
L 23.224316 323.469015 
L 23.87893 322.006866 
L 25.314439 318.85509 
L 25.916928 317.549931 
L 26.379934 316.645679 
L 27.689682 314.278429 
L 28.399034 313.149067 
L 29.073377 312.180544 
L 30.387013 310.367191 
L 30.948755 309.564812 
L 31.748728 308.469007 
L 32.445617 307.557913 
L 34.6339 304.697363 
L 35.665006 303.400613 
L 36.59537 302.245478 
L 37.245467 301.326343 
L 38.159239 300.21781 
L 38.70371 299.565375 
L 39.655908 298.468367 
L 41.05 296.951631 
L 43.180135 294.691893 
L 45.105874 292.631998 
L 45.827184 291.858876 
L 46.132041 291.564679 
L 48.23529 289.361661 
L 49.758977 287.802009 
L 51.831803 285.634011 
L 53.754131 283.6928 
L 55.53366 281.814405 
L 56.633666 280.681796 
L 57.505123 279.723508 
L 59.255218 277.910269 
L 60.183328 276.9337 
L 60.96708 276.091442 
L 61.543199 275.451873 
L 65.131353 271.468203 
L 68.766152 267.302231 
L 71.227603 264.434329 
L 72.225198 263.326247 
L 72.411442 263.115154 
L 74.400859 260.858335 
L 82.849894 251.272925 
L 86.438667 246.943725 
L 90.444366 242.286432 
L 90.768195 241.909805 
L 93.441524 238.861994 
L 94.789887 237.33088 
L 97.228114 234.563204 
L 103.572574 227.711214 
L 106.551593 224.608565 
L 107.039558 224.099987 
L 108.887646 222.175094 
L 113.123055 217.984072 
L 116.015371 215.227528 
L 121.816277 209.854778 
L 130.115022 202.414031 
L 134.926609 198.187794 
L 144.572517 189.317275 
L 152.378329 182.174682 
L 152.875147 181.72448 
L 157.368426 177.654002 
L 159.308467 175.896644 
L 163.022692 172.531709 
L 169.037757 167.109151 
L 174.151718 162.411947 
L 179.17816 157.858383 
L 186.637726 151.116719 
L 193.099697 145.261719 
L 198.444505 140.411757 
L 205.583531 133.905985 
L 211.366607 128.87798 
L 217.446468 123.911294 
L 220.119737 121.914473 
L 222.732622 120.117779 
L 225.161209 118.542455 
L 227.833218 116.992593 
L 230.400685 115.589332 
L 232.774697 114.441454 
L 233.736067 114.020926 
" clip-path="url(#pb765ebf225)" style="fill: none; stroke: #000000; stroke-width: 1.5"/>
   </g>
   <g id="legend_1">
    <g id="patch_3">
     <path d="M 40.447344 423.49976 
L 197.152656 423.49976 
Q 199.352656 423.49976 199.352656 421.29976 
L 199.352656 373.081948 
Q 199.352656 370.881948 197.152656 370.881948 
L 40.447344 370.881948 
Q 38.247344 370.881948 38.247344 373.081948 
L 38.247344 421.29976 
Q 38.247344 423.49976 40.447344 423.49976 
z
" style="fill: #ffffff; stroke: #cccccc; stroke-linejoin: miter"/>
    </g>
    <g id="patch_4">
     <path d="M 42.647344 384.080229 
L 64.647344 384.080229 
L 64.647344 376.380229 
L 42.647344 376.380229 
z
" style="fill: #009e73"/>
    </g>
    <g id="text_2">
     <!-- Legnagyobb közösség -->
     <g transform="translate(73.447344 384.080229) scale(0.11 -0.11)">
      <defs>
       <path id="DejaVuSans-4c" d="M 628 4666 
L 1259 4666 
L 1259 531 
L 3531 531 
L 3531 0 
L 628 0 
L 628 4666 
z
" transform="scale(0.015625)"/>
       <path id="DejaVuSans-65" d="M 3597 1894 
L 3597 1613 
L 953 1613 
Q 991 1019 1311 708 
Q 1631 397 2203 397 
Q 2534 397 2845 478 
Q 3156 559 3463 722 
L 3463 178 
Q 3153 47 2828 -22 
Q 2503 -91 2169 -91 
Q 1331 -91 842 396 
Q 353 884 353 1716 
Q 353 2575 817 3079 
Q 1281 3584 2069 3584 
Q 2775 3584 3186 3129 
Q 3597 2675 3597 1894 
z
M 3022 2063 
Q 3016 2534 2758 2815 
Q 2500 3097 2075 3097 
Q 1594 3097 1305 2825 
Q 1016 2553 972 2059 
L 3022 2063 
z
" transform="scale(0.015625)"/>
       <path id="DejaVuSans-67" d="M 2906 1791 
Q 2906 2416 2648 2759 
Q 2391 3103 1925 3103 
Q 1463 3103 1205 2759 
Q 947 2416 947 1791 
Q 947 1169 1205 825 
Q 1463 481 1925 481 
Q 2391 481 2648 825 
Q 2906 1169 2906 1791 
z
M 3481 434 
Q 3481 -459 3084 -895 
Q 2688 -1331 1869 -1331 
Q 1566 -1331 1297 -1286 
Q 1028 -1241 775 -1147 
L 775 -588 
Q 1028 -725 1275 -790 
Q 1522 -856 1778 -856 
Q 2344 -856 2625 -561 
Q 2906 -266 2906 331 
L 2906 616 
Q 2728 306 2450 153 
Q 2172 0 1784 0 
Q 1141 0 747 490 
Q 353 981 353 1791 
Q 353 2603 747 3093 
Q 1141 3584 1784 3584 
Q 2172 3584 2450 3431 
Q 2728 3278 2906 2969 
L 2906 3500 
L 3481 3500 
L 3481 434 
z
" transform="scale(0.015625)"/>
       <path id="DejaVuSans-6e" d="M 3513 2113 
L 3513 0 
L 2938 0 
L 2938 2094 
Q 2938 2591 2744 2837 
Q 2550 3084 2163 3084 
Q 1697 3084 1428 2787 
Q 1159 2491 1159 1978 
L 1159 0 
L 581 0 
L 581 3500 
L 1159 3500 
L 1159 2956 
Q 1366 3272 1645 3428 
Q 1925 3584 2291 3584 
Q 2894 3584 3203 3211 
Q 3513 2838 3513 2113 
z
" transform="scale(0.015625)"/>
       <path id="DejaVuSans-61" d="M 2194 1759 
Q 1497 1759 1228 1600 
Q 959 1441 959 1056 
Q 959 750 1161 570 
Q 1363 391 1709 391 
Q 2188 391 2477 730 
Q 2766 1069 2766 1631 
L 2766 1759 
L 2194 1759 
z
M 3341 1997 
L 3341 0 
L 2766 0 
L 2766 531 
Q 2569 213 2275 61 
Q 1981 -91 1556 -91 
Q 1019 -91 701 211 
Q 384 513 384 1019 
Q 384 1609 779 1909 
Q 1175 2209 1959 2209 
L 2766 2209 
L 2766 2266 
Q 2766 2663 2505 2880 
Q 2244 3097 1772 3097 
Q 1472 3097 1187 3025 
Q 903 2953 641 2809 
L 641 3341 
Q 956 3463 1253 3523 
Q 1550 3584 1831 3584 
Q 2591 3584 2966 3190 
Q 3341 2797 3341 1997 
z
" transform="scale(0.015625)"/>
       <path id="DejaVuSans-79" d="M 2059 -325 
Q 1816 -950 1584 -1140 
Q 1353 -1331 966 -1331 
L 506 -1331 
L 506 -850 
L 844 -850 
Q 1081 -850 1212 -737 
Q 1344 -625 1503 -206 
L 1606 56 
L 191 3500 
L 800 3500 
L 1894 763 
L 2988 3500 
L 3597 3500 
L 2059 -325 
z
" transform="scale(0.015625)"/>
       <path id="DejaVuSans-6f" d="M 1959 3097 
Q 1497 3097 1228 2736 
Q 959 2375 959 1747 
Q 959 1119 1226 758 
Q 1494 397 1959 397 
Q 2419 397 2687 759 
Q 2956 1122 2956 1747 
Q 2956 2369 2687 2733 
Q 2419 3097 1959 3097 
z
M 1959 3584 
Q 2709 3584 3137 3096 
Q 3566 2609 3566 1747 
Q 3566 888 3137 398 
Q 2709 -91 1959 -91 
Q 1206 -91 779 398 
Q 353 888 353 1747 
Q 353 2609 779 3096 
Q 1206 3584 1959 3584 
z
" transform="scale(0.015625)"/>
       <path id="DejaVuSans-62" d="M 3116 1747 
Q 3116 2381 2855 2742 
Q 2594 3103 2138 3103 
Q 1681 3103 1420 2742 
Q 1159 2381 1159 1747 
Q 1159 1113 1420 752 
Q 1681 391 2138 391 
Q 2594 391 2855 752 
Q 3116 1113 3116 1747 
z
M 1159 2969 
Q 1341 3281 1617 3432 
Q 1894 3584 2278 3584 
Q 2916 3584 3314 3078 
Q 3713 2572 3713 1747 
Q 3713 922 3314 415 
Q 2916 -91 2278 -91 
Q 1894 -91 1617 61 
Q 1341 213 1159 525 
L 1159 0 
L 581 0 
L 581 4863 
L 1159 4863 
L 1159 2969 
z
" transform="scale(0.015625)"/>
       <path id="DejaVuSans-20" transform="scale(0.015625)"/>
       <path id="DejaVuSans-6b" d="M 581 4863 
L 1159 4863 
L 1159 1991 
L 2875 3500 
L 3609 3500 
L 1753 1863 
L 3688 0 
L 2938 0 
L 1159 1709 
L 1159 0 
L 581 0 
L 581 4863 
z
" transform="scale(0.015625)"/>
       <path id="DejaVuSans-f6" d="M 1959 3097 
Q 1497 3097 1228 2736 
Q 959 2375 959 1747 
Q 959 1119 1226 758 
Q 1494 397 1959 397 
Q 2419 397 2687 759 
Q 2956 1122 2956 1747 
Q 2956 2369 2687 2733 
Q 2419 3097 1959 3097 
z
M 1959 3584 
Q 2709 3584 3137 3096 
Q 3566 2609 3566 1747 
Q 3566 888 3137 398 
Q 2709 -91 1959 -91 
Q 1206 -91 779 398 
Q 353 888 353 1747 
Q 353 2609 779 3096 
Q 1206 3584 1959 3584 
z
M 2254 4850 
L 2888 4850 
L 2888 4219 
L 2254 4219 
L 2254 4850 
z
M 1032 4850 
L 1666 4850 
L 1666 4219 
L 1032 4219 
L 1032 4850 
z
" transform="scale(0.015625)"/>
       <path id="DejaVuSans-7a" d="M 353 3500 
L 3084 3500 
L 3084 2975 
L 922 459 
L 3084 459 
L 3084 0 
L 275 0 
L 275 525 
L 2438 3041 
L 353 3041 
L 353 3500 
z
" transform="scale(0.015625)"/>
       <path id="DejaVuSans-73" d="M 2834 3397 
L 2834 2853 
Q 2591 2978 2328 3040 
Q 2066 3103 1784 3103 
Q 1356 3103 1142 2972 
Q 928 2841 928 2578 
Q 928 2378 1081 2264 
Q 1234 2150 1697 2047 
L 1894 2003 
Q 2506 1872 2764 1633 
Q 3022 1394 3022 966 
Q 3022 478 2636 193 
Q 2250 -91 1575 -91 
Q 1294 -91 989 -36 
Q 684 19 347 128 
L 347 722 
Q 666 556 975 473 
Q 1284 391 1588 391 
Q 1994 391 2212 530 
Q 2431 669 2431 922 
Q 2431 1156 2273 1281 
Q 2116 1406 1581 1522 
L 1381 1569 
Q 847 1681 609 1914 
Q 372 2147 372 2553 
Q 372 3047 722 3315 
Q 1072 3584 1716 3584 
Q 2034 3584 2315 3537 
Q 2597 3491 2834 3397 
z
" transform="scale(0.015625)"/>
       <path id="DejaVuSans-e9" d="M 3597 1894 
L 3597 1613 
L 953 1613 
Q 991 1019 1311 708 
Q 1631 397 2203 397 
Q 2534 397 2845 478 
Q 3156 559 3463 722 
L 3463 178 
Q 3153 47 2828 -22 
Q 2503 -91 2169 -91 
Q 1331 -91 842 396 
Q 353 884 353 1716 
Q 353 2575 817 3079 
Q 1281 3584 2069 3584 
Q 2775 3584 3186 3129 
Q 3597 2675 3597 1894 
z
M 3022 2063 
Q 3016 2534 2758 2815 
Q 2500 3097 2075 3097 
Q 1594 3097 1305 2825 
Q 1016 2553 972 2059 
L 3022 2063 
z
M 2466 5119 
L 3088 5119 
L 2070 3944 
L 1591 3944 
L 2466 5119 
z
" transform="scale(0.015625)"/>
      </defs>
      <use xlink:href="#DejaVuSans-4c"/>
      <use xlink:href="#DejaVuSans-65" x="53.962891"/>
      <use xlink:href="#DejaVuSans-67" x="115.486328"/>
      <use xlink:href="#DejaVuSans-6e" x="178.962891"/>
      <use xlink:href="#DejaVuSans-61" x="242.341797"/>
      <use xlink:href="#DejaVuSans-67" x="303.621094"/>
      <use xlink:href="#DejaVuSans-79" x="367.097656"/>
      <use xlink:href="#DejaVuSans-6f" x="426.277344"/>
      <use xlink:href="#DejaVuSans-62" x="487.458984"/>
      <use xlink:href="#DejaVuSans-62" x="550.935547"/>
      <use xlink:href="#DejaVuSans-20" x="614.412109"/>
      <use xlink:href="#DejaVuSans-6b" x="646.199219"/>
      <use xlink:href="#DejaVuSans-f6" x="700.484375"/>
      <use xlink:href="#DejaVuSans-7a" x="761.666016"/>
      <use xlink:href="#DejaVuSans-f6" x="814.15625"/>
      <use xlink:href="#DejaVuSans-73" x="875.337891"/>
      <use xlink:href="#DejaVuSans-73" x="927.4375"/>
      <use xlink:href="#DejaVuSans-e9" x="979.537109"/>
      <use xlink:href="#DejaVuSans-67" x="1041.060547"/>
     </g>
    </g>
    <g id="line2d_1">
     <path d="M 42.647344 396.376166 
L 53.647344 396.376166 
L 64.647344 396.376166 
" style="fill: none; stroke: #d55e00; stroke-width: 2; stroke-linecap: square"/>
    </g>
    <g id="text_3">
     <!-- 15. kerület határa -->
     <g transform="translate(73.447344 400.226166) scale(0.11 -0.11)">
      <defs>
       <path id="DejaVuSans-31" d="M 794 531 
L 1825 531 
L 1825 4091 
L 703 3866 
L 703 4441 
L 1819 4666 
L 2450 4666 
L 2450 531 
L 3481 531 
L 3481 0 
L 794 0 
L 794 531 
z
" transform="scale(0.015625)"/>
       <path id="DejaVuSans-35" d="M 691 4666 
L 3169 4666 
L 3169 4134 
L 1269 4134 
L 1269 2991 
Q 1406 3038 1543 3061 
Q 1681 3084 1819 3084 
Q 2600 3084 3056 2656 
Q 3513 2228 3513 1497 
Q 3513 744 3044 326 
Q 2575 -91 1722 -91 
Q 1428 -91 1123 -41 
Q 819 9 494 109 
L 494 744 
Q 775 591 1075 516 
Q 1375 441 1709 441 
Q 2250 441 2565 725 
Q 2881 1009 2881 1497 
Q 2881 1984 2565 2268 
Q 2250 2553 1709 2553 
Q 1456 2553 1204 2497 
Q 953 2441 691 2322 
L 691 4666 
z
" transform="scale(0.015625)"/>
       <path id="DejaVuSans-72" d="M 2631 2963 
Q 2534 3019 2420 3045 
Q 2306 3072 2169 3072 
Q 1681 3072 1420 2755 
Q 1159 2438 1159 1844 
L 1159 0 
L 581 0 
L 581 3500 
L 1159 3500 
L 1159 2956 
Q 1341 3275 1631 3429 
Q 1922 3584 2338 3584 
Q 2397 3584 2469 3576 
Q 2541 3569 2628 3553 
L 2631 2963 
z
" transform="scale(0.015625)"/>
       <path id="DejaVuSans-fc" d="M 544 1381 
L 544 3500 
L 1119 3500 
L 1119 1403 
Q 1119 906 1312 657 
Q 1506 409 1894 409 
Q 2359 409 2629 706 
Q 2900 1003 2900 1516 
L 2900 3500 
L 3475 3500 
L 3475 0 
L 2900 0 
L 2900 538 
Q 2691 219 2414 64 
Q 2138 -91 1772 -91 
Q 1169 -91 856 284 
Q 544 659 544 1381 
z
M 1991 3584 
L 1991 3584 
z
M 2278 4850 
L 2912 4850 
L 2912 4219 
L 2278 4219 
L 2278 4850 
z
M 1056 4850 
L 1690 4850 
L 1690 4219 
L 1056 4219 
L 1056 4850 
z
" transform="scale(0.015625)"/>
       <path id="DejaVuSans-6c" d="M 603 4863 
L 1178 4863 
L 1178 0 
L 603 0 
L 603 4863 
z
" transform="scale(0.015625)"/>
       <path id="DejaVuSans-74" d="M 1172 4494 
L 1172 3500 
L 2356 3500 
L 2356 3053 
L 1172 3053 
L 1172 1153 
Q 1172 725 1289 603 
Q 1406 481 1766 481 
L 2356 481 
L 2356 0 
L 1766 0 
Q 1100 0 847 248 
Q 594 497 594 1153 
L 594 3053 
L 172 3053 
L 172 3500 
L 594 3500 
L 594 4494 
L 1172 4494 
z
" transform="scale(0.015625)"/>
       <path id="DejaVuSans-68" d="M 3513 2113 
L 3513 0 
L 2938 0 
L 2938 2094 
Q 2938 2591 2744 2837 
Q 2550 3084 2163 3084 
Q 1697 3084 1428 2787 
Q 1159 2491 1159 1978 
L 1159 0 
L 581 0 
L 581 4863 
L 1159 4863 
L 1159 2956 
Q 1366 3272 1645 3428 
Q 1925 3584 2291 3584 
Q 2894 3584 3203 3211 
Q 3513 2838 3513 2113 
z
" transform="scale(0.015625)"/>
       <path id="DejaVuSans-e1" d="M 2194 1759 
Q 1497 1759 1228 1600 
Q 959 1441 959 1056 
Q 959 750 1161 570 
Q 1363 391 1709 391 
Q 2188 391 2477 730 
Q 2766 1069 2766 1631 
L 2766 1759 
L 2194 1759 
z
M 3341 1997 
L 3341 0 
L 2766 0 
L 2766 531 
Q 2569 213 2275 61 
Q 1981 -91 1556 -91 
Q 1019 -91 701 211 
Q 384 513 384 1019 
Q 384 1609 779 1909 
Q 1175 2209 1959 2209 
L 2766 2209 
L 2766 2266 
Q 2766 2663 2505 2880 
Q 2244 3097 1772 3097 
Q 1472 3097 1187 3025 
Q 903 2953 641 2809 
L 641 3341 
Q 956 3463 1253 3523 
Q 1550 3584 1831 3584 
Q 2591 3584 2966 3190 
Q 3341 2797 3341 1997 
z
M 2290 5119 
L 2912 5119 
L 1894 3944 
L 1415 3944 
L 2290 5119 
z
" transform="scale(0.015625)"/>
      </defs>
      <use xlink:href="#DejaVuSans-31"/>
      <use xlink:href="#DejaVuSans-35" x="63.623047"/>
      <use xlink:href="#DejaVuSans-2e" x="127.246094"/>
      <use xlink:href="#DejaVuSans-20" x="159.033203"/>
      <use xlink:href="#DejaVuSans-6b" x="190.820312"/>
      <use xlink:href="#DejaVuSans-65" x="245.105469"/>
      <use xlink:href="#DejaVuSans-72" x="306.628906"/>
      <use xlink:href="#DejaVuSans-fc" x="347.742188"/>
      <use xlink:href="#DejaVuSans-6c" x="411.121094"/>
      <use xlink:href="#DejaVuSans-65" x="438.904297"/>
      <use xlink:href="#DejaVuSans-74" x="500.427734"/>
      <use xlink:href="#DejaVuSans-20" x="539.636719"/>
      <use xlink:href="#DejaVuSans-68" x="571.423828"/>
      <use xlink:href="#DejaVuSans-61" x="634.802734"/>
      <use xlink:href="#DejaVuSans-74" x="696.082031"/>
      <use xlink:href="#DejaVuSans-e1" x="735.291016"/>
      <use xlink:href="#DejaVuSans-72" x="796.570312"/>
      <use xlink:href="#DejaVuSans-61" x="837.683594"/>
     </g>
    </g>
    <g id="line2d_2">
     <path d="M 42.647344 412.962104 
L 53.647344 412.962104 
L 64.647344 412.962104 
" style="fill: none; stroke: #2d2d2d; stroke-width: 2; stroke-linecap: square"/>
    </g>
    <g id="text_4">
     <!-- M3-as autópálya -->
     <g transform="translate(73.447344 416.812104) scale(0.11 -0.11)">
      <defs>
       <path id="DejaVuSans-4d" d="M 628 4666 
L 1569 4666 
L 2759 1491 
L 3956 4666 
L 4897 4666 
L 4897 0 
L 4281 0 
L 4281 4097 
L 3078 897 
L 2444 897 
L 1241 4097 
L 1241 0 
L 628 0 
L 628 4666 
z
" transform="scale(0.015625)"/>
       <path id="DejaVuSans-33" d="M 2597 2516 
Q 3050 2419 3304 2112 
Q 3559 1806 3559 1356 
Q 3559 666 3084 287 
Q 2609 -91 1734 -91 
Q 1441 -91 1130 -33 
Q 819 25 488 141 
L 488 750 
Q 750 597 1062 519 
Q 1375 441 1716 441 
Q 2309 441 2620 675 
Q 2931 909 2931 1356 
Q 2931 1769 2642 2001 
Q 2353 2234 1838 2234 
L 1294 2234 
L 1294 2753 
L 1863 2753 
Q 2328 2753 2575 2939 
Q 2822 3125 2822 3475 
Q 2822 3834 2567 4026 
Q 2313 4219 1838 4219 
Q 1578 4219 1281 4162 
Q 984 4106 628 3988 
L 628 4550 
Q 988 4650 1302 4700 
Q 1616 4750 1894 4750 
Q 2613 4750 3031 4423 
Q 3450 4097 3450 3541 
Q 3450 3153 3228 2886 
Q 3006 2619 2597 2516 
z
" transform="scale(0.015625)"/>
       <path id="DejaVuSans-2d" d="M 313 2009 
L 1997 2009 
L 1997 1497 
L 313 1497 
L 313 2009 
z
" transform="scale(0.015625)"/>
       <path id="DejaVuSans-75" d="M 544 1381 
L 544 3500 
L 1119 3500 
L 1119 1403 
Q 1119 906 1312 657 
Q 1506 409 1894 409 
Q 2359 409 2629 706 
Q 2900 1003 2900 1516 
L 2900 3500 
L 3475 3500 
L 3475 0 
L 2900 0 
L 2900 538 
Q 2691 219 2414 64 
Q 2138 -91 1772 -91 
Q 1169 -91 856 284 
Q 544 659 544 1381 
z
M 1991 3584 
L 1991 3584 
z
" transform="scale(0.015625)"/>
       <path id="DejaVuSans-f3" d="M 1959 3097 
Q 1497 3097 1228 2736 
Q 959 2375 959 1747 
Q 959 1119 1226 758 
Q 1494 397 1959 397 
Q 2419 397 2687 759 
Q 2956 1122 2956 1747 
Q 2956 2369 2687 2733 
Q 2419 3097 1959 3097 
z
M 1959 3584 
Q 2709 3584 3137 3096 
Q 3566 2609 3566 1747 
Q 3566 888 3137 398 
Q 2709 -91 1959 -91 
Q 1206 -91 779 398 
Q 353 888 353 1747 
Q 353 2609 779 3096 
Q 1206 3584 1959 3584 
z
M 2394 5119 
L 3016 5119 
L 1998 3944 
L 1519 3944 
L 2394 5119 
z
" transform="scale(0.015625)"/>
       <path id="DejaVuSans-70" d="M 1159 525 
L 1159 -1331 
L 581 -1331 
L 581 3500 
L 1159 3500 
L 1159 2969 
Q 1341 3281 1617 3432 
Q 1894 3584 2278 3584 
Q 2916 3584 3314 3078 
Q 3713 2572 3713 1747 
Q 3713 922 3314 415 
Q 2916 -91 2278 -91 
Q 1894 -91 1617 61 
Q 1341 213 1159 525 
z
M 3116 1747 
Q 3116 2381 2855 2742 
Q 2594 3103 2138 3103 
Q 1681 3103 1420 2742 
Q 1159 2381 1159 1747 
Q 1159 1113 1420 752 
Q 1681 391 2138 391 
Q 2594 391 2855 752 
Q 3116 1113 3116 1747 
z
" transform="scale(0.015625)"/>
      </defs>
      <use xlink:href="#DejaVuSans-4d"/>
      <use xlink:href="#DejaVuSans-33" x="86.279297"/>
      <use xlink:href="#DejaVuSans-2d" x="149.902344"/>
      <use xlink:href="#DejaVuSans-61" x="185.986328"/>
      <use xlink:href="#DejaVuSans-73" x="247.265625"/>
      <use xlink:href="#DejaVuSans-20" x="299.365234"/>
      <use xlink:href="#DejaVuSans-61" x="331.152344"/>
      <use xlink:href="#DejaVuSans-75" x="392.431641"/>
      <use xlink:href="#DejaVuSans-74" x="455.810547"/>
      <use xlink:href="#DejaVuSans-f3" x="495.019531"/>
      <use xlink:href="#DejaVuSans-70" x="556.201172"/>
      <use xlink:href="#DejaVuSans-e1" x="619.677734"/>
      <use xlink:href="#DejaVuSans-6c" x="680.957031"/>
      <use xlink:href="#DejaVuSans-79" x="708.740234"/>
      <use xlink:href="#DejaVuSans-61" x="767.919922"/>
     </g>
    </g>
   </g>
  </g>
  <g id="axes_2">
   <g id="patch_5">
    <path d="M 132.036084 94.40024 
L 229.236084 94.40024 
L 229.236084 8.00024 
L 132.036084 8.00024 
z
" style="fill: #ffffff"/>
   </g>
   <g id="PolyCollection_1"/>
   <g id="PolyCollection_2"/>
   <g id="PolyCollection_3"/>
   <g id="PolyCollection_4"/>
   <g id="PolyCollection_5"/>
   <g id="PolyCollection_6"/>
   <g id="PolyCollection_7"/>
   <g id="PolyCollection_8"/>
   <g id="PolyCollection_9"/>
   <g id="PolyCollection_10"/>
   <g id="matplotlib.axis_1">
    <g id="text_5">
     <!-- felbontás -->
     <g transform="translate(152.727646 107.518365) scale(0.12 -0.12)">
      <defs>
       <path id="DejaVuSans-66" d="M 2375 4863 
L 2375 4384 
L 1825 4384 
Q 1516 4384 1395 4259 
Q 1275 4134 1275 3809 
L 1275 3500 
L 2222 3500 
L 2222 3053 
L 1275 3053 
L 1275 0 
L 697 0 
L 697 3053 
L 147 3053 
L 147 3500 
L 697 3500 
L 697 3744 
Q 697 4328 969 4595 
Q 1241 4863 1831 4863 
L 2375 4863 
z
" transform="scale(0.015625)"/>
      </defs>
      <use xlink:href="#DejaVuSans-66"/>
      <use xlink:href="#DejaVuSans-65" x="35.205078"/>
      <use xlink:href="#DejaVuSans-6c" x="96.728516"/>
      <use xlink:href="#DejaVuSans-62" x="124.511719"/>
      <use xlink:href="#DejaVuSans-6f" x="187.988281"/>
      <use xlink:href="#DejaVuSans-6e" x="249.169922"/>
      <use xlink:href="#DejaVuSans-74" x="312.548828"/>
      <use xlink:href="#DejaVuSans-e1" x="351.757812"/>
      <use xlink:href="#DejaVuSans-73" x="413.037109"/>
     </g>
    </g>
   </g>
   <g id="matplotlib.axis_2">
    <g id="text_6">
     <!-- SAD ($km^2$) -->
     <g transform="translate(125.540459 82.76024) rotate(-90) scale(0.12 -0.12)">
      <defs>
       <path id="DejaVuSans-53" d="M 3425 4513 
L 3425 3897 
Q 3066 4069 2747 4153 
Q 2428 4238 2131 4238 
Q 1616 4238 1336 4038 
Q 1056 3838 1056 3469 
Q 1056 3159 1242 3001 
Q 1428 2844 1947 2747 
L 2328 2669 
Q 3034 2534 3370 2195 
Q 3706 1856 3706 1288 
Q 3706 609 3251 259 
Q 2797 -91 1919 -91 
Q 1588 -91 1214 -16 
Q 841 59 441 206 
L 441 856 
Q 825 641 1194 531 
Q 1563 422 1919 422 
Q 2459 422 2753 634 
Q 3047 847 3047 1241 
Q 3047 1584 2836 1778 
Q 2625 1972 2144 2069 
L 1759 2144 
Q 1053 2284 737 2584 
Q 422 2884 422 3419 
Q 422 4038 858 4394 
Q 1294 4750 2059 4750 
Q 2388 4750 2728 4690 
Q 3069 4631 3425 4513 
z
" transform="scale(0.015625)"/>
       <path id="DejaVuSans-41" d="M 2188 4044 
L 1331 1722 
L 3047 1722 
L 2188 4044 
z
M 1831 4666 
L 2547 4666 
L 4325 0 
L 3669 0 
L 3244 1197 
L 1141 1197 
L 716 0 
L 50 0 
L 1831 4666 
z
" transform="scale(0.015625)"/>
       <path id="DejaVuSans-44" d="M 1259 4147 
L 1259 519 
L 2022 519 
Q 2988 519 3436 956 
Q 3884 1394 3884 2338 
Q 3884 3275 3436 3711 
Q 2988 4147 2022 4147 
L 1259 4147 
z
M 628 4666 
L 1925 4666 
Q 3281 4666 3915 4102 
Q 4550 3538 4550 2338 
Q 4550 1131 3912 565 
Q 3275 0 1925 0 
L 628 0 
L 628 4666 
z
" transform="scale(0.015625)"/>
       <path id="DejaVuSans-28" d="M 1984 4856 
Q 1566 4138 1362 3434 
Q 1159 2731 1159 2009 
Q 1159 1288 1364 580 
Q 1569 -128 1984 -844 
L 1484 -844 
Q 1016 -109 783 600 
Q 550 1309 550 2009 
Q 550 2706 781 3412 
Q 1013 4119 1484 4856 
L 1984 4856 
z
" transform="scale(0.015625)"/>
       <path id="DejaVuSans-Oblique-6b" d="M 1172 4863 
L 1747 4863 
L 1197 2028 
L 3169 3500 
L 3916 3500 
L 1716 1825 
L 3322 0 
L 2625 0 
L 1131 1709 
L 800 0 
L 225 0 
L 1172 4863 
z
" transform="scale(0.015625)"/>
       <path id="DejaVuSans-Oblique-6d" d="M 5747 2113 
L 5338 0 
L 4763 0 
L 5166 2094 
Q 5191 2228 5203 2325 
Q 5216 2422 5216 2491 
Q 5216 2772 5059 2928 
Q 4903 3084 4622 3084 
Q 4203 3084 3875 2770 
Q 3547 2456 3450 1953 
L 3066 0 
L 2491 0 
L 2900 2094 
Q 2925 2209 2937 2307 
Q 2950 2406 2950 2484 
Q 2950 2769 2794 2926 
Q 2638 3084 2363 3084 
Q 1938 3084 1609 2770 
Q 1281 2456 1184 1953 
L 800 0 
L 225 0 
L 909 3500 
L 1484 3500 
L 1375 2956 
Q 1609 3263 1923 3423 
Q 2238 3584 2597 3584 
Q 2978 3584 3223 3384 
Q 3469 3184 3519 2828 
Q 3781 3197 4126 3390 
Q 4472 3584 4856 3584 
Q 5306 3584 5551 3325 
Q 5797 3066 5797 2591 
Q 5797 2488 5784 2364 
Q 5772 2241 5747 2113 
z
" transform="scale(0.015625)"/>
       <path id="DejaVuSans-32" d="M 1228 531 
L 3431 531 
L 3431 0 
L 469 0 
L 469 531 
Q 828 903 1448 1529 
Q 2069 2156 2228 2338 
Q 2531 2678 2651 2914 
Q 2772 3150 2772 3378 
Q 2772 3750 2511 3984 
Q 2250 4219 1831 4219 
Q 1534 4219 1204 4116 
Q 875 4013 500 3803 
L 500 4441 
Q 881 4594 1212 4672 
Q 1544 4750 1819 4750 
Q 2544 4750 2975 4387 
Q 3406 4025 3406 3419 
Q 3406 3131 3298 2873 
Q 3191 2616 2906 2266 
Q 2828 2175 2409 1742 
Q 1991 1309 1228 531 
z
" transform="scale(0.015625)"/>
       <path id="DejaVuSans-29" d="M 513 4856 
L 1013 4856 
Q 1481 4119 1714 3412 
Q 1947 2706 1947 2009 
Q 1947 1309 1714 600 
Q 1481 -109 1013 -844 
L 513 -844 
Q 928 -128 1133 580 
Q 1338 1288 1338 2009 
Q 1338 2731 1133 3434 
Q 928 4138 513 4856 
z
" transform="scale(0.015625)"/>
      </defs>
      <use xlink:href="#DejaVuSans-53" transform="translate(0 0.765625)"/>
      <use xlink:href="#DejaVuSans-41" transform="translate(63.476562 0.765625)"/>
      <use xlink:href="#DejaVuSans-44" transform="translate(131.884766 0.765625)"/>
      <use xlink:href="#DejaVuSans-20" transform="translate(208.886719 0.765625)"/>
      <use xlink:href="#DejaVuSans-28" transform="translate(240.673828 0.765625)"/>
      <use xlink:href="#DejaVuSans-Oblique-6b" transform="translate(279.6875 0.765625)"/>
      <use xlink:href="#DejaVuSans-Oblique-6d" transform="translate(337.597656 0.765625)"/>
      <use xlink:href="#DejaVuSans-32" transform="translate(439.659661 39.046875) scale(0.7)"/>
      <use xlink:href="#DejaVuSans-29" transform="translate(486.930169 0.765625)"/>
     </g>
    </g>
   </g>
   <g id="line2d_3">
    <path d="M 134.663111 12.373899 
L 139.917165 21.118488 
L 145.171219 75.350707 
L 150.425273 90.980922 
L 155.679327 90.563777 
L 160.933381 80.877579 
L 166.187435 89.707811 
L 171.441489 88.791364 
L 176.695543 89.050261 
L 181.949597 88.348451 
L 187.203651 74.237512 
L 192.457705 72.789781 
L 197.71176 72.659423 
L 202.965814 72.599701 
L 208.219868 71.994598 
L 213.473922 71.178497 
L 218.727976 70.897924 
L 223.98203 70.271297 
L 229.236084 70.219912 
" clip-path="url(#pdfe734311b)" style="fill: none; stroke: #a5cd90; stroke-width: 1.5; stroke-linecap: square"/>
   </g>
   <g id="line2d_4">
    <path d="M 134.663111 12.772552 
L 139.917165 20.344678 
L 145.171219 71.859086 
L 150.425273 90.049015 
L 155.679327 75.846371 
L 160.933381 90.042497 
L 166.187435 90.865571 
L 171.441489 89.156366 
L 176.695543 89.034952 
L 181.949597 88.339811 
L 187.203651 72.826615 
L 192.457705 79.589006 
L 197.71176 72.684737 
L 202.965814 72.554985 
L 208.219868 71.610042 
L 213.473922 70.98872 
L 218.727976 70.328139 
L 223.98203 70.226884 
L 229.236084 70.131996 
" clip-path="url(#pdfe734311b)" style="fill: none; stroke: #86be91; stroke-width: 1.5; stroke-linecap: square"/>
   </g>
   <g id="line2d_5">
    <path d="M 134.663111 12.847128 
L 139.917165 22.185907 
L 145.171219 71.224728 
L 150.425273 74.617217 
L 155.679327 91.405343 
L 160.933381 90.556804 
L 166.187435 90.363693 
L 171.441489 88.822286 
L 176.695543 88.861848 
L 181.949597 89.103465 
L 187.203651 85.214859 
L 192.457705 74.232055 
L 197.71176 72.31352 
L 202.965814 72.286842 
L 208.219868 71.044198 
L 213.473922 71.308855 
L 218.727976 70.319347 
L 223.98203 70.641756 
L 229.236084 70.180501 
" clip-path="url(#pdfe734311b)" style="fill: none; stroke: #68af90; stroke-width: 1.5; stroke-linecap: square"/>
   </g>
   <g id="line2d_6">
    <path d="M 134.663111 9.488291 
L 139.917165 53.536678 
L 145.171219 71.753587 
L 150.425273 87.414724 
L 155.679327 78.847634 
L 160.933381 90.967432 
L 166.187435 90.561503 
L 171.441489 89.973074 
L 176.695543 88.686623 
L 181.949597 88.556568 
L 187.203651 86.441587 
L 192.457705 86.071886 
L 197.71176 79.161705 
L 202.965814 71.721301 
L 208.219868 71.443154 
L 213.473922 70.461983 
L 218.727976 70.922177 
L 223.98203 70.180501 
L 229.236084 69.761234 
" clip-path="url(#pdfe734311b)" style="fill: none; stroke: #509e90; stroke-width: 1.5; stroke-linecap: square"/>
   </g>
   <g id="line2d_7">
    <path d="M 134.663111 13.723709 
L 139.917165 22.260181 
L 145.171219 76.933798 
L 150.425273 90.843137 
L 155.679327 80.954126 
L 160.933381 89.996114 
L 166.187435 90.083726 
L 171.441489 89.25944 
L 176.695543 89.757983 
L 181.949597 89.416779 
L 187.203651 72.805242 
L 192.457705 74.059406 
L 197.71176 72.762194 
L 202.965814 71.873941 
L 208.219868 71.416627 
L 213.473922 71.27672 
L 218.727976 70.217032 
L 223.98203 70.314042 
L 229.236084 70.546867 
" clip-path="url(#pdfe734311b)" style="fill: none; stroke: #3d8e8e; stroke-width: 1.5; stroke-linecap: square"/>
   </g>
   <g id="line2d_8">
    <path d="M 134.663111 12.898968 
L 139.917165 20.760004 
L 145.171219 75.432863 
L 150.425273 91.070505 
L 155.679327 89.916838 
L 160.933381 91.699558 
L 166.187435 90.785385 
L 171.441489 88.835322 
L 176.695543 88.676164 
L 181.949597 88.324804 
L 187.203651 87.104291 
L 192.457705 86.547389 
L 197.71176 73.047011 
L 202.965814 72.262589 
L 208.219868 70.714362 
L 213.473922 70.9916 
L 218.727976 70.815768 
L 223.98203 70.328139 
L 229.236084 70.129116 
" clip-path="url(#pdfe734311b)" style="fill: none; stroke: #2a7d8c; stroke-width: 1.5; stroke-linecap: square"/>
   </g>
   <g id="line2d_9">
    <path d="M 134.663111 27.273655 
L 139.917165 20.601907 
L 145.171219 73.956939 
L 150.425273 67.289587 
L 155.679327 90.487533 
L 160.933381 91.577082 
L 166.187435 90.014606 
L 171.441489 88.708299 
L 176.695543 88.778177 
L 181.949597 88.575516 
L 187.203651 85.683086 
L 192.457705 73.165394 
L 197.71176 72.817672 
L 202.965814 72.386884 
L 208.219868 71.565175 
L 213.473922 71.019339 
L 218.727976 70.219912 
L 223.98203 70.131996 
L 229.236084 69.693781 
" clip-path="url(#pdfe734311b)" style="fill: none; stroke: #1d6c8a; stroke-width: 1.5; stroke-linecap: square"/>
   </g>
   <g id="line2d_10">
    <path d="M 134.663111 12.929133 
L 139.917165 21.958236 
L 145.171219 82.506598 
L 150.425273 70.661006 
L 155.679327 90.788265 
L 160.933381 90.060232 
L 166.187435 89.890918 
L 171.441489 88.839112 
L 176.695543 89.090429 
L 181.949597 88.630691 
L 187.203651 72.881335 
L 192.457705 74.046067 
L 197.71176 85.91288 
L 202.965814 72.084181 
L 208.219868 71.805579 
L 213.473922 71.044653 
L 218.727976 70.271297 
L 223.98203 70.307373 
L 229.236084 70.154581 
" clip-path="url(#pdfe734311b)" style="fill: none; stroke: #1f5985; stroke-width: 1.5; stroke-linecap: square"/>
   </g>
   <g id="line2d_11">
    <path d="M 134.663111 14.444164 
L 139.917165 54.427507 
L 145.171219 76.184998 
L 150.425273 91.014724 
L 155.679327 78.490362 
L 160.933381 91.501141 
L 166.187435 90.992745 
L 171.441489 88.917023 
L 176.695543 88.655549 
L 181.949597 88.100467 
L 187.203651 85.529082 
L 192.457705 73.757461 
L 197.71176 72.956518 
L 202.965814 71.739339 
L 208.219868 71.408291 
L 213.473922 70.9916 
L 218.727976 71.189107 
L 223.98203 70.131996 
L 229.236084 69.692417 
" clip-path="url(#pdfe734311b)" style="fill: none; stroke: #27457c; stroke-width: 1.5; stroke-linecap: square"/>
   </g>
   <g id="line2d_12">
    <path d="M 134.663111 9.478135 
L 139.917165 21.756787 
L 145.171219 76.332939 
L 150.425273 82.906008 
L 155.679327 90.554985 
L 160.933381 90.338682 
L 166.187435 90.415684 
L 171.441489 89.155002 
L 176.695543 88.786059 
L 181.949597 87.540232 
L 187.203651 74.09912 
L 192.457705 72.845411 
L 197.71176 72.715659 
L 202.965814 71.655971 
L 208.219868 71.083305 
L 213.473922 69.598589 
L 218.727976 70.358152 
L 223.98203 70.219912 
L 229.236084 70.546867 
" clip-path="url(#pdfe734311b)" style="fill: none; stroke: #2c3172; stroke-width: 1.5; stroke-linecap: square"/>
   </g>
   <g id="line2d_13">
    <path d="M 132.036084 53.395103 
L 229.236084 53.395103 
" clip-path="url(#pdfe734311b)" style="fill: none; stroke-dasharray: 1,1.65; stroke-dashoffset: 0; stroke: #2d2d2d"/>
   </g>
   <g id="line2d_14">
    <path d="M 187.203651 94.40024 
L 187.203651 8.00024 
" clip-path="url(#pdfe734311b)" style="fill: none; stroke: #ff4500; stroke-width: 2; stroke-linecap: square"/>
   </g>
   <g id="patch_6">
    <path d="M 132.036084 94.40024 
L 132.036084 8.00024 
" style="fill: none; stroke: #000000; stroke-width: 0.8; stroke-linejoin: miter; stroke-linecap: square"/>
   </g>
   <g id="patch_7">
    <path d="M 229.236084 94.40024 
L 229.236084 8.00024 
" style="fill: none; stroke: #000000; stroke-width: 0.8; stroke-linejoin: miter; stroke-linecap: square"/>
   </g>
   <g id="patch_8">
    <path d="M 132.036084 94.40024 
L 229.236084 94.40024 
" style="fill: none; stroke: #000000; stroke-width: 0.8; stroke-linejoin: miter; stroke-linecap: square"/>
   </g>
   <g id="patch_9">
    <path d="M 132.036084 8.00024 
L 229.236084 8.00024 
" style="fill: none; stroke: #000000; stroke-width: 0.8; stroke-linejoin: miter; stroke-linecap: square"/>
   </g>
  </g>
 </g>
 <defs>
  <clipPath id="pb765ebf225">
   <rect x="3.363916" y="3.00024" width="230.872168" height="425.99952"/>
  </clipPath>
  <clipPath id="pdfe734311b">
   <rect x="132.036084" y="8.00024" width="97.2" height="86.4"/>
  </clipPath>
 </defs>
</svg>
