<?xml version="1.0" encoding="utf-8" standalone="no"?>
<!DOCTYPE svg PUBLIC "-//W3C//DTD SVG 1.1//EN"
  "http://www.w3.org/Graphics/SVG/1.1/DTD/svg11.dtd">
<svg xmlns:xlink="http://www.w3.org/1999/xlink" width="237.6pt" height="432pt" viewBox="0 0 237.6 432" xmlns="http://www.w3.org/2000/svg" version="1.1">
 <metadata>
  <rdf:RDF xmlns:dc="http://purl.org/dc/elements/1.1/" xmlns:cc="http://creativecommons.org/ns#" xmlns:rdf="http://www.w3.org/1999/02/22-rdf-syntax-ns#">
   <cc:Work>
    <dc:type rdf:resource="http://purl.org/dc/dcmitype/StillImage"/>
    <dc:date>2024-09-24T16:41:42.590050</dc:date>
    <dc:format>image/svg+xml</dc:format>
    <dc:creator>
     <cc:Agent>
      <dc:title>Matplotlib v3.9.2, https://matplotlib.org/</dc:title>
     </cc:Agent>
    </dc:creator>
   </cc:Work>
  </rdf:RDF>
 </metadata>
 <defs>
  <style type="text/css">*{stroke-linejoin: round; stroke-linecap: butt}</style>
 </defs>
 <g id="figure_1">
  <g id="patch_1">
   <path d="M 0 432 
L 237.6 432 
L 237.6 0 
L 0 0 
z
" style="fill: #ffffff"/>
  </g>
  <g id="axes_1">
   <g id="PatchCollection_1">
    <path d="M 18.249943 428.99976 
L 10.726131 428.868908 
L 5.435468 428.331104 
L 4.407532 425.571231 
L 3.809859 422.064493 
L 3.565634 414.27828 
L 3.506659 362.092038 
L 3.423762 223.029761 
L 3.363916 103.176807 
L 3.411123 86.647844 
L 3.608096 79.679265 
L 4.257614 69.281451 
L 5.923213 67.386311 
L 6.432324 66.807204 
L 9.471969 63.290848 
L 18.194591 53.198965 
L 25.414552 43.315121 
L 28.900194 36.668982 
L 29.718489 34.664288 
L 33.593152 27.194409 
L 36.658121 10.682352 
L 37.247683 7.178206 
L 38.059379 5.012068 
L 45.50785 3.65723 
L 68.029227 3.159621 
L 173.506986 3.049685 
L 231.808243 3.00024 
L 232.71936 6.069594 
L 233.424167 15.790752 
L 233.652449 66.541738 
L 234.236084 397.933348 
L 234.176173 422.490789 
L 232.668163 425.916166 
L 230.564206 427.372187 
L 226.642179 428.082 
L 223.552449 428.624551 
L 162.702847 428.823042 
L 109.612814 428.942426 
L 69.250119 428.988341 
L 18.249943 428.99976 
" clip-path="url(#pbe17160ba7)" style="fill: #eee8aa; fill-opacity: 0.211765"/>
    <path d="M 7.157367 40.959797 
L 8.952921 25.22356 
L 12.541161 16.305858 
L 19.018485 8.475509 
L 24.145981 7.542844 
L 23.424931 9.567475 
L 20.885281 16.952882 
L 18.485405 22.112609 
L 10.26127 36.44125 
L 9.756381 37.183288 
L 8.988001 38.259386 
L 7.683335 40.311577 
L 7.157367 40.959797 
" clip-path="url(#pbe17160ba7)" style="fill: #eee8aa; fill-opacity: 0.211765"/>
   </g>
   <g id="text_1">
    <g id="patch_2">
     <path d="M 13.161618 35.865976 
L 60.901618 35.865976 
Q 65.101618 35.865976 65.101618 31.665976 
L 65.101618 18.116601 
Q 65.101618 13.916601 60.901618 13.916601 
L 13.161618 13.916601 
Q 8.961618 13.916601 8.961618 18.116601 
L 8.961618 31.665976 
Q 8.961618 35.865976 13.161618 35.865976 
z
" style="fill: #ffffff; stroke: #2d2d2d; stroke-linejoin: miter"/>
    </g>
    <!-- $\gamma = 8.0$ -->
    <g transform="translate(13.161618 28.725976) scale(0.14 -0.14)">
     <defs>
      <path id="DejaVuSans-Oblique-3b3" d="M 1491 2950 
L 1838 788 
L 3456 3500 
L 4066 3500 
L 1972 0 
L 1713 -1331 
L 1138 -1331 
L 1397 0 
L 988 2613 
Q 925 3006 628 3006 
L 475 3006 
L 569 3500 
L 788 3500 
Q 1403 3500 1491 2950 
z
" transform="scale(0.015625)"/>
      <path id="DejaVuSans-3d" d="M 678 2906 
L 4684 2906 
L 4684 2381 
L 678 2381 
L 678 2906 
z
M 678 1631 
L 4684 1631 
L 4684 1100 
L 678 1100 
L 678 1631 
z
" transform="scale(0.015625)"/>
      <path id="DejaVuSans-38" d="M 2034 2216 
Q 1584 2216 1326 1975 
Q 1069 1734 1069 1313 
Q 1069 891 1326 650 
Q 1584 409 2034 409 
Q 2484 409 2743 651 
Q 3003 894 3003 1313 
Q 3003 1734 2745 1975 
Q 2488 2216 2034 2216 
z
M 1403 2484 
Q 997 2584 770 2862 
Q 544 3141 544 3541 
Q 544 4100 942 4425 
Q 1341 4750 2034 4750 
Q 2731 4750 3128 4425 
Q 3525 4100 3525 3541 
Q 3525 3141 3298 2862 
Q 3072 2584 2669 2484 
Q 3125 2378 3379 2068 
Q 3634 1759 3634 1313 
Q 3634 634 3220 271 
Q 2806 -91 2034 -91 
Q 1263 -91 848 271 
Q 434 634 434 1313 
Q 434 1759 690 2068 
Q 947 2378 1403 2484 
z
M 1172 3481 
Q 1172 3119 1398 2916 
Q 1625 2713 2034 2713 
Q 2441 2713 2670 2916 
Q 2900 3119 2900 3481 
Q 2900 3844 2670 4047 
Q 2441 4250 2034 4250 
Q 1625 4250 1398 4047 
Q 1172 3844 1172 3481 
z
" transform="scale(0.015625)"/>
      <path id="DejaVuSans-2e" d="M 684 794 
L 1344 794 
L 1344 0 
L 684 0 
L 684 794 
z
" transform="scale(0.015625)"/>
      <path id="DejaVuSans-30" d="M 2034 4250 
Q 1547 4250 1301 3770 
Q 1056 3291 1056 2328 
Q 1056 1369 1301 889 
Q 1547 409 2034 409 
Q 2525 409 2770 889 
Q 3016 1369 3016 2328 
Q 3016 3291 2770 3770 
Q 2525 4250 2034 4250 
z
M 2034 4750 
Q 2819 4750 3233 4129 
Q 3647 3509 3647 2328 
Q 3647 1150 3233 529 
Q 2819 -91 2034 -91 
Q 1250 -91 836 529 
Q 422 1150 422 2328 
Q 422 3509 836 4129 
Q 1250 4750 2034 4750 
z
" transform="scale(0.015625)"/>
     </defs>
     <use xlink:href="#DejaVuSans-Oblique-3b3" transform="translate(0 0.78125)"/>
     <use xlink:href="#DejaVuSans-3d" transform="translate(78.662109 0.78125)"/>
     <use xlink:href="#DejaVuSans-38" transform="translate(181.933594 0.78125)"/>
     <use xlink:href="#DejaVuSans-2e" transform="translate(245.556641 0.78125)"/>
     <use xlink:href="#DejaVuSans-30" transform="translate(277.34375 0.78125)"/>
    </g>
   </g>
   <g id="PatchCollection_2">
    <path d="M 127.585807 345.681004 
L 124.950207 344.493028 
L 118.800662 341.767652 
L 103.724131 334.882916 
L 95.153191 330.617843 
L 91.85331 329.149814 
L 85.206284 326.248661 
L 84.9214 326.108805 
L 81.574641 325.061072 
L 63.512257 319.367224 
L 61.256742 317.792604 
L 56.294174 313.662657 
L 45.610028 304.84239 
L 38.13121 297.981125 
L 26.119572 288.10964 
L 27.351314 285.410998 
L 28.392594 281.801541 
L 28.818464 280.189576 
L 30.190695 275.038279 
L 34.212254 259.864676 
L 44.452416 221.211804 
L 45.468979 217.21685 
L 45.799947 215.92024 
L 46.083594 214.763813 
L 44.447145 214.554897 
L 51.117989 194.543701 
L 51.543897 193.457218 
L 51.662047 192.966609 
L 51.756456 192.440984 
L 51.99287 191.599912 
L 52.465895 190.163023 
L 52.584129 189.777523 
L 52.938738 188.515914 
L 53.458256 185.992852 
L 53.670708 184.871506 
L 54.261603 182.663709 
L 54.923524 180.350741 
L 55.396171 178.528441 
L 56.673092 174.568225 
L 56.791367 174.252795 
L 57.335196 172.535538 
L 58.658903 167.944609 
L 60.1239 162.337484 
L 64.045571 146.987986 
L 65.69905 140.469685 
L 66.761671 135.984031 
L 67.848715 132.339226 
L 68.320239 129.570897 
L 69.430691 125.680802 
L 70.090881 121.931265 
L 70.962592 116.289546 
L 70.854126 101.679338 
L 71.276683 97.369423 
L 72.126786 94.110206 
L 73.332335 90.850648 
L 73.781471 89.658971 
L 74.06525 89.028039 
L 74.349059 88.432143 
L 75.129283 86.539411 
L 76.481311 87.834472 
L 84.542696 91.855743 
L 85.823733 93.150807 
L 91.154618 91.883991 
L 93.761418 91.846213 
L 104.422816 89.206861 
L 109.82291 86.502922 
L 115.192773 98.549344 
L 109.863464 101.218319 
L 147.169658 138.485908 
L 143.192644 142.520434 
L 137.039348 150.271577 
L 127.097972 162.511919 
L 141.816043 177.208458 
L 156.528442 169.200161 
L 178.779094 192.81739 
L 195.99915 210.974392 
L 192.563387 212.696675 
L 181.046643 218.110249 
L 179.69576 218.672891 
L 168.912884 223.699189 
L 164.57872 227.699627 
L 189.82477 250.540287 
L 211.27107 267.182523 
L 203.170629 274.553661 
L 196.513418 279.925054 
L 181.849546 293.261865 
L 166.617492 308.910707 
L 161.761337 314.348285 
L 144.014583 333.011903 
L 127.585807 345.681004 
" clip-path="url(#pbe17160ba7)" style="fill: none; stroke: #d55e00; stroke-width: 2"/>
   </g>
   <g id="PatchCollection_3">
    <path d="M 62.488877 318.558803 
L 61.895523 318.104211 
L 60.79964 317.12592 
L 57.393627 314.15327 
L 57.068324 313.869757 
L 56.405182 313.345836 
L 58.188842 311.555007 
L 66.932977 315.364064 
L 68.354306 312.350709 
L 68.510361 312.020174 
L 69.70697 309.539914 
L 76.568425 312.758495 
L 77.707823 313.285736 
L 79.155343 313.955267 
L 79.517581 314.123085 
L 80.901173 311.073933 
L 80.365173 310.816946 
L 71.160597 306.401426 
L 72.575736 303.511018 
L 67.935307 301.256208 
L 65.510541 303.836026 
L 62.198232 300.660867 
L 62.04911 300.5163 
L 61.885263 300.35563 
L 61.835159 300.306273 
L 62.592208 299.4805 
L 63.211548 298.811809 
L 63.178776 298.777153 
L 63.057671 298.655685 
L 62.9691 298.569926 
L 62.946305 298.548224 
L 62.576827 298.191885 
L 55.592004 291.546703 
L 55.348162 291.316372 
L 53.071946 289.179336 
L 55.007423 287.329897 
L 57.430632 289.632854 
L 59.030088 287.990726 
L 59.154526 287.863786 
L 59.358842 287.655493 
L 59.57992 287.8974 
L 62.282677 290.485945 
L 64.717457 292.846606 
L 64.856364 292.979268 
L 65.019908 292.809195 
L 65.087224 292.742566 
L 66.900858 290.830748 
L 67.031932 290.699243 
L 67.19405 290.530571 
L 67.419924 290.295622 
L 68.408278 289.281819 
L 69.122389 288.539094 
L 70.580929 287.020323 
L 71.502637 286.060871 
L 71.69711 286.250935 
L 72.040915 286.558931 
L 71.979236 286.30883 
L 71.988655 285.982284 
L 72.048303 285.585969 
L 72.089302 285.541084 
L 72.75666 284.809951 
L 73.786362 283.681161 
L 75.94795 281.39859 
L 76.187787 281.151704 
L 76.146945 281.111452 
L 75.028785 280.008535 
L 74.269186 279.259485 
L 72.192179 277.388066 
L 71.815171 277.071343 
L 69.550317 279.530895 
L 68.409881 280.717223 
L 67.229684 282.022704 
L 64.06538 278.949393 
L 66.263009 276.578961 
L 68.590107 274.211185 
L 70.129507 275.581427 
L 77.157324 267.662177 
L 82.280644 261.758095 
L 84.286073 263.524016 
L 86.400398 265.269834 
L 88.209827 266.896468 
L 88.272734 266.942301 
L 88.50468 267.128805 
L 90.628705 264.669165 
L 90.787146 264.429702 
L 91.066135 264.007575 
L 92.64807 262.213464 
L 92.639731 262.403369 
L 92.636868 262.613239 
L 92.664576 262.796099 
L 92.750423 263.002022 
L 92.81674 263.131937 
L 92.878977 263.216659 
L 92.989133 263.305185 
L 93.025784 263.195132 
L 93.054163 263.114519 
L 93.390615 262.306228 
L 93.589069 261.77627 
L 93.704033 261.47764 
L 93.806158 261.149593 
L 93.980724 260.911512 
L 94.263671 260.431566 
L 95.604862 258.929185 
L 95.463582 258.791994 
L 95.382844 258.706942 
L 93.540041 257.131215 
L 98.601742 251.366886 
L 96.548735 249.475038 
L 94.741843 251.482094 
L 91.450748 255.255467 
L 89.506569 253.521792 
L 87.204031 251.555471 
L 92.237241 245.72162 
L 90.05203 243.844904 
L 89.806819 243.87634 
L 89.609086 243.94837 
L 89.435643 244.115672 
L 85.640043 248.555505 
L 82.849894 251.272925 
L 86.438667 246.943725 
L 89.494573 243.390754 
L 90.444366 242.286432 
L 90.768195 241.909805 
L 93.441524 238.861994 
L 94.789887 237.33088 
L 97.228114 234.563204 
L 103.572574 227.711214 
L 106.551593 224.608565 
L 107.039558 224.099987 
L 108.887646 222.175094 
L 113.123055 217.984072 
L 114.901486 216.28914 
L 116.015371 215.227528 
L 121.816277 209.854778 
L 122.606286 209.357355 
L 124.359352 207.935193 
L 124.787704 207.620392 
L 125.215639 207.352189 
L 125.456889 207.229265 
L 125.717831 207.114375 
L 125.898427 207.033219 
L 126.094209 206.960452 
L 126.335515 206.883075 
L 126.555036 206.83165 
L 127.027529 206.741373 
L 127.405473 206.704467 
L 127.651356 206.685943 
L 127.892265 206.671279 
L 128.220928 206.66982 
L 129.713997 206.735927 
L 130.492333 206.789257 
L 131.353198 206.848086 
L 131.536715 206.828935 
L 131.677528 206.794422 
L 131.777766 206.739989 
L 131.892451 206.670472 
L 133.653308 205.111219 
L 134.14241 204.66318 
L 134.259179 204.556521 
L 134.891811 203.97691 
L 139.54321 199.885299 
L 140.04261 199.535333 
L 140.224822 199.432087 
L 140.402413 199.420643 
L 140.596506 199.517089 
L 141.09817 199.990825 
L 141.317367 200.063062 
L 140.302976 199.17692 
L 139.082237 198.060851 
L 137.838518 196.767169 
L 137.208091 196.089831 
L 144.572517 189.317275 
L 146.45774 187.874053 
L 147.565702 186.961263 
L 149.114416 185.685592 
L 151.505101 183.571384 
L 152.723987 182.493389 
L 153.197849 182.07405 
L 156.228895 179.317027 
L 155.37825 180.213395 
L 155.290719 180.354013 
L 155.213684 180.540164 
L 155.145626 180.703178 
L 155.091796 180.867925 
L 155.043697 181.062094 
L 155.016701 181.256584 
L 154.999186 181.448959 
L 155.007055 181.65251 
L 155.028407 181.832217 
L 155.072775 182.024857 
L 155.1387 182.203101 
L 155.215972 182.357154 
L 155.309827 182.501374 
L 155.42955 182.661675 
L 155.554936 182.802697 
L 155.671749 182.917104 
L 155.802065 183.022733 
L 155.929015 183.094381 
L 156.080639 183.177556 
L 156.241475 183.235142 
L 156.429571 183.288135 
L 156.689504 183.337174 
L 156.881101 183.349869 
L 157.069119 183.346453 
L 157.222974 183.32907 
L 157.368511 183.298034 
L 157.519015 183.257881 
L 157.664749 183.198114 
L 157.799101 183.137313 
L 157.931774 183.062849 
L 158.064667 182.976122 
L 158.202023 182.860309 
L 158.303844 182.765917 
L 158.410857 182.654351 
L 158.483983 182.556146 
L 158.594218 182.374852 
L 158.665651 182.253174 
L 158.741531 182.090148 
L 158.799639 181.934854 
L 158.824857 181.827257 
L 158.847399 181.671312 
L 158.850049 181.532914 
L 158.851039 181.394168 
L 158.837268 181.212348 
L 158.801464 181.042472 
L 158.754991 180.873311 
L 158.714291 180.763003 
L 158.579456 180.478697 
L 157.584049 179.079686 
L 163.739616 186.049522 
L 165.810763 188.197076 
L 166.750644 189.164123 
L 167.596553 190.072089 
L 168.517278 191.060176 
L 171.740209 194.813801 
L 174.290688 197.861688 
L 176.415312 200.553509 
L 178.539543 203.257919 
L 181.407032 207.062714 
L 183.879402 210.607753 
L 186.139796 213.958635 
L 186.995526 215.257306 
L 168.924472 223.676748 
L 164.586285 227.682799 
L 189.827809 250.511903 
L 211.098882 267.03123 
L 209.911935 268.074388 
L 209.189361 268.622169 
L 207.762357 269.652525 
L 206.391366 270.711156 
L 201.536789 274.921073 
L 199.776801 276.490069 
L 195.357768 280.293742 
L 195.044778 280.534593 
L 194.674889 280.798658 
L 194.340029 281.012215 
L 193.971243 281.225474 
L 193.504216 281.421021 
L 192.934232 281.617432 
L 192.368659 281.753922 
L 190.995741 282.006608 
L 190.250267 282.093274 
L 189.671353 282.196142 
L 189.069047 282.359658 
L 188.513132 282.606835 
L 188.095282 282.853094 
L 187.761817 283.056125 
L 187.195838 283.546115 
L 185.752259 284.901813 
L 185.343282 285.062563 
L 185.177672 285.048805 
L 185.01831 285.086191 
L 184.877761 285.170495 
L 184.770248 285.293989 
L 184.705953 285.444044 
L 184.691507 285.613291 
L 184.594242 285.920359 
L 183.067092 287.413156 
L 182.426984 288.310716 
L 182.030943 289.17847 
L 182.564555 288.447496 
L 183.285191 287.618482 
L 184.711111 286.170336 
L 184.846685 286.090594 
L 185.009126 286.04865 
L 185.089363 286.08251 
L 185.163637 286.095359 
L 185.239319 286.097694 
L 185.309291 286.090228 
L 185.377351 286.073305 
L 185.797162 286.165849 
L 186.02416 286.29548 
L 186.520379 286.703931 
L 186.95993 287.282744 
L 187.482722 287.993513 
L 187.329023 288.16473 
L 181.178479 293.789486 
L 178.969342 296.031311 
L 178.573986 296.433425 
L 177.713415 297.326748 
L 172.52222 302.636537 
L 172.763843 302.861811 
L 172.826123 302.942302 
L 174.324546 305.111963 
L 172.940432 306.106597 
L 171.150912 307.321145 
L 169.703383 308.293424 
L 168.239014 309.279381 
L 167.110824 310.095614 
L 166.338633 310.660465 
L 165.907956 310.960998 
L 165.422976 311.284031 
L 165.026884 311.547724 
L 164.309602 312.025248 
L 164.114755 312.155162 
L 163.955438 312.243331 
L 163.667496 312.313817 
L 163.39103 312.279878 
L 162.870418 312.910923 
L 161.923033 313.929373 
L 160.989802 314.897697 
L 159.90301 316.00813 
L 157.27484 318.788439 
L 154.378276 321.776145 
L 153.123921 323.085774 
L 152.974645 323.239438 
L 150.856562 325.420534 
L 149.820104 326.467773 
L 149.698083 326.601076 
L 148.572874 327.829565 
L 147.295297 329.223973 
L 146.710761 329.862065 
L 145.301296 331.312343 
L 143.916217 332.737702 
L 143.441801 333.225682 
L 143.359303 333.286054 
L 141.828097 334.40958 
L 141.499206 334.591149 
L 141.204814 334.661257 
L 140.91652 334.677402 
L 140.490508 334.627508 
L 140.118016 334.494508 
L 137.070025 332.530843 
L 132.94679 329.8937 
L 132.09824 329.329643 
L 131.135614 328.621377 
L 130.994538 328.520651 
L 130.39696 328.073991 
L 129.308566 327.159511 
L 128.414943 326.395787 
L 126.998819 325.241003 
L 126.069356 324.453839 
L 125.51116 323.981188 
L 122.72428 321.637174 
L 121.415761 320.521106 
L 119.648432 319.064677 
L 119.12781 318.635757 
L 118.783142 318.316289 
L 117.709287 317.360731 
L 117.439176 317.081463 
L 116.333351 316.166927 
L 116.042476 315.580064 
L 116.003097 315.38531 
L 115.996491 315.215743 
L 116.005346 315.079092 
L 116.061358 314.891232 
L 115.783567 315.138214 
L 115.668137 315.241005 
L 115.452205 315.430454 
L 113.91293 314.128211 
L 113.666346 313.872735 
L 113.495043 313.673229 
L 113.414003 313.560857 
L 113.307987 313.393508 
L 113.235466 313.261506 
L 113.170766 313.120736 
L 113.087233 312.90466 
L 112.933 312.48791 
L 112.347097 310.566859 
L 109.816021 311.872414 
L 109.636765 311.975975 
L 109.461054 312.066219 
L 106.885713 313.501068 
L 104.689783 311.583554 
L 102.184996 309.465247 
L 101.094902 308.505055 
L 100.881544 308.451684 
L 100.614919 308.504179 
L 100.464662 308.657802 
L 97.282924 312.36422 
L 97.547494 312.599728 
L 97.625862 312.664461 
L 97.67336 312.705752 
L 98.381536 313.30025 
L 98.434731 313.343287 
L 98.698341 313.565481 
L 98.993773 313.814267 
L 99.46093 314.225784 
L 99.498931 314.260078 
L 99.741657 314.477388 
L 99.971085 314.68315 
L 99.995548 314.705196 
L 100.432821 315.12375 
L 99.247127 316.387393 
L 97.007657 318.952703 
L 96.196693 319.881679 
L 95.85401 320.274099 
L 94.390998 321.879609 
L 93.535472 322.877991 
L 92.979898 323.459825 
L 90.346857 326.500907 
L 89.79295 327.107956 
L 89.03521 327.946451 
L 88.829147 327.851716 
L 85.591018 326.341818 
L 85.251598 326.188606 
L 85.006317 326.077888 
L 84.778914 325.994731 
L 84.007956 325.739394 
L 82.181453 325.138249 
L 82.046389 325.088282 
L 82.211601 324.912938 
L 83.56019 323.361595 
L 85.737941 320.768832 
L 78.598188 317.312619 
L 78.130572 317.121077 
L 76.7469 320.181418 
L 75.395698 323.002071 
L 74.750813 322.80158 
L 68.382271 320.821708 
L 65.17313 319.824003 
L 64.941957 319.752038 
L 64.808095 319.709414 
L 63.657686 319.34327 
L 63.466597 319.252347 
L 62.488877 318.558803 
" clip-path="url(#pbe17160ba7)" style="fill: #009e73; fill-opacity: 0.498039; stroke: #009e73"/>
    <path d="M 61.971999 254.46724 
L 62.048595 254.179875 
L 62.305376 253.267303 
L 63.386492 249.546888 
L 63.721298 248.373924 
L 64.316866 246.257548 
L 64.1066 246.121446 
L 63.985822 246.063744 
L 63.802402 245.976318 
L 61.466979 245.299743 
L 61.323213 245.26133 
L 61.187036 245.22221 
L 59.684583 244.784875 
L 59.560743 244.748895 
L 58.640488 244.483771 
L 58.513565 244.447093 
L 58.557786 244.296049 
L 58.587347 244.195819 
L 58.620217 244.083324 
L 60.638502 237.203933 
L 58.816532 236.635135 
L 55.173875 235.572461 
L 52.436312 234.817281 
L 52.367991 234.798418 
L 52.150221 234.738338 
L 51.944547 234.678947 
L 51.759036 234.624094 
L 51.622154 234.580763 
L 51.576606 234.566436 
L 48.360037 233.571594 
L 45.070516 232.651733 
L 44.699036 232.551824 
L 45.400516 230.101876 
L 47.640251 222.156986 
L 48.624583 218.556901 
L 48.881418 218.562998 
L 49.13186 218.580312 
L 52.941906 217.773075 
L 54.544437 217.369157 
L 55.246278 216.959337 
L 55.028123 216.981245 
L 54.225446 217.052348 
L 53.148648 217.147852 
L 52.000195 217.199615 
L 49.677907 217.296483 
L 48.854119 217.31927 
L 46.897908 217.373369 
L 45.42525 217.39522 
L 44.10378 217.39775 
L 42.611517 217.400595 
L 40.5064 217.435164 
L 39.07836 217.504579 
L 38.567827 217.560676 
L 38.418205 217.583213 
L 37.840595 217.687008 
L 37.209887 217.820973 
L 37.717466 217.620182 
L 38.103424 217.467832 
L 38.490782 217.285349 
L 38.960904 217.103503 
L 40.004088 216.770209 
L 40.432986 216.643048 
L 42.779715 215.964673 
L 43.639159 215.705429 
L 43.48459 215.466603 
L 42.047182 213.535121 
L 42.235939 213.526215 
L 43.410218 213.470639 
L 44.24516 213.431791 
L 44.419452 213.423594 
L 44.633345 213.413615 
L 45.258817 211.196015 
L 44.797126 211.217754 
L 44.335436 211.239492 
L 43.835102 211.274573 
L 40.483054 211.450266 
L 39.946751 210.659207 
L 38.731363 209.022885 
L 37.556824 207.44118 
L 37.515283 207.385153 
L 42.514141 207.198775 
L 42.681593 207.245242 
L 43.108714 207.302017 
L 43.308161 207.324634 
L 45.603086 207.264306 
L 46.13115 207.226044 
L 46.373063 207.272449 
L 46.501714 206.836843 
L 46.561095 206.664066 
L 46.794774 205.908493 
L 46.867633 205.687705 
L 47.197342 204.632493 
L 47.401334 203.82649 
L 47.925306 201.677983 
L 48.676294 199.072414 
L 48.777733 198.720216 
L 48.954435 197.615373 
L 49.041662 194.380387 
L 49.096237 192.685629 
L 49.212039 191.636192 
L 49.316908 191.136136 
L 49.499625 190.439112 
L 49.79184 189.68699 
L 49.96555 189.348295 
L 50.954856 189.674469 
L 51.884092 189.959246 
L 52.072406 190.016899 
L 52.485076 190.133226 
L 54.655635 190.744889 
L 55.424602 191.038542 
L 55.635274 191.175705 
L 55.980702 191.401045 
L 57.115403 192.362874 
L 60.133022 194.920367 
L 60.482292 195.185287 
L 60.596176 195.262617 
L 61.949234 196.138035 
L 62.726707 196.626803 
L 64.388451 197.693226 
L 65.198197 198.193868 
L 66.451115 198.941109 
L 66.487815 198.881163 
L 66.568794 198.753207 
L 66.611646 198.680292 
L 68.723475 195.105338 
L 69.219044 194.073407 
L 70.687731 191.01441 
L 70.728907 190.926781 
L 69.86856 190.304984 
L 68.425707 189.242262 
L 68.4437 189.212464 
L 69.417481 187.645434 
L 68.658877 187.027391 
L 66.50485 185.305572 
L 66.384313 185.209331 
L 65.490759 186.621762 
L 59.809124 183.271026 
L 61.327853 180.955181 
L 66.945145 184.257579 
L 67.583425 183.220266 
L 67.832249 182.816417 
L 68.765196 181.2235 
L 69.114559 180.578856 
L 64.336626 176.717288 
L 64.250705 176.614007 
L 64.13654 176.476767 
L 64.346202 176.292987 
L 65.175621 175.84202 
L 65.754481 175.708357 
L 66.622089 175.542546 
L 66.914678 175.301578 
L 66.497267 174.89974 
L 66.073687 174.49195 
L 65.434765 174.010427 
L 63.770326 172.615722 
L 61.669518 170.779577 
L 61.772719 170.589237 
L 62.478315 169.288406 
L 62.54998 168.828312 
L 63.827217 164.408364 
L 65.128272 159.915157 
L 62.569634 159.210764 
L 62.457234 159.179681 
L 61.889072 161.162554 
L 60.907211 164.505908 
L 60.379329 166.22982 
L 60.041036 167.335169 
L 59.814035 168.01893 
L 59.798486 168.943908 
L 59.7646 169.235091 
L 58.917481 168.671041 
L 58.793404 168.57585 
L 58.491166 168.35293 
L 57.252836 167.475284 
L 57.016549 167.297152 
L 56.895548 167.192847 
L 56.617231 166.936268 
L 56.530028 166.710007 
L 56.489934 166.40207 
L 56.531451 166.157479 
L 56.783696 165.319189 
L 57.00797 164.212893 
L 57.337158 162.430651 
L 57.594467 161.152296 
L 57.702762 159.998799 
L 57.785181 159.355106 
L 57.938954 158.433161 
L 58.133882 157.401867 
L 58.338174 156.237425 
L 58.514392 155.233474 
L 58.802804 153.212665 
L 58.878336 152.563371 
L 59.161734 150.238447 
L 59.211356 149.23881 
L 59.246342 148.582194 
L 59.208909 146.975449 
L 59.166443 146.393878 
L 59.076491 145.725108 
L 58.64914 143.336684 
L 58.565356 142.66966 
L 58.571598 142.487814 
L 58.739739 141.75225 
L 59.526411 138.931467 
L 59.889614 137.633393 
L 61.118096 132.933901 
L 61.934206 129.980291 
L 62.798258 126.593581 
L 62.981277 125.832071 
L 63.590026 123.515954 
L 65.335006 117.487724 
L 65.61981 116.341416 
L 66.579986 112.465835 
L 66.823871 111.427125 
L 66.916178 111.029023 
L 67.101925 110.17606 
L 67.238674 109.652136 
L 67.262764 109.559617 
L 67.71051 107.794057 
L 67.885319 107.16744 
L 68.300265 105.569734 
L 69.100191 102.285353 
L 69.425495 100.904955 
L 69.667801 99.730649 
L 69.668509 99.727495 
L 70.132026 97.38766 
L 70.430987 95.730143 
L 70.683215 94.536906 
L 70.844321 93.980372 
L 70.978736 93.519513 
L 71.542056 91.753482 
L 71.793614 91.120482 
L 72.114696 90.332553 
L 72.380576 89.059066 
L 72.453945 88.707228 
L 72.875602 88.778655 
L 73.047441 88.807573 
L 73.304724 88.724642 
L 73.761516 88.360877 
L 74.627727 87.912982 
L 74.900405 87.823027 
L 75.496002 88.137788 
L 75.609459 88.326177 
L 75.536353 88.698337 
L 75.19899 89.543398 
L 75.155133 89.775033 
L 75.117943 90.039246 
L 76.223039 88.117818 
L 76.318611 87.943943 
L 76.409254 87.732776 
L 76.504288 87.823938 
L 84.544343 91.843829 
L 85.826805 93.142395 
L 90.208038 92.099827 
L 90.438343 92.04502 
L 92.21609 92.574155 
L 93.885315 93.144895 
L 94.841225 93.500204 
L 95.664383 93.815708 
L 97.583456 94.642616 
L 100.433586 96.249808 
L 102.560906 97.614952 
L 103.654611 98.452168 
L 104.71804 99.334259 
L 105.232518 99.798284 
L 105.425703 99.972522 
L 106.121764 100.600314 
L 107.945587 102.596749 
L 109.264225 104.234266 
L 110.239675 105.638473 
L 112.508167 109.433837 
L 120.371265 125.505343 
L 123.886634 132.686753 
L 124.961117 134.804805 
L 125.907824 137.087329 
L 127.057032 139.784782 
L 127.480492 140.625136 
L 128.411307 142.47111 
L 130.495332 146.147348 
L 131.811713 148.222309 
L 133.551374 150.746942 
L 134.525851 151.982491 
L 135.092789 152.665683 
L 131.87528 156.626236 
L 131.783643 156.588382 
L 131.358117 156.597678 
L 131.037555 156.750141 
L 130.769111 157.061603 
L 130.670164 157.367597 
L 130.66449 157.568014 
L 130.745722 157.879386 
L 130.535591 158.275243 
L 130.535591 158.275243 
L 127.107434 162.494739 
L 127.276038 162.663013 
L 126.609907 163.531036 
L 126.285633 163.953977 
L 126.241607 164.011141 
L 125.712099 164.68975 
L 124.50043 166.272437 
L 122.275867 169.177924 
L 121.901629 169.666787 
L 121.533271 169.334736 
L 121.44087 169.189796 
L 121.550051 169.683329 
L 121.486457 170.226472 
L 121.906613 170.063394 
L 122.32779 170.156782 
L 124.9501 173.171982 
L 128.528966 177.168028 
L 129.560926 178.593076 
L 130.428273 180.519346 
L 131.932792 187.183845 
L 131.893218 187.577004 
L 132.35663 189.343658 
L 132.677257 190.32147 
L 133.013368 191.352167 
L 133.308865 191.954769 
L 132.863129 192.544649 
L 132.227525 193.56011 
L 131.421792 195.053331 
L 131.2525 195.62534 
L 130.933236 196.108895 
L 130.434361 196.69393 
L 126.665978 200.085598 
L 124.826701 201.709699 
L 124.626577 201.912104 
L 124.474021 202.230422 
L 124.410212 202.600484 
L 124.412032 202.92492 
L 124.569573 203.384755 
L 124.605393 203.783426 
L 124.612408 204.283738 
L 124.637091 205.269633 
L 124.455329 206.13981 
L 124.129969 206.709549 
L 123.751658 207.223645 
L 122.210194 208.70791 
L 121.770652 209.383944 
L 115.718634 214.965455 
L 114.625763 215.992947 
L 112.80377 217.705904 
L 108.656392 221.732147 
L 106.700251 223.733889 
L 106.200668 224.244932 
L 103.470561 227.038629 
L 100.460641 230.377407 
L 96.124934 235.123568 
L 95.832414 235.260172 
L 95.52769 235.518015 
L 95.031207 236.104001 
L 94.444097 236.666258 
L 93.576242 237.295028 
L 93.141309 237.556858 
L 92.671895 237.733935 
L 92.121816 237.886921 
L 91.577612 237.988746 
L 90.534618 238.074972 
L 88.512356 238.179372 
L 85.992078 238.332956 
L 84.381332 238.463869 
L 83.711611 238.518498 
L 84.070763 238.826107 
L 84.145774 238.890498 
L 84.337338 239.054275 
L 84.974227 239.599849 
L 85.026925 239.644993 
L 85.523282 240.064576 
L 85.133762 240.455625 
L 85.039477 240.565734 
L 84.86204 240.770876 
L 80.495325 245.75144 
L 78.271966 243.790536 
L 71.069685 252.073685 
L 68.983548 250.225008 
L 64.34116 255.603804 
L 64.085729 255.899389 
L 64.063219 255.925687 
L 63.867025 256.152898 
L 63.749016 256.279835 
L 63.711114 256.335576 
L 63.543348 256.523521 
L 63.497617 256.577518 
L 61.10892 259.387445 
L 61.018318 259.396283 
L 60.914923 259.424053 
L 60.811502 259.421692 
L 60.748159 259.409134 
L 60.631232 259.423252 
L 60.510317 259.488175 
L 60.629475 259.044161 
L 61.860119 254.819454 
L 61.971999 254.46724 
" clip-path="url(#pbe17160ba7)" style="fill: #0072b2; fill-opacity: 0.498039; stroke: #0072b2"/>
   </g>
   <g id="LineCollection_1">
    <path d="M 233.735051 113.443639 
L 232.409905 114.033585 
L 230.199592 115.135968 
L 227.617611 116.504565 
L 224.889977 118.093764 
L 222.418262 119.672663 
L 219.835712 121.465446 
L 217.10914 123.476019 
L 210.941897 128.48909 
L 205.236379 133.401333 
L 198.14029 139.922438 
L 192.785818 144.803239 
L 186.358623 150.607722 
L 178.827828 157.427964 
L 173.653154 162.098062 
L 171.204974 164.253288 
L 162.847563 171.924777 
L 155.304745 178.846022 
L 152.515643 181.33677 
L 152.017171 181.790827 
L 145.499832 187.704359 
L 134.664859 197.656976 
L 130.841155 201.134639 
L 121.770652 209.383944 
L 115.718634 214.965455 
L 112.80377 217.705904 
L 108.656392 221.732147 
L 106.700251 223.733889 
L 106.200668 224.244932 
L 103.470561 227.038629 
L 100.460641 230.377407 
L 96.124934 235.123568 
L 93.141722 238.623363 
L 91.673675 240.262853 
L 90.103965 242.009298 
L 86.138263 246.583507 
L 82.436103 250.901603 
L 81.291304 252.211696 
L 80.112371 253.560705 
L 78.347968 255.579471 
L 74.922589 259.498781 
L 72.733225 262.001398 
L 72.057214 262.776687 
L 71.846093 263.018635 
L 69.287494 265.972474 
L 63.487097 272.662314 
L 60.314768 276.143869 
L 57.349265 279.171472 
L 56.431361 280.185857 
L 55.271163 281.391041 
L 53.608969 283.156167 
L 51.392736 285.410144 
L 46.056425 291.051459 
L 45.521892 291.60756 
L 42.887601 294.374344 
L 40.636796 296.749792 
L 39.338231 298.158891 
L 38.258038 299.413306 
L 37.745331 300.032082 
L 36.893696 301.111135 
L 36.098284 302.195047 
L 35.297339 303.188918 
L 34.267888 304.479358 
L 32.098781 307.286285 
L 31.104161 308.573529 
L 29.848572 310.244949 
L 29.178253 311.183342 
L 28.74709 311.781713 
L 28.342491 312.371306 
L 27.685517 313.415143 
L 26.964091 314.591458 
L 25.96764 316.42769 
L 25.525947 317.273066 
L 25.297064 317.743057 
L 24.878924 318.689669 
L 24.072681 320.457439 
L 23.371604 321.974277 
L 22.712708 323.426616 
L 21.885785 325.202799 
L 19.332915 330.729326 
L 16.951011 335.928818 
L 15.860968 338.323527 
L 14.782063 340.737842 
L 13.961844 342.475093 
L 13.130208 344.194478 
L 12.247316 345.944373 
L 11.463823 347.277274 
L 10.837241 348.316825 
L 9.210588 350.901013 
L 8.558355 351.945826 
L 7.535593 353.280254 
L 6.311895 354.768953 
L 4.34625 356.989271 
L 3.504179 357.931458 
" clip-path="url(#pbe17160ba7)" style="fill: none; stroke: #000000; stroke-width: 1.5"/>
    <path d="M 3.504626 358.681198 
L 4.410251 357.680844 
L 6.572675 355.110751 
L 8.653074 352.390727 
L 9.670314 350.97326 
L 10.302441 350.051081 
L 12.090948 347.130088 
L 14.393007 342.818175 
L 14.827195 341.936045 
L 16.229734 338.695724 
L 19.944088 330.595787 
L 22.465376 325.062967 
L 23.224316 323.469015 
L 23.87893 322.006866 
L 25.314439 318.85509 
L 25.916928 317.549931 
L 26.379934 316.645679 
L 27.689682 314.278429 
L 28.399034 313.149067 
L 29.073377 312.180544 
L 30.387013 310.367191 
L 30.948755 309.564812 
L 31.748728 308.469007 
L 32.445617 307.557913 
L 34.6339 304.697363 
L 35.665006 303.400613 
L 36.59537 302.245478 
L 37.245467 301.326343 
L 38.159239 300.21781 
L 38.70371 299.565375 
L 39.655908 298.468367 
L 41.05 296.951631 
L 43.180135 294.691893 
L 45.105874 292.631998 
L 45.827184 291.858876 
L 46.132041 291.564679 
L 48.23529 289.361661 
L 49.758977 287.802009 
L 51.831803 285.634011 
L 53.754131 283.6928 
L 55.53366 281.814405 
L 56.633666 280.681796 
L 57.505123 279.723508 
L 59.255218 277.910269 
L 60.183328 276.9337 
L 60.96708 276.091442 
L 61.543199 275.451873 
L 65.131353 271.468203 
L 68.766152 267.302231 
L 71.227603 264.434329 
L 72.225198 263.326247 
L 72.411442 263.115154 
L 74.400859 260.858335 
L 82.849894 251.272925 
L 86.438667 246.943725 
L 90.444366 242.286432 
L 90.768195 241.909805 
L 93.441524 238.861994 
L 94.789887 237.33088 
L 97.228114 234.563204 
L 103.572574 227.711214 
L 106.551593 224.608565 
L 107.039558 224.099987 
L 108.887646 222.175094 
L 113.123055 217.984072 
L 116.015371 215.227528 
L 121.816277 209.854778 
L 130.115022 202.414031 
L 134.926609 198.187794 
L 144.572517 189.317275 
L 152.378329 182.174682 
L 152.875147 181.72448 
L 157.368426 177.654002 
L 159.308467 175.896644 
L 163.022692 172.531709 
L 169.037757 167.109151 
L 174.151718 162.411947 
L 179.17816 157.858383 
L 186.637726 151.116719 
L 193.099697 145.261719 
L 198.444505 140.411757 
L 205.583531 133.905985 
L 211.366607 128.87798 
L 217.446468 123.911294 
L 220.119737 121.914473 
L 222.732622 120.117779 
L 225.161209 118.542455 
L 227.833218 116.992593 
L 230.400685 115.589332 
L 232.774697 114.441454 
L 233.736067 114.020926 
" clip-path="url(#pbe17160ba7)" style="fill: none; stroke: #000000; stroke-width: 1.5"/>
   </g>
   <g id="legend_1">
    <g id="patch_3">
     <path d="M 17.588828 423.49976 
L 220.011172 423.49976 
Q 222.211172 423.49976 222.211172 421.29976 
L 222.211172 356.49601 
Q 222.211172 354.29601 220.011172 354.29601 
L 17.588828 354.29601 
Q 15.388828 354.29601 15.388828 356.49601 
L 15.388828 421.29976 
Q 15.388828 423.49976 17.588828 423.49976 
z
" style="fill: #ffffff; stroke: #cccccc; stroke-linejoin: miter"/>
    </g>
    <g id="patch_4">
     <path d="M 19.788828 367.494291 
L 41.788828 367.494291 
L 41.788828 359.794291 
L 19.788828 359.794291 
z
" style="fill: #009e73"/>
    </g>
    <g id="text_2">
     <!-- Legnagyobb közösség -->
     <g transform="translate(50.588828 367.494291) scale(0.11 -0.11)">
      <defs>
       <path id="DejaVuSans-4c" d="M 628 4666 
L 1259 4666 
L 1259 531 
L 3531 531 
L 3531 0 
L 628 0 
L 628 4666 
z
" transform="scale(0.015625)"/>
       <path id="DejaVuSans-65" d="M 3597 1894 
L 3597 1613 
L 953 1613 
Q 991 1019 1311 708 
Q 1631 397 2203 397 
Q 2534 397 2845 478 
Q 3156 559 3463 722 
L 3463 178 
Q 3153 47 2828 -22 
Q 2503 -91 2169 -91 
Q 1331 -91 842 396 
Q 353 884 353 1716 
Q 353 2575 817 3079 
Q 1281 3584 2069 3584 
Q 2775 3584 3186 3129 
Q 3597 2675 3597 1894 
z
M 3022 2063 
Q 3016 2534 2758 2815 
Q 2500 3097 2075 3097 
Q 1594 3097 1305 2825 
Q 1016 2553 972 2059 
L 3022 2063 
z
" transform="scale(0.015625)"/>
       <path id="DejaVuSans-67" d="M 2906 1791 
Q 2906 2416 2648 2759 
Q 2391 3103 1925 3103 
Q 1463 3103 1205 2759 
Q 947 2416 947 1791 
Q 947 1169 1205 825 
Q 1463 481 1925 481 
Q 2391 481 2648 825 
Q 2906 1169 2906 1791 
z
M 3481 434 
Q 3481 -459 3084 -895 
Q 2688 -1331 1869 -1331 
Q 1566 -1331 1297 -1286 
Q 1028 -1241 775 -1147 
L 775 -588 
Q 1028 -725 1275 -790 
Q 1522 -856 1778 -856 
Q 2344 -856 2625 -561 
Q 2906 -266 2906 331 
L 2906 616 
Q 2728 306 2450 153 
Q 2172 0 1784 0 
Q 1141 0 747 490 
Q 353 981 353 1791 
Q 353 2603 747 3093 
Q 1141 3584 1784 3584 
Q 2172 3584 2450 3431 
Q 2728 3278 2906 2969 
L 2906 3500 
L 3481 3500 
L 3481 434 
z
" transform="scale(0.015625)"/>
       <path id="DejaVuSans-6e" d="M 3513 2113 
L 3513 0 
L 2938 0 
L 2938 2094 
Q 2938 2591 2744 2837 
Q 2550 3084 2163 3084 
Q 1697 3084 1428 2787 
Q 1159 2491 1159 1978 
L 1159 0 
L 581 0 
L 581 3500 
L 1159 3500 
L 1159 2956 
Q 1366 3272 1645 3428 
Q 1925 3584 2291 3584 
Q 2894 3584 3203 3211 
Q 3513 2838 3513 2113 
z
" transform="scale(0.015625)"/>
       <path id="DejaVuSans-61" d="M 2194 1759 
Q 1497 1759 1228 1600 
Q 959 1441 959 1056 
Q 959 750 1161 570 
Q 1363 391 1709 391 
Q 2188 391 2477 730 
Q 2766 1069 2766 1631 
L 2766 1759 
L 2194 1759 
z
M 3341 1997 
L 3341 0 
L 2766 0 
L 2766 531 
Q 2569 213 2275 61 
Q 1981 -91 1556 -91 
Q 1019 -91 701 211 
Q 384 513 384 1019 
Q 384 1609 779 1909 
Q 1175 2209 1959 2209 
L 2766 2209 
L 2766 2266 
Q 2766 2663 2505 2880 
Q 2244 3097 1772 3097 
Q 1472 3097 1187 3025 
Q 903 2953 641 2809 
L 641 3341 
Q 956 3463 1253 3523 
Q 1550 3584 1831 3584 
Q 2591 3584 2966 3190 
Q 3341 2797 3341 1997 
z
" transform="scale(0.015625)"/>
       <path id="DejaVuSans-79" d="M 2059 -325 
Q 1816 -950 1584 -1140 
Q 1353 -1331 966 -1331 
L 506 -1331 
L 506 -850 
L 844 -850 
Q 1081 -850 1212 -737 
Q 1344 -625 1503 -206 
L 1606 56 
L 191 3500 
L 800 3500 
L 1894 763 
L 2988 3500 
L 3597 3500 
L 2059 -325 
z
" transform="scale(0.015625)"/>
       <path id="DejaVuSans-6f" d="M 1959 3097 
Q 1497 3097 1228 2736 
Q 959 2375 959 1747 
Q 959 1119 1226 758 
Q 1494 397 1959 397 
Q 2419 397 2687 759 
Q 2956 1122 2956 1747 
Q 2956 2369 2687 2733 
Q 2419 3097 1959 3097 
z
M 1959 3584 
Q 2709 3584 3137 3096 
Q 3566 2609 3566 1747 
Q 3566 888 3137 398 
Q 2709 -91 1959 -91 
Q 1206 -91 779 398 
Q 353 888 353 1747 
Q 353 2609 779 3096 
Q 1206 3584 1959 3584 
z
" transform="scale(0.015625)"/>
       <path id="DejaVuSans-62" d="M 3116 1747 
Q 3116 2381 2855 2742 
Q 2594 3103 2138 3103 
Q 1681 3103 1420 2742 
Q 1159 2381 1159 1747 
Q 1159 1113 1420 752 
Q 1681 391 2138 391 
Q 2594 391 2855 752 
Q 3116 1113 3116 1747 
z
M 1159 2969 
Q 1341 3281 1617 3432 
Q 1894 3584 2278 3584 
Q 2916 3584 3314 3078 
Q 3713 2572 3713 1747 
Q 3713 922 3314 415 
Q 2916 -91 2278 -91 
Q 1894 -91 1617 61 
Q 1341 213 1159 525 
L 1159 0 
L 581 0 
L 581 4863 
L 1159 4863 
L 1159 2969 
z
" transform="scale(0.015625)"/>
       <path id="DejaVuSans-20" transform="scale(0.015625)"/>
       <path id="DejaVuSans-6b" d="M 581 4863 
L 1159 4863 
L 1159 1991 
L 2875 3500 
L 3609 3500 
L 1753 1863 
L 3688 0 
L 2938 0 
L 1159 1709 
L 1159 0 
L 581 0 
L 581 4863 
z
" transform="scale(0.015625)"/>
       <path id="DejaVuSans-f6" d="M 1959 3097 
Q 1497 3097 1228 2736 
Q 959 2375 959 1747 
Q 959 1119 1226 758 
Q 1494 397 1959 397 
Q 2419 397 2687 759 
Q 2956 1122 2956 1747 
Q 2956 2369 2687 2733 
Q 2419 3097 1959 3097 
z
M 1959 3584 
Q 2709 3584 3137 3096 
Q 3566 2609 3566 1747 
Q 3566 888 3137 398 
Q 2709 -91 1959 -91 
Q 1206 -91 779 398 
Q 353 888 353 1747 
Q 353 2609 779 3096 
Q 1206 3584 1959 3584 
z
M 2254 4850 
L 2888 4850 
L 2888 4219 
L 2254 4219 
L 2254 4850 
z
M 1032 4850 
L 1666 4850 
L 1666 4219 
L 1032 4219 
L 1032 4850 
z
" transform="scale(0.015625)"/>
       <path id="DejaVuSans-7a" d="M 353 3500 
L 3084 3500 
L 3084 2975 
L 922 459 
L 3084 459 
L 3084 0 
L 275 0 
L 275 525 
L 2438 3041 
L 353 3041 
L 353 3500 
z
" transform="scale(0.015625)"/>
       <path id="DejaVuSans-73" d="M 2834 3397 
L 2834 2853 
Q 2591 2978 2328 3040 
Q 2066 3103 1784 3103 
Q 1356 3103 1142 2972 
Q 928 2841 928 2578 
Q 928 2378 1081 2264 
Q 1234 2150 1697 2047 
L 1894 2003 
Q 2506 1872 2764 1633 
Q 3022 1394 3022 966 
Q 3022 478 2636 193 
Q 2250 -91 1575 -91 
Q 1294 -91 989 -36 
Q 684 19 347 128 
L 347 722 
Q 666 556 975 473 
Q 1284 391 1588 391 
Q 1994 391 2212 530 
Q 2431 669 2431 922 
Q 2431 1156 2273 1281 
Q 2116 1406 1581 1522 
L 1381 1569 
Q 847 1681 609 1914 
Q 372 2147 372 2553 
Q 372 3047 722 3315 
Q 1072 3584 1716 3584 
Q 2034 3584 2315 3537 
Q 2597 3491 2834 3397 
z
" transform="scale(0.015625)"/>
       <path id="DejaVuSans-e9" d="M 3597 1894 
L 3597 1613 
L 953 1613 
Q 991 1019 1311 708 
Q 1631 397 2203 397 
Q 2534 397 2845 478 
Q 3156 559 3463 722 
L 3463 178 
Q 3153 47 2828 -22 
Q 2503 -91 2169 -91 
Q 1331 -91 842 396 
Q 353 884 353 1716 
Q 353 2575 817 3079 
Q 1281 3584 2069 3584 
Q 2775 3584 3186 3129 
Q 3597 2675 3597 1894 
z
M 3022 2063 
Q 3016 2534 2758 2815 
Q 2500 3097 2075 3097 
Q 1594 3097 1305 2825 
Q 1016 2553 972 2059 
L 3022 2063 
z
M 2466 5119 
L 3088 5119 
L 2070 3944 
L 1591 3944 
L 2466 5119 
z
" transform="scale(0.015625)"/>
      </defs>
      <use xlink:href="#DejaVuSans-4c"/>
      <use xlink:href="#DejaVuSans-65" x="53.962891"/>
      <use xlink:href="#DejaVuSans-67" x="115.486328"/>
      <use xlink:href="#DejaVuSans-6e" x="178.962891"/>
      <use xlink:href="#DejaVuSans-61" x="242.341797"/>
      <use xlink:href="#DejaVuSans-67" x="303.621094"/>
      <use xlink:href="#DejaVuSans-79" x="367.097656"/>
      <use xlink:href="#DejaVuSans-6f" x="426.277344"/>
      <use xlink:href="#DejaVuSans-62" x="487.458984"/>
      <use xlink:href="#DejaVuSans-62" x="550.935547"/>
      <use xlink:href="#DejaVuSans-20" x="614.412109"/>
      <use xlink:href="#DejaVuSans-6b" x="646.199219"/>
      <use xlink:href="#DejaVuSans-f6" x="700.484375"/>
      <use xlink:href="#DejaVuSans-7a" x="761.666016"/>
      <use xlink:href="#DejaVuSans-f6" x="814.15625"/>
      <use xlink:href="#DejaVuSans-73" x="875.337891"/>
      <use xlink:href="#DejaVuSans-73" x="927.4375"/>
      <use xlink:href="#DejaVuSans-e9" x="979.537109"/>
      <use xlink:href="#DejaVuSans-67" x="1041.060547"/>
     </g>
    </g>
    <g id="patch_5">
     <path d="M 19.788828 384.080229 
L 41.788828 384.080229 
L 41.788828 376.380229 
L 19.788828 376.380229 
z
" style="fill: #0072b2"/>
    </g>
    <g id="text_3">
     <!-- Második legnagyobb közösség -->
     <g transform="translate(50.588828 384.080229) scale(0.11 -0.11)">
      <defs>
       <path id="DejaVuSans-4d" d="M 628 4666 
L 1569 4666 
L 2759 1491 
L 3956 4666 
L 4897 4666 
L 4897 0 
L 4281 0 
L 4281 4097 
L 3078 897 
L 2444 897 
L 1241 4097 
L 1241 0 
L 628 0 
L 628 4666 
z
" transform="scale(0.015625)"/>
       <path id="DejaVuSans-e1" d="M 2194 1759 
Q 1497 1759 1228 1600 
Q 959 1441 959 1056 
Q 959 750 1161 570 
Q 1363 391 1709 391 
Q 2188 391 2477 730 
Q 2766 1069 2766 1631 
L 2766 1759 
L 2194 1759 
z
M 3341 1997 
L 3341 0 
L 2766 0 
L 2766 531 
Q 2569 213 2275 61 
Q 1981 -91 1556 -91 
Q 1019 -91 701 211 
Q 384 513 384 1019 
Q 384 1609 779 1909 
Q 1175 2209 1959 2209 
L 2766 2209 
L 2766 2266 
Q 2766 2663 2505 2880 
Q 2244 3097 1772 3097 
Q 1472 3097 1187 3025 
Q 903 2953 641 2809 
L 641 3341 
Q 956 3463 1253 3523 
Q 1550 3584 1831 3584 
Q 2591 3584 2966 3190 
Q 3341 2797 3341 1997 
z
M 2290 5119 
L 2912 5119 
L 1894 3944 
L 1415 3944 
L 2290 5119 
z
" transform="scale(0.015625)"/>
       <path id="DejaVuSans-64" d="M 2906 2969 
L 2906 4863 
L 3481 4863 
L 3481 0 
L 2906 0 
L 2906 525 
Q 2725 213 2448 61 
Q 2172 -91 1784 -91 
Q 1150 -91 751 415 
Q 353 922 353 1747 
Q 353 2572 751 3078 
Q 1150 3584 1784 3584 
Q 2172 3584 2448 3432 
Q 2725 3281 2906 2969 
z
M 947 1747 
Q 947 1113 1208 752 
Q 1469 391 1925 391 
Q 2381 391 2643 752 
Q 2906 1113 2906 1747 
Q 2906 2381 2643 2742 
Q 2381 3103 1925 3103 
Q 1469 3103 1208 2742 
Q 947 2381 947 1747 
z
" transform="scale(0.015625)"/>
       <path id="DejaVuSans-69" d="M 603 3500 
L 1178 3500 
L 1178 0 
L 603 0 
L 603 3500 
z
M 603 4863 
L 1178 4863 
L 1178 4134 
L 603 4134 
L 603 4863 
z
" transform="scale(0.015625)"/>
       <path id="DejaVuSans-6c" d="M 603 4863 
L 1178 4863 
L 1178 0 
L 603 0 
L 603 4863 
z
" transform="scale(0.015625)"/>
      </defs>
      <use xlink:href="#DejaVuSans-4d"/>
      <use xlink:href="#DejaVuSans-e1" x="86.279297"/>
      <use xlink:href="#DejaVuSans-73" x="147.558594"/>
      <use xlink:href="#DejaVuSans-6f" x="199.658203"/>
      <use xlink:href="#DejaVuSans-64" x="260.839844"/>
      <use xlink:href="#DejaVuSans-69" x="324.316406"/>
      <use xlink:href="#DejaVuSans-6b" x="352.099609"/>
      <use xlink:href="#DejaVuSans-20" x="410.009766"/>
      <use xlink:href="#DejaVuSans-6c" x="441.796875"/>
      <use xlink:href="#DejaVuSans-65" x="469.580078"/>
      <use xlink:href="#DejaVuSans-67" x="531.103516"/>
      <use xlink:href="#DejaVuSans-6e" x="594.580078"/>
      <use xlink:href="#DejaVuSans-61" x="657.958984"/>
      <use xlink:href="#DejaVuSans-67" x="719.238281"/>
      <use xlink:href="#DejaVuSans-79" x="782.714844"/>
      <use xlink:href="#DejaVuSans-6f" x="841.894531"/>
      <use xlink:href="#DejaVuSans-62" x="903.076172"/>
      <use xlink:href="#DejaVuSans-62" x="966.552734"/>
      <use xlink:href="#DejaVuSans-20" x="1030.029297"/>
      <use xlink:href="#DejaVuSans-6b" x="1061.816406"/>
      <use xlink:href="#DejaVuSans-f6" x="1116.101562"/>
      <use xlink:href="#DejaVuSans-7a" x="1177.283203"/>
      <use xlink:href="#DejaVuSans-f6" x="1229.773438"/>
      <use xlink:href="#DejaVuSans-73" x="1290.955078"/>
      <use xlink:href="#DejaVuSans-73" x="1343.054688"/>
      <use xlink:href="#DejaVuSans-e9" x="1395.154297"/>
      <use xlink:href="#DejaVuSans-67" x="1456.677734"/>
     </g>
    </g>
    <g id="line2d_1">
     <path d="M 19.788828 396.376166 
L 30.788828 396.376166 
L 41.788828 396.376166 
" style="fill: none; stroke: #d55e00; stroke-width: 2; stroke-linecap: square"/>
    </g>
    <g id="text_4">
     <!-- 15. kerület határa -->
     <g transform="translate(50.588828 400.226166) scale(0.11 -0.11)">
      <defs>
       <path id="DejaVuSans-31" d="M 794 531 
L 1825 531 
L 1825 4091 
L 703 3866 
L 703 4441 
L 1819 4666 
L 2450 4666 
L 2450 531 
L 3481 531 
L 3481 0 
L 794 0 
L 794 531 
z
" transform="scale(0.015625)"/>
       <path id="DejaVuSans-35" d="M 691 4666 
L 3169 4666 
L 3169 4134 
L 1269 4134 
L 1269 2991 
Q 1406 3038 1543 3061 
Q 1681 3084 1819 3084 
Q 2600 3084 3056 2656 
Q 3513 2228 3513 1497 
Q 3513 744 3044 326 
Q 2575 -91 1722 -91 
Q 1428 -91 1123 -41 
Q 819 9 494 109 
L 494 744 
Q 775 591 1075 516 
Q 1375 441 1709 441 
Q 2250 441 2565 725 
Q 2881 1009 2881 1497 
Q 2881 1984 2565 2268 
Q 2250 2553 1709 2553 
Q 1456 2553 1204 2497 
Q 953 2441 691 2322 
L 691 4666 
z
" transform="scale(0.015625)"/>
       <path id="DejaVuSans-72" d="M 2631 2963 
Q 2534 3019 2420 3045 
Q 2306 3072 2169 3072 
Q 1681 3072 1420 2755 
Q 1159 2438 1159 1844 
L 1159 0 
L 581 0 
L 581 3500 
L 1159 3500 
L 1159 2956 
Q 1341 3275 1631 3429 
Q 1922 3584 2338 3584 
Q 2397 3584 2469 3576 
Q 2541 3569 2628 3553 
L 2631 2963 
z
" transform="scale(0.015625)"/>
       <path id="DejaVuSans-fc" d="M 544 1381 
L 544 3500 
L 1119 3500 
L 1119 1403 
Q 1119 906 1312 657 
Q 1506 409 1894 409 
Q 2359 409 2629 706 
Q 2900 1003 2900 1516 
L 2900 3500 
L 3475 3500 
L 3475 0 
L 2900 0 
L 2900 538 
Q 2691 219 2414 64 
Q 2138 -91 1772 -91 
Q 1169 -91 856 284 
Q 544 659 544 1381 
z
M 1991 3584 
L 1991 3584 
z
M 2278 4850 
L 2912 4850 
L 2912 4219 
L 2278 4219 
L 2278 4850 
z
M 1056 4850 
L 1690 4850 
L 1690 4219 
L 1056 4219 
L 1056 4850 
z
" transform="scale(0.015625)"/>
       <path id="DejaVuSans-74" d="M 1172 4494 
L 1172 3500 
L 2356 3500 
L 2356 3053 
L 1172 3053 
L 1172 1153 
Q 1172 725 1289 603 
Q 1406 481 1766 481 
L 2356 481 
L 2356 0 
L 1766 0 
Q 1100 0 847 248 
Q 594 497 594 1153 
L 594 3053 
L 172 3053 
L 172 3500 
L 594 3500 
L 594 4494 
L 1172 4494 
z
" transform="scale(0.015625)"/>
       <path id="DejaVuSans-68" d="M 3513 2113 
L 3513 0 
L 2938 0 
L 2938 2094 
Q 2938 2591 2744 2837 
Q 2550 3084 2163 3084 
Q 1697 3084 1428 2787 
Q 1159 2491 1159 1978 
L 1159 0 
L 581 0 
L 581 4863 
L 1159 4863 
L 1159 2956 
Q 1366 3272 1645 3428 
Q 1925 3584 2291 3584 
Q 2894 3584 3203 3211 
Q 3513 2838 3513 2113 
z
" transform="scale(0.015625)"/>
      </defs>
      <use xlink:href="#DejaVuSans-31"/>
      <use xlink:href="#DejaVuSans-35" x="63.623047"/>
      <use xlink:href="#DejaVuSans-2e" x="127.246094"/>
      <use xlink:href="#DejaVuSans-20" x="159.033203"/>
      <use xlink:href="#DejaVuSans-6b" x="190.820312"/>
      <use xlink:href="#DejaVuSans-65" x="245.105469"/>
      <use xlink:href="#DejaVuSans-72" x="306.628906"/>
      <use xlink:href="#DejaVuSans-fc" x="347.742188"/>
      <use xlink:href="#DejaVuSans-6c" x="411.121094"/>
      <use xlink:href="#DejaVuSans-65" x="438.904297"/>
      <use xlink:href="#DejaVuSans-74" x="500.427734"/>
      <use xlink:href="#DejaVuSans-20" x="539.636719"/>
      <use xlink:href="#DejaVuSans-68" x="571.423828"/>
      <use xlink:href="#DejaVuSans-61" x="634.802734"/>
      <use xlink:href="#DejaVuSans-74" x="696.082031"/>
      <use xlink:href="#DejaVuSans-e1" x="735.291016"/>
      <use xlink:href="#DejaVuSans-72" x="796.570312"/>
      <use xlink:href="#DejaVuSans-61" x="837.683594"/>
     </g>
    </g>
    <g id="line2d_2">
     <path d="M 19.788828 412.962104 
L 30.788828 412.962104 
L 41.788828 412.962104 
" style="fill: none; stroke: #2d2d2d; stroke-width: 2; stroke-linecap: square"/>
    </g>
    <g id="text_5">
     <!-- M3-as autópálya -->
     <g transform="translate(50.588828 416.812104) scale(0.11 -0.11)">
      <defs>
       <path id="DejaVuSans-33" d="M 2597 2516 
Q 3050 2419 3304 2112 
Q 3559 1806 3559 1356 
Q 3559 666 3084 287 
Q 2609 -91 1734 -91 
Q 1441 -91 1130 -33 
Q 819 25 488 141 
L 488 750 
Q 750 597 1062 519 
Q 1375 441 1716 441 
Q 2309 441 2620 675 
Q 2931 909 2931 1356 
Q 2931 1769 2642 2001 
Q 2353 2234 1838 2234 
L 1294 2234 
L 1294 2753 
L 1863 2753 
Q 2328 2753 2575 2939 
Q 2822 3125 2822 3475 
Q 2822 3834 2567 4026 
Q 2313 4219 1838 4219 
Q 1578 4219 1281 4162 
Q 984 4106 628 3988 
L 628 4550 
Q 988 4650 1302 4700 
Q 1616 4750 1894 4750 
Q 2613 4750 3031 4423 
Q 3450 4097 3450 3541 
Q 3450 3153 3228 2886 
Q 3006 2619 2597 2516 
z
" transform="scale(0.015625)"/>
       <path id="DejaVuSans-2d" d="M 313 2009 
L 1997 2009 
L 1997 1497 
L 313 1497 
L 313 2009 
z
" transform="scale(0.015625)"/>
       <path id="DejaVuSans-75" d="M 544 1381 
L 544 3500 
L 1119 3500 
L 1119 1403 
Q 1119 906 1312 657 
Q 1506 409 1894 409 
Q 2359 409 2629 706 
Q 2900 1003 2900 1516 
L 2900 3500 
L 3475 3500 
L 3475 0 
L 2900 0 
L 2900 538 
Q 2691 219 2414 64 
Q 2138 -91 1772 -91 
Q 1169 -91 856 284 
Q 544 659 544 1381 
z
M 1991 3584 
L 1991 3584 
z
" transform="scale(0.015625)"/>
       <path id="DejaVuSans-f3" d="M 1959 3097 
Q 1497 3097 1228 2736 
Q 959 2375 959 1747 
Q 959 1119 1226 758 
Q 1494 397 1959 397 
Q 2419 397 2687 759 
Q 2956 1122 2956 1747 
Q 2956 2369 2687 2733 
Q 2419 3097 1959 3097 
z
M 1959 3584 
Q 2709 3584 3137 3096 
Q 3566 2609 3566 1747 
Q 3566 888 3137 398 
Q 2709 -91 1959 -91 
Q 1206 -91 779 398 
Q 353 888 353 1747 
Q 353 2609 779 3096 
Q 1206 3584 1959 3584 
z
M 2394 5119 
L 3016 5119 
L 1998 3944 
L 1519 3944 
L 2394 5119 
z
" transform="scale(0.015625)"/>
       <path id="DejaVuSans-70" d="M 1159 525 
L 1159 -1331 
L 581 -1331 
L 581 3500 
L 1159 3500 
L 1159 2969 
Q 1341 3281 1617 3432 
Q 1894 3584 2278 3584 
Q 2916 3584 3314 3078 
Q 3713 2572 3713 1747 
Q 3713 922 3314 415 
Q 2916 -91 2278 -91 
Q 1894 -91 1617 61 
Q 1341 213 1159 525 
z
M 3116 1747 
Q 3116 2381 2855 2742 
Q 2594 3103 2138 3103 
Q 1681 3103 1420 2742 
Q 1159 2381 1159 1747 
Q 1159 1113 1420 752 
Q 1681 391 2138 391 
Q 2594 391 2855 752 
Q 3116 1113 3116 1747 
z
" transform="scale(0.015625)"/>
      </defs>
      <use xlink:href="#DejaVuSans-4d"/>
      <use xlink:href="#DejaVuSans-33" x="86.279297"/>
      <use xlink:href="#DejaVuSans-2d" x="149.902344"/>
      <use xlink:href="#DejaVuSans-61" x="185.986328"/>
      <use xlink:href="#DejaVuSans-73" x="247.265625"/>
      <use xlink:href="#DejaVuSans-20" x="299.365234"/>
      <use xlink:href="#DejaVuSans-61" x="331.152344"/>
      <use xlink:href="#DejaVuSans-75" x="392.431641"/>
      <use xlink:href="#DejaVuSans-74" x="455.810547"/>
      <use xlink:href="#DejaVuSans-f3" x="495.019531"/>
      <use xlink:href="#DejaVuSans-70" x="556.201172"/>
      <use xlink:href="#DejaVuSans-e1" x="619.677734"/>
      <use xlink:href="#DejaVuSans-6c" x="680.957031"/>
      <use xlink:href="#DejaVuSans-79" x="708.740234"/>
      <use xlink:href="#DejaVuSans-61" x="767.919922"/>
     </g>
    </g>
   </g>
  </g>
  <g id="axes_2">
   <g id="patch_6">
    <path d="M 132.036084 94.40024 
L 229.236084 94.40024 
L 229.236084 8.00024 
L 132.036084 8.00024 
z
" style="fill: #ffffff"/>
   </g>
   <g id="PolyCollection_1"/>
   <g id="PolyCollection_2"/>
   <g id="PolyCollection_3"/>
   <g id="PolyCollection_4"/>
   <g id="PolyCollection_5"/>
   <g id="PolyCollection_6"/>
   <g id="PolyCollection_7"/>
   <g id="PolyCollection_8"/>
   <g id="PolyCollection_9"/>
   <g id="PolyCollection_10"/>
   <g id="matplotlib.axis_1">
    <g id="text_6">
     <!-- felbontás -->
     <g transform="translate(152.727646 107.518365) scale(0.12 -0.12)">
      <defs>
       <path id="DejaVuSans-66" d="M 2375 4863 
L 2375 4384 
L 1825 4384 
Q 1516 4384 1395 4259 
Q 1275 4134 1275 3809 
L 1275 3500 
L 2222 3500 
L 2222 3053 
L 1275 3053 
L 1275 0 
L 697 0 
L 697 3053 
L 147 3053 
L 147 3500 
L 697 3500 
L 697 3744 
Q 697 4328 969 4595 
Q 1241 4863 1831 4863 
L 2375 4863 
z
" transform="scale(0.015625)"/>
      </defs>
      <use xlink:href="#DejaVuSans-66"/>
      <use xlink:href="#DejaVuSans-65" x="35.205078"/>
      <use xlink:href="#DejaVuSans-6c" x="96.728516"/>
      <use xlink:href="#DejaVuSans-62" x="124.511719"/>
      <use xlink:href="#DejaVuSans-6f" x="187.988281"/>
      <use xlink:href="#DejaVuSans-6e" x="249.169922"/>
      <use xlink:href="#DejaVuSans-74" x="312.548828"/>
      <use xlink:href="#DejaVuSans-e1" x="351.757812"/>
      <use xlink:href="#DejaVuSans-73" x="413.037109"/>
     </g>
    </g>
   </g>
   <g id="matplotlib.axis_2">
    <g id="text_7">
     <!-- SAD ($km^2$) -->
     <g transform="translate(125.540459 82.76024) rotate(-90) scale(0.12 -0.12)">
      <defs>
       <path id="DejaVuSans-53" d="M 3425 4513 
L 3425 3897 
Q 3066 4069 2747 4153 
Q 2428 4238 2131 4238 
Q 1616 4238 1336 4038 
Q 1056 3838 1056 3469 
Q 1056 3159 1242 3001 
Q 1428 2844 1947 2747 
L 2328 2669 
Q 3034 2534 3370 2195 
Q 3706 1856 3706 1288 
Q 3706 609 3251 259 
Q 2797 -91 1919 -91 
Q 1588 -91 1214 -16 
Q 841 59 441 206 
L 441 856 
Q 825 641 1194 531 
Q 1563 422 1919 422 
Q 2459 422 2753 634 
Q 3047 847 3047 1241 
Q 3047 1584 2836 1778 
Q 2625 1972 2144 2069 
L 1759 2144 
Q 1053 2284 737 2584 
Q 422 2884 422 3419 
Q 422 4038 858 4394 
Q 1294 4750 2059 4750 
Q 2388 4750 2728 4690 
Q 3069 4631 3425 4513 
z
" transform="scale(0.015625)"/>
       <path id="DejaVuSans-41" d="M 2188 4044 
L 1331 1722 
L 3047 1722 
L 2188 4044 
z
M 1831 4666 
L 2547 4666 
L 4325 0 
L 3669 0 
L 3244 1197 
L 1141 1197 
L 716 0 
L 50 0 
L 1831 4666 
z
" transform="scale(0.015625)"/>
       <path id="DejaVuSans-44" d="M 1259 4147 
L 1259 519 
L 2022 519 
Q 2988 519 3436 956 
Q 3884 1394 3884 2338 
Q 3884 3275 3436 3711 
Q 2988 4147 2022 4147 
L 1259 4147 
z
M 628 4666 
L 1925 4666 
Q 3281 4666 3915 4102 
Q 4550 3538 4550 2338 
Q 4550 1131 3912 565 
Q 3275 0 1925 0 
L 628 0 
L 628 4666 
z
" transform="scale(0.015625)"/>
       <path id="DejaVuSans-28" d="M 1984 4856 
Q 1566 4138 1362 3434 
Q 1159 2731 1159 2009 
Q 1159 1288 1364 580 
Q 1569 -128 1984 -844 
L 1484 -844 
Q 1016 -109 783 600 
Q 550 1309 550 2009 
Q 550 2706 781 3412 
Q 1013 4119 1484 4856 
L 1984 4856 
z
" transform="scale(0.015625)"/>
       <path id="DejaVuSans-Oblique-6b" d="M 1172 4863 
L 1747 4863 
L 1197 2028 
L 3169 3500 
L 3916 3500 
L 1716 1825 
L 3322 0 
L 2625 0 
L 1131 1709 
L 800 0 
L 225 0 
L 1172 4863 
z
" transform="scale(0.015625)"/>
       <path id="DejaVuSans-Oblique-6d" d="M 5747 2113 
L 5338 0 
L 4763 0 
L 5166 2094 
Q 5191 2228 5203 2325 
Q 5216 2422 5216 2491 
Q 5216 2772 5059 2928 
Q 4903 3084 4622 3084 
Q 4203 3084 3875 2770 
Q 3547 2456 3450 1953 
L 3066 0 
L 2491 0 
L 2900 2094 
Q 2925 2209 2937 2307 
Q 2950 2406 2950 2484 
Q 2950 2769 2794 2926 
Q 2638 3084 2363 3084 
Q 1938 3084 1609 2770 
Q 1281 2456 1184 1953 
L 800 0 
L 225 0 
L 909 3500 
L 1484 3500 
L 1375 2956 
Q 1609 3263 1923 3423 
Q 2238 3584 2597 3584 
Q 2978 3584 3223 3384 
Q 3469 3184 3519 2828 
Q 3781 3197 4126 3390 
Q 4472 3584 4856 3584 
Q 5306 3584 5551 3325 
Q 5797 3066 5797 2591 
Q 5797 2488 5784 2364 
Q 5772 2241 5747 2113 
z
" transform="scale(0.015625)"/>
       <path id="DejaVuSans-32" d="M 1228 531 
L 3431 531 
L 3431 0 
L 469 0 
L 469 531 
Q 828 903 1448 1529 
Q 2069 2156 2228 2338 
Q 2531 2678 2651 2914 
Q 2772 3150 2772 3378 
Q 2772 3750 2511 3984 
Q 2250 4219 1831 4219 
Q 1534 4219 1204 4116 
Q 875 4013 500 3803 
L 500 4441 
Q 881 4594 1212 4672 
Q 1544 4750 1819 4750 
Q 2544 4750 2975 4387 
Q 3406 4025 3406 3419 
Q 3406 3131 3298 2873 
Q 3191 2616 2906 2266 
Q 2828 2175 2409 1742 
Q 1991 1309 1228 531 
z
" transform="scale(0.015625)"/>
       <path id="DejaVuSans-29" d="M 513 4856 
L 1013 4856 
Q 1481 4119 1714 3412 
Q 1947 2706 1947 2009 
Q 1947 1309 1714 600 
Q 1481 -109 1013 -844 
L 513 -844 
Q 928 -128 1133 580 
Q 1338 1288 1338 2009 
Q 1338 2731 1133 3434 
Q 928 4138 513 4856 
z
" transform="scale(0.015625)"/>
      </defs>
      <use xlink:href="#DejaVuSans-53" transform="translate(0 0.765625)"/>
      <use xlink:href="#DejaVuSans-41" transform="translate(63.476562 0.765625)"/>
      <use xlink:href="#DejaVuSans-44" transform="translate(131.884766 0.765625)"/>
      <use xlink:href="#DejaVuSans-20" transform="translate(208.886719 0.765625)"/>
      <use xlink:href="#DejaVuSans-28" transform="translate(240.673828 0.765625)"/>
      <use xlink:href="#DejaVuSans-Oblique-6b" transform="translate(279.6875 0.765625)"/>
      <use xlink:href="#DejaVuSans-Oblique-6d" transform="translate(337.597656 0.765625)"/>
      <use xlink:href="#DejaVuSans-32" transform="translate(439.659661 39.046875) scale(0.7)"/>
      <use xlink:href="#DejaVuSans-29" transform="translate(486.930169 0.765625)"/>
     </g>
    </g>
   </g>
   <g id="line2d_3">
    <path d="M 134.663111 12.373899 
L 139.917165 21.118488 
L 145.171219 75.350707 
L 150.425273 90.980922 
L 155.679327 90.563777 
L 160.933381 80.877579 
L 166.187435 89.707811 
L 171.441489 88.791364 
L 176.695543 89.050261 
L 181.949597 88.348451 
L 187.203651 74.237512 
L 192.457705 72.789781 
L 197.71176 72.659423 
L 202.965814 72.599701 
L 208.219868 71.994598 
L 213.473922 71.178497 
L 218.727976 70.897924 
L 223.98203 70.271297 
L 229.236084 70.219912 
" clip-path="url(#p3aba2cfd29)" style="fill: none; stroke: #a5cd90; stroke-width: 1.5; stroke-linecap: square"/>
   </g>
   <g id="line2d_4">
    <path d="M 134.663111 12.772552 
L 139.917165 20.344678 
L 145.171219 71.859086 
L 150.425273 90.049015 
L 155.679327 75.846371 
L 160.933381 90.042497 
L 166.187435 90.865571 
L 171.441489 89.156366 
L 176.695543 89.034952 
L 181.949597 88.339811 
L 187.203651 72.826615 
L 192.457705 79.589006 
L 197.71176 72.684737 
L 202.965814 72.554985 
L 208.219868 71.610042 
L 213.473922 70.98872 
L 218.727976 70.328139 
L 223.98203 70.226884 
L 229.236084 70.131996 
" clip-path="url(#p3aba2cfd29)" style="fill: none; stroke: #86be91; stroke-width: 1.5; stroke-linecap: square"/>
   </g>
   <g id="line2d_5">
    <path d="M 134.663111 12.847128 
L 139.917165 22.185907 
L 145.171219 71.224728 
L 150.425273 74.617217 
L 155.679327 91.405343 
L 160.933381 90.556804 
L 166.187435 90.363693 
L 171.441489 88.822286 
L 176.695543 88.861848 
L 181.949597 89.103465 
L 187.203651 85.214859 
L 192.457705 74.232055 
L 197.71176 72.31352 
L 202.965814 72.286842 
L 208.219868 71.044198 
L 213.473922 71.308855 
L 218.727976 70.319347 
L 223.98203 70.641756 
L 229.236084 70.180501 
" clip-path="url(#p3aba2cfd29)" style="fill: none; stroke: #68af90; stroke-width: 1.5; stroke-linecap: square"/>
   </g>
   <g id="line2d_6">
    <path d="M 134.663111 9.488291 
L 139.917165 53.536678 
L 145.171219 71.753587 
L 150.425273 87.414724 
L 155.679327 78.847634 
L 160.933381 90.967432 
L 166.187435 90.561503 
L 171.441489 89.973074 
L 176.695543 88.686623 
L 181.949597 88.556568 
L 187.203651 86.441587 
L 192.457705 86.071886 
L 197.71176 79.161705 
L 202.965814 71.721301 
L 208.219868 71.443154 
L 213.473922 70.461983 
L 218.727976 70.922177 
L 223.98203 70.180501 
L 229.236084 69.761234 
" clip-path="url(#p3aba2cfd29)" style="fill: none; stroke: #509e90; stroke-width: 1.5; stroke-linecap: square"/>
   </g>
   <g id="line2d_7">
    <path d="M 134.663111 13.723709 
L 139.917165 22.260181 
L 145.171219 76.933798 
L 150.425273 90.843137 
L 155.679327 80.954126 
L 160.933381 89.996114 
L 166.187435 90.083726 
L 171.441489 89.25944 
L 176.695543 89.757983 
L 181.949597 89.416779 
L 187.203651 72.805242 
L 192.457705 74.059406 
L 197.71176 72.762194 
L 202.965814 71.873941 
L 208.219868 71.416627 
L 213.473922 71.27672 
L 218.727976 70.217032 
L 223.98203 70.314042 
L 229.236084 70.546867 
" clip-path="url(#p3aba2cfd29)" style="fill: none; stroke: #3d8e8e; stroke-width: 1.5; stroke-linecap: square"/>
   </g>
   <g id="line2d_8">
    <path d="M 134.663111 12.898968 
L 139.917165 20.760004 
L 145.171219 75.432863 
L 150.425273 91.070505 
L 155.679327 89.916838 
L 160.933381 91.699558 
L 166.187435 90.785385 
L 171.441489 88.835322 
L 176.695543 88.676164 
L 181.949597 88.324804 
L 187.203651 87.104291 
L 192.457705 86.547389 
L 197.71176 73.047011 
L 202.965814 72.262589 
L 208.219868 70.714362 
L 213.473922 70.9916 
L 218.727976 70.815768 
L 223.98203 70.328139 
L 229.236084 70.129116 
" clip-path="url(#p3aba2cfd29)" style="fill: none; stroke: #2a7d8c; stroke-width: 1.5; stroke-linecap: square"/>
   </g>
   <g id="line2d_9">
    <path d="M 134.663111 27.273655 
L 139.917165 20.601907 
L 145.171219 73.956939 
L 150.425273 67.289587 
L 155.679327 90.487533 
L 160.933381 91.577082 
L 166.187435 90.014606 
L 171.441489 88.708299 
L 176.695543 88.778177 
L 181.949597 88.575516 
L 187.203651 85.683086 
L 192.457705 73.165394 
L 197.71176 72.817672 
L 202.965814 72.386884 
L 208.219868 71.565175 
L 213.473922 71.019339 
L 218.727976 70.219912 
L 223.98203 70.131996 
L 229.236084 69.693781 
" clip-path="url(#p3aba2cfd29)" style="fill: none; stroke: #1d6c8a; stroke-width: 1.5; stroke-linecap: square"/>
   </g>
   <g id="line2d_10">
    <path d="M 134.663111 12.929133 
L 139.917165 21.958236 
L 145.171219 82.506598 
L 150.425273 70.661006 
L 155.679327 90.788265 
L 160.933381 90.060232 
L 166.187435 89.890918 
L 171.441489 88.839112 
L 176.695543 89.090429 
L 181.949597 88.630691 
L 187.203651 72.881335 
L 192.457705 74.046067 
L 197.71176 85.91288 
L 202.965814 72.084181 
L 208.219868 71.805579 
L 213.473922 71.044653 
L 218.727976 70.271297 
L 223.98203 70.307373 
L 229.236084 70.154581 
" clip-path="url(#p3aba2cfd29)" style="fill: none; stroke: #1f5985; stroke-width: 1.5; stroke-linecap: square"/>
   </g>
   <g id="line2d_11">
    <path d="M 134.663111 14.444164 
L 139.917165 54.427507 
L 145.171219 76.184998 
L 150.425273 91.014724 
L 155.679327 78.490362 
L 160.933381 91.501141 
L 166.187435 90.992745 
L 171.441489 88.917023 
L 176.695543 88.655549 
L 181.949597 88.100467 
L 187.203651 85.529082 
L 192.457705 73.757461 
L 197.71176 72.956518 
L 202.965814 71.739339 
L 208.219868 71.408291 
L 213.473922 70.9916 
L 218.727976 71.189107 
L 223.98203 70.131996 
L 229.236084 69.692417 
" clip-path="url(#p3aba2cfd29)" style="fill: none; stroke: #27457c; stroke-width: 1.5; stroke-linecap: square"/>
   </g>
   <g id="line2d_12">
    <path d="M 134.663111 9.478135 
L 139.917165 21.756787 
L 145.171219 76.332939 
L 150.425273 82.906008 
L 155.679327 90.554985 
L 160.933381 90.338682 
L 166.187435 90.415684 
L 171.441489 89.155002 
L 176.695543 88.786059 
L 181.949597 87.540232 
L 187.203651 74.09912 
L 192.457705 72.845411 
L 197.71176 72.715659 
L 202.965814 71.655971 
L 208.219868 71.083305 
L 213.473922 69.598589 
L 218.727976 70.358152 
L 223.98203 70.219912 
L 229.236084 70.546867 
" clip-path="url(#p3aba2cfd29)" style="fill: none; stroke: #2c3172; stroke-width: 1.5; stroke-linecap: square"/>
   </g>
   <g id="line2d_13">
    <path d="M 132.036084 53.395103 
L 229.236084 53.395103 
" clip-path="url(#p3aba2cfd29)" style="fill: none; stroke-dasharray: 1,1.65; stroke-dashoffset: 0; stroke: #2d2d2d"/>
   </g>
   <g id="line2d_14">
    <path d="M 208.219868 94.40024 
L 208.219868 8.00024 
" clip-path="url(#p3aba2cfd29)" style="fill: none; stroke: #ff4500; stroke-width: 2; stroke-linecap: square"/>
   </g>
   <g id="patch_7">
    <path d="M 132.036084 94.40024 
L 132.036084 8.00024 
" style="fill: none; stroke: #000000; stroke-width: 0.8; stroke-linejoin: miter; stroke-linecap: square"/>
   </g>
   <g id="patch_8">
    <path d="M 229.236084 94.40024 
L 229.236084 8.00024 
" style="fill: none; stroke: #000000; stroke-width: 0.8; stroke-linejoin: miter; stroke-linecap: square"/>
   </g>
   <g id="patch_9">
    <path d="M 132.036084 94.40024 
L 229.236084 94.40024 
" style="fill: none; stroke: #000000; stroke-width: 0.8; stroke-linejoin: miter; stroke-linecap: square"/>
   </g>
   <g id="patch_10">
    <path d="M 132.036084 8.00024 
L 229.236084 8.00024 
" style="fill: none; stroke: #000000; stroke-width: 0.8; stroke-linejoin: miter; stroke-linecap: square"/>
   </g>
  </g>
 </g>
 <defs>
  <clipPath id="pbe17160ba7">
   <rect x="3.363916" y="3.00024" width="230.872168" height="425.99952"/>
  </clipPath>
  <clipPath id="p3aba2cfd29">
   <rect x="132.036084" y="8.00024" width="97.2" height="86.4"/>
  </clipPath>
 </defs>
</svg>
